NotoSansBatak-Regular.ufo
<glyph name="a-batak" format="2">
	<advance width="1126"/>
	<unicode hex="1BC0"/>
	<anchor x="227" y="536" name="topleft"/>
	<anchor x="964" y="-21" name="bottomright"/>
	<anchor x="837" y="536" name="topright"/>
	<outline>
		<contour>
			<point x="663" y="-15" type="curve" smooth="yes"/>
			<point x="691" y="-15"/>
			<point x="789" y="12"/>
			<point x="843" y="21" type="curve" smooth="yes"/>
			<point x="921" y="34"/>
			<point x="998" y="41"/>
			<point x="1073" y="46" type="curve"/>
			<point x="1059" y="241"/>
			<point x="1015" y="427"/>
			<point x="822" y="427" type="curve" smooth="yes"/>
			<point x="738" y="427"/>
			<point x="685" y="378"/>
			<point x="609" y="310" type="curve" smooth="yes"/>
			<point x="488" y="201" type="line" smooth="yes"/>
			<point x="445" y="162"/>
			<point x="375" y="107"/>
			<point x="309" y="107" type="curve" smooth="yes"/>
			<point x="245" y="107"/>
			<point x="198" y="169"/>
			<point x="134" y="250" type="curve" smooth="yes"/>
			<point x="125" y="261"/>
			<point x="116" y="266"/>
			<point x="106" y="266" type="curve" smooth="yes"/>
			<point x="82" y="266"/>
			<point x="54" y="244"/>
			<point x="54" y="220" type="curve" smooth="yes"/>
			<point x="54" y="207"/>
			<point x="58" y="199"/>
			<point x="62" y="194" type="curve" smooth="yes"/>
			<point x="143" y="90"/>
			<point x="194" y="20"/>
			<point x="312" y="20" type="curve" smooth="yes"/>
			<point x="397" y="20"/>
			<point x="472" y="63"/>
			<point x="536" y="120" type="curve" smooth="yes"/>
			<point x="649" y="220" type="line" smooth="yes"/>
			<point x="689" y="255"/>
			<point x="768" y="339"/>
			<point x="822" y="339" type="curve" smooth="yes"/>
			<point x="918" y="339"/>
			<point x="951" y="242"/>
			<point x="971" y="125" type="curve"/>
			<point x="896" y="122"/>
			<point x="713" y="95"/>
			<point x="653" y="73" type="curve" smooth="yes"/>
			<point x="632" y="65"/>
			<point x="622" y="52"/>
			<point x="622" y="34" type="curve" smooth="yes"/>
			<point x="622" y="10"/>
			<point x="637" y="-15"/>
		</contour>
	</outline>
</glyph>
<glyph name="aSima-batak" format="2">
	<advance width="1144"/>
	<unicode hex="1BC1"/>
	<anchor x="227" y="536" name="topleft"/>
	<anchor x="974" y="-59" name="bottomright"/>
	<anchor x="837" y="536" name="topright"/>
	<outline>
		<contour>
			<point x="312" y="20" type="curve" smooth="yes"/>
			<point x="397" y="20"/>
			<point x="472" y="63"/>
			<point x="536" y="120" type="curve" smooth="yes"/>
			<point x="649" y="220" type="line" smooth="yes"/>
			<point x="689" y="255"/>
			<point x="768" y="339"/>
			<point x="822" y="339" type="curve" smooth="yes"/>
			<point x="904" y="339"/>
			<point x="940" y="267"/>
			<point x="961" y="173" type="curve" smooth="yes"/>
			<point x="966" y="152"/>
			<point x="975" y="138"/>
			<point x="1012" y="138" type="curve" smooth="yes"/>
			<point x="1044" y="138"/>
			<point x="1056" y="163"/>
			<point x="1056" y="179" type="curve" smooth="yes"/>
			<point x="1056" y="181"/>
			<point x="1056" y="183"/>
			<point x="1056" y="185" type="curve" smooth="yes"/>
			<point x="1029" y="321"/>
			<point x="967" y="427"/>
			<point x="822" y="427" type="curve" smooth="yes"/>
			<point x="738" y="427"/>
			<point x="685" y="378"/>
			<point x="609" y="310" type="curve"/>
			<point x="488" y="201" type="line" smooth="yes"/>
			<point x="445" y="162"/>
			<point x="375" y="107"/>
			<point x="309" y="107" type="curve" smooth="yes"/>
			<point x="245" y="107"/>
			<point x="198" y="169"/>
			<point x="134" y="250" type="curve" smooth="yes"/>
			<point x="125" y="261"/>
			<point x="116" y="266"/>
			<point x="106" y="266" type="curve" smooth="yes"/>
			<point x="82" y="266"/>
			<point x="54" y="244"/>
			<point x="54" y="220" type="curve" smooth="yes"/>
			<point x="54" y="207"/>
			<point x="58" y="199"/>
			<point x="62" y="194" type="curve" smooth="yes"/>
			<point x="143" y="90"/>
			<point x="194" y="20"/>
		</contour>
		<contour>
			<point x="814" y="-5" type="curve" smooth="yes"/>
			<point x="833" y="-5"/>
			<point x="887" y="0"/>
			<point x="932" y="0" type="curve" smooth="yes"/>
			<point x="970" y="0"/>
			<point x="1030" y="-5"/>
			<point x="1049" y="-5" type="curve" smooth="yes"/>
			<point x="1074" y="-5"/>
			<point x="1090" y="16"/>
			<point x="1090" y="38" type="curve" smooth="yes"/>
			<point x="1090" y="57"/>
			<point x="1079" y="70"/>
			<point x="1056" y="78" type="curve" smooth="yes"/>
			<point x="1041" y="83"/>
			<point x="979" y="88"/>
			<point x="932" y="88" type="curve" smooth="yes"/>
			<point x="877" y="88"/>
			<point x="822" y="83"/>
			<point x="808" y="78" type="curve" smooth="yes"/>
			<point x="784" y="69"/>
			<point x="773" y="57"/>
			<point x="773" y="38" type="curve" smooth="yes"/>
			<point x="773" y="16"/>
			<point x="789" y="-5"/>
		</contour>
	</outline>
</glyph>
<glyph name="ha-batak" format="2">
	<advance width="1040"/>
	<unicode hex="1BC2"/>
	<anchor x="586" y="536" name="top"/>
	<anchor x="915" y="536" name="topright"/>
	<anchor x="305" y="536" name="topleft"/>
	<anchor x="787" y="-70" name="bottomright"/>
	<outline>
		<contour>
			<point x="270" y="-15" type="curve" smooth="yes"/>
			<point x="283" y="-15"/>
			<point x="290" y="-8"/>
			<point x="297" y="0" type="curve" smooth="yes"/>
			<point x="354" y="70"/>
			<point x="522" y="391"/>
			<point x="777" y="391" type="curve" smooth="yes"/>
			<point x="853" y="391"/>
			<point x="881" y="364"/>
			<point x="881" y="335" type="curve" smooth="yes"/>
			<point x="881" y="223"/>
			<point x="676" y="85"/>
			<point x="676" y="28" type="curve" smooth="yes"/>
			<point x="676" y="6"/>
			<point x="701" y="-15"/>
			<point x="726" y="-15" type="curve" smooth="yes"/>
			<point x="737" y="-15"/>
			<point x="750" y="-11"/>
			<point x="757" y="0" type="curve" smooth="yes"/>
			<point x="830" y="111"/>
			<point x="976" y="209"/>
			<point x="976" y="350" type="curve" smooth="yes"/>
			<point x="976" y="438"/>
			<point x="894" y="479"/>
			<point x="791" y="479" type="curve" smooth="yes"/>
			<point x="698" y="479"/>
			<point x="622" y="451"/>
			<point x="561" y="414" type="curve"/>
			<point x="478" y="465"/>
			<point x="393" y="479"/>
			<point x="334" y="479" type="curve" smooth="yes"/>
			<point x="269" y="479"/>
			<point x="171" y="466"/>
			<point x="71" y="397" type="curve" smooth="yes"/>
			<point x="56" y="387"/>
			<point x="54" y="374"/>
			<point x="54" y="364" type="curve" smooth="yes"/>
			<point x="54" y="347"/>
			<point x="69" y="322"/>
			<point x="90" y="322" type="curve" smooth="yes"/>
			<point x="94" y="322"/>
			<point x="99" y="324"/>
			<point x="104" y="326" type="curve" smooth="yes"/>
			<point x="203" y="377"/>
			<point x="248" y="391"/>
			<point x="334" y="391" type="curve" smooth="yes"/>
			<point x="398" y="391"/>
			<point x="433" y="383"/>
			<point x="483" y="357" type="curve"/>
			<point x="416" y="314"/>
			<point x="216" y="71"/>
			<point x="216" y="30" type="curve" smooth="yes"/>
			<point x="216" y="9"/>
			<point x="245" y="-15"/>
		</contour>
	</outline>
</glyph>
<glyph name="haSima-batak" format="2">
	<advance width="1056"/>
	<unicode hex="1BC3"/>
	<anchor x="546" y="536" name="top"/>
	<anchor x="837" y="536" name="topright"/>
	<anchor x="227" y="536" name="topleft"/>
	<anchor x="915" y="-59" name="bottomright"/>
	<outline>
		<contour>
			<point x="529" y="339" type="curve" smooth="yes"/>
			<point x="719" y="339"/>
			<point x="813" y="298"/>
			<point x="889" y="263" type="curve" smooth="yes"/>
			<point x="932" y="243"/>
			<point x="949" y="233"/>
			<point x="966" y="233" type="curve" smooth="yes"/>
			<point x="988" y="233"/>
			<point x="1004" y="251"/>
			<point x="1004" y="271" type="curve" smooth="yes"/>
			<point x="1004" y="286"/>
			<point x="994" y="308"/>
			<point x="953" y="331" type="curve" smooth="yes"/>
			<point x="877" y="375"/>
			<point x="715" y="427"/>
			<point x="529" y="427" type="curve" smooth="yes"/>
			<point x="343" y="427"/>
			<point x="181" y="375"/>
			<point x="105" y="331" type="curve" smooth="yes"/>
			<point x="64" y="308"/>
			<point x="54" y="286"/>
			<point x="54" y="271" type="curve" smooth="yes"/>
			<point x="54" y="251"/>
			<point x="70" y="233"/>
			<point x="92" y="233" type="curve" smooth="yes"/>
			<point x="109" y="233"/>
			<point x="126" y="243"/>
			<point x="169" y="263" type="curve" smooth="yes"/>
			<point x="245" y="298"/>
			<point x="339" y="339"/>
		</contour>
		<contour>
			<point x="311" y="-5" type="curve" smooth="yes"/>
			<point x="331" y="-5"/>
			<point x="360" y="0"/>
			<point x="405" y="0" type="curve" smooth="yes"/>
			<point x="442" y="0"/>
			<point x="478" y="-5"/>
			<point x="498" y="-5" type="curve" smooth="yes"/>
			<point x="522" y="-5"/>
			<point x="539" y="16"/>
			<point x="539" y="38" type="curve" smooth="yes"/>
			<point x="539" y="81"/>
			<point x="476" y="88"/>
			<point x="405" y="88" type="curve" smooth="yes"/>
			<point x="333" y="88"/>
			<point x="270" y="82"/>
			<point x="270" y="38" type="curve" smooth="yes"/>
			<point x="270" y="16"/>
			<point x="286" y="-5"/>
		</contour>
		<contour>
			<point x="760" y="-5" type="curve" smooth="yes"/>
			<point x="780" y="-5"/>
			<point x="809" y="0"/>
			<point x="854" y="0" type="curve" smooth="yes"/>
			<point x="892" y="0"/>
			<point x="927" y="-5"/>
			<point x="947" y="-5" type="curve" smooth="yes"/>
			<point x="972" y="-5"/>
			<point x="988" y="16"/>
			<point x="988" y="38" type="curve" smooth="yes"/>
			<point x="988" y="81"/>
			<point x="928" y="88"/>
			<point x="854" y="88" type="curve" smooth="yes"/>
			<point x="782" y="88"/>
			<point x="719" y="82"/>
			<point x="719" y="38" type="curve" smooth="yes"/>
			<point x="719" y="16"/>
			<point x="735" y="-5"/>
		</contour>
	</outline>
</glyph>
<glyph name="haMandai-batak" format="2">
	<advance width="1058"/>
	<unicode hex="1BC4"/>
	<anchor x="565" y="536" name="top"/>
	<anchor x="827" y="536" name="topright"/>
	<anchor x="217" y="536" name="topleft"/>
	<anchor x="761" y="-60" name="bottomright"/>
	<outline>
		<contour>
			<point x="711" y="-15" type="curve" smooth="yes"/>
			<point x="727" y="-15"/>
			<point x="746" y="10"/>
			<point x="751" y="19" type="curve" smooth="yes"/>
			<point x="776" y="61"/>
			<point x="856" y="176"/>
			<point x="955" y="283" type="curve" smooth="yes"/>
			<point x="987" y="318"/>
			<point x="994" y="333"/>
			<point x="994" y="357" type="curve" smooth="yes"/>
			<point x="994" y="380"/>
			<point x="969" y="399"/>
			<point x="958" y="405" type="curve" smooth="yes"/>
			<point x="835" y="474"/>
			<point x="644" y="479"/>
			<point x="527" y="479" type="curve" smooth="yes"/>
			<point x="446" y="479"/>
			<point x="244" y="470"/>
			<point x="72" y="386" type="curve" smooth="yes"/>
			<point x="57" y="379"/>
			<point x="54" y="364"/>
			<point x="54" y="352" type="curve" smooth="yes"/>
			<point x="54" y="330"/>
			<point x="68" y="307"/>
			<point x="92" y="307" type="curve" smooth="yes"/>
			<point x="99" y="307"/>
			<point x="106" y="310"/>
			<point x="115" y="313" type="curve" smooth="yes"/>
			<point x="302" y="385"/>
			<point x="415" y="391"/>
			<point x="527" y="391" type="curve" smooth="yes"/>
			<point x="655" y="391"/>
			<point x="773" y="385"/>
			<point x="895" y="341" type="curve"/>
			<point x="808" y="262"/>
			<point x="701" y="110"/>
			<point x="683" y="78" type="curve" smooth="yes"/>
			<point x="675" y="64"/>
			<point x="662" y="45"/>
			<point x="662" y="32" type="curve" smooth="yes"/>
			<point x="662" y="11"/>
			<point x="686" y="-15"/>
		</contour>
		<contour>
			<point x="308" y="-15" type="curve" smooth="yes"/>
			<point x="325" y="-15"/>
			<point x="332" y="-7"/>
			<point x="340" y="5" type="curve" smooth="yes"/>
			<point x="390" y="82"/>
			<point x="469" y="181"/>
			<point x="520" y="233" type="curve" smooth="yes"/>
			<point x="528" y="241"/>
			<point x="530" y="251"/>
			<point x="530" y="260" type="curve" smooth="yes"/>
			<point x="530" y="284"/>
			<point x="507" y="302"/>
			<point x="484" y="302" type="curve" smooth="yes"/>
			<point x="471" y="302"/>
			<point x="459" y="294"/>
			<point x="445" y="280" type="curve" smooth="yes"/>
			<point x="377" y="213"/>
			<point x="284" y="90"/>
			<point x="265" y="53" type="curve" smooth="yes"/>
			<point x="261" y="45"/>
			<point x="256" y="39"/>
			<point x="256" y="28" type="curve" smooth="yes"/>
			<point x="256" y="3"/>
			<point x="287" y="-15"/>
		</contour>
	</outline>
</glyph>
<glyph name="ba-batak" format="2">
	<advance width="1080"/>
	<unicode hex="1BC5"/>
	<anchor x="232" y="536" name="topleft"/>
	<anchor x="918" y="-80" name="bottomright"/>
	<anchor x="842" y="536" name="topright"/>
	<outline>
		<contour>
			<point x="263" y="-10" type="curve" smooth="yes"/>
			<point x="319" y="-10"/>
			<point x="359" y="10"/>
			<point x="540" y="122" type="curve"/>
			<point x="721" y="10"/>
			<point x="760" y="-10"/>
			<point x="816" y="-10" type="curve" smooth="yes"/>
			<point x="918" y="-10"/>
			<point x="1012" y="52"/>
			<point x="1012" y="192" type="curve" smooth="yes"/>
			<point x="1012" y="402"/>
			<point x="790" y="479"/>
			<point x="540" y="479" type="curve" smooth="yes"/>
			<point x="290" y="479"/>
			<point x="68" y="402"/>
			<point x="68" y="192" type="curve" smooth="yes"/>
			<point x="68" y="52"/>
			<point x="161" y="-10"/>
		</contour>
		<contour>
			<point x="262" y="78" type="curve" smooth="yes"/>
			<point x="182" y="78"/>
			<point x="163" y="153"/>
			<point x="163" y="199" type="curve" smooth="yes"/>
			<point x="163" y="349"/>
			<point x="360" y="391"/>
			<point x="540" y="391" type="curve" smooth="yes"/>
			<point x="720" y="391"/>
			<point x="917" y="349"/>
			<point x="917" y="199" type="curve" smooth="yes"/>
			<point x="917" y="153"/>
			<point x="898" y="78"/>
			<point x="818" y="78" type="curve" smooth="yes"/>
			<point x="777" y="78"/>
			<point x="732" y="109"/>
			<point x="643" y="166" type="curve" smooth="yes"/>
			<point x="585" y="204"/>
			<point x="558" y="210"/>
			<point x="540" y="210" type="curve" smooth="yes"/>
			<point x="522" y="210"/>
			<point x="493" y="204"/>
			<point x="435" y="166" type="curve" smooth="yes"/>
			<point x="347" y="108"/>
			<point x="303" y="78"/>
		</contour>
	</outline>
</glyph>
<glyph name="karoBa-batak" format="2">
	<advance width="990"/>
	<unicode hex="1BC6"/>
	<anchor x="197" y="536" name="topleft"/>
	<anchor x="791" y="-30" name="bottomright"/>
	<anchor x="807" y="536" name="topright"/>
	<outline>
		<contour>
			<point x="495" y="-10" type="curve" smooth="yes"/>
			<point x="735" y="-10"/>
			<point x="922" y="64"/>
			<point x="922" y="234" type="curve" smooth="yes"/>
			<point x="922" y="404"/>
			<point x="711" y="479"/>
			<point x="495" y="479" type="curve" smooth="yes"/>
			<point x="279" y="479"/>
			<point x="68" y="404"/>
			<point x="68" y="234" type="curve" smooth="yes"/>
			<point x="68" y="64"/>
			<point x="255" y="-10"/>
		</contour>
		<contour>
			<point x="495" y="78" type="curve" smooth="yes"/>
			<point x="335" y="78"/>
			<point x="163" y="118"/>
			<point x="163" y="234" type="curve" smooth="yes"/>
			<point x="163" y="350"/>
			<point x="335" y="391"/>
			<point x="495" y="391" type="curve" smooth="yes"/>
			<point x="655" y="391"/>
			<point x="827" y="350"/>
			<point x="827" y="234" type="curve" smooth="yes"/>
			<point x="827" y="118"/>
			<point x="655" y="78"/>
		</contour>
	</outline>
</glyph>
<glyph name="pa-batak" format="2">
	<advance width="840"/>
	<unicode hex="1BC7"/>
	<anchor x="129" y="536" name="topleft"/>
	<anchor x="422" y="248" name="bottomright"/>
	<anchor x="689" y="536" name="topright"/>
	<outline>
		<contour>
			<point x="95" y="313" type="curve" smooth="yes"/>
			<point x="120" y="313"/>
			<point x="220" y="339"/>
			<point x="420" y="339" type="curve" smooth="yes"/>
			<point x="652" y="339"/>
			<point x="726" y="325"/>
			<point x="745" y="325" type="curve" smooth="yes"/>
			<point x="770" y="325"/>
			<point x="786" y="346"/>
			<point x="786" y="369" type="curve" smooth="yes"/>
			<point x="786" y="388"/>
			<point x="776" y="406"/>
			<point x="751" y="410" type="curve" smooth="yes"/>
			<point x="705" y="417"/>
			<point x="617" y="427"/>
			<point x="420" y="427" type="curve" smooth="yes"/>
			<point x="234" y="427"/>
			<point x="117" y="405"/>
			<point x="88" y="398" type="curve" smooth="yes"/>
			<point x="65" y="392"/>
			<point x="54" y="376"/>
			<point x="54" y="357" type="curve" smooth="yes"/>
			<point x="54" y="334"/>
			<point x="70" y="313"/>
		</contour>
	</outline>
</glyph>
<glyph name="paSima-batak" format="2">
	<advance width="943"/>
	<unicode hex="1BC8"/>
	<anchor x="168" y="536" name="topleft"/>
	<anchor x="499" y="53" name="bottomright"/>
	<anchor x="738" y="536" name="topright"/>
	<outline>
		<contour>
			<point x="279" y="122" type="curve" smooth="yes"/>
			<point x="438" y="122"/>
			<point x="533" y="232"/>
			<point x="667" y="232" type="curve" smooth="yes"/>
			<point x="730" y="232"/>
			<point x="772" y="204"/>
			<point x="809" y="153" type="curve" smooth="yes"/>
			<point x="817" y="142"/>
			<point x="827" y="137"/>
			<point x="836" y="137" type="curve" smooth="yes"/>
			<point x="861" y="137"/>
			<point x="889" y="159"/>
			<point x="889" y="183" type="curve" smooth="yes"/>
			<point x="889" y="196"/>
			<point x="885" y="204"/>
			<point x="881" y="209" type="curve" smooth="yes"/>
			<point x="841" y="261"/>
			<point x="781" y="320"/>
			<point x="664" y="320" type="curve" smooth="yes"/>
			<point x="505" y="320"/>
			<point x="409" y="210"/>
			<point x="276" y="210" type="curve" smooth="yes"/>
			<point x="212" y="210"/>
			<point x="171" y="238"/>
			<point x="134" y="289" type="curve" smooth="yes"/>
			<point x="126" y="300"/>
			<point x="116" y="305"/>
			<point x="106" y="305" type="curve" smooth="yes"/>
			<point x="82" y="305"/>
			<point x="54" y="283"/>
			<point x="54" y="259" type="curve" smooth="yes"/>
			<point x="54" y="246"/>
			<point x="58" y="238"/>
			<point x="62" y="233" type="curve" smooth="yes"/>
			<point x="102" y="181"/>
			<point x="162" y="122"/>
		</contour>
	</outline>
</glyph>
<glyph name="na-batak" format="2">
	<advance width="990"/>
	<unicode hex="1BC9"/>
	<anchor x="275" y="585" name="topleft"/>
	<anchor x="798" y="-70" name="bottomright"/>
	<anchor x="845" y="585" name="topright"/>
	<outline>
		<contour>
			<point x="577" y="-10" type="curve" smooth="yes"/>
			<point x="760" y="-10"/>
			<point x="922" y="46"/>
			<point x="922" y="185" type="curve" smooth="yes"/>
			<point x="922" y="323"/>
			<point x="755" y="381"/>
			<point x="577" y="381" type="curve" smooth="yes"/>
			<point x="405" y="381"/>
			<point x="233" y="323"/>
			<point x="233" y="185" type="curve" smooth="yes"/>
			<point x="233" y="49"/>
			<point x="385" y="-10"/>
		</contour>
		<contour>
			<point x="579" y="78" type="curve" smooth="yes"/>
			<point x="451" y="78"/>
			<point x="328" y="104"/>
			<point x="328" y="185" type="curve" smooth="yes"/>
			<point x="328" y="266"/>
			<point x="454" y="293"/>
			<point x="579" y="293" type="curve" smooth="yes"/>
			<point x="705" y="293"/>
			<point x="827" y="265"/>
			<point x="827" y="185" type="curve" smooth="yes"/>
			<point x="827" y="106"/>
			<point x="710" y="78"/>
		</contour>
		<contour>
			<point x="88" y="445" type="curve" smooth="yes"/>
			<point x="116" y="445"/>
			<point x="188" y="464"/>
			<point x="386" y="464" type="curve" smooth="yes"/>
			<point x="593" y="464"/>
			<point x="655" y="445"/>
			<point x="680" y="445" type="curve" smooth="yes"/>
			<point x="703" y="445"/>
			<point x="717" y="470"/>
			<point x="717" y="492" type="curve" smooth="yes"/>
			<point x="717" y="507"/>
			<point x="708" y="524"/>
			<point x="683" y="529" type="curve" smooth="yes"/>
			<point x="609" y="544"/>
			<point x="472" y="552"/>
			<point x="386" y="552" type="curve" smooth="yes"/>
			<point x="296" y="552"/>
			<point x="164" y="545"/>
			<point x="80" y="528" type="curve" smooth="yes"/>
			<point x="61" y="524"/>
			<point x="54" y="502"/>
			<point x="54" y="489" type="curve" smooth="yes"/>
			<point x="54" y="466"/>
			<point x="70" y="445"/>
		</contour>
	</outline>
</glyph>
<glyph name="naMandai-batak" format="2">
	<advance width="956"/>
	<unicode hex="1BCA"/>
	<anchor x="158" y="659" name="topleft"/>
	<anchor x="783" y="-20" name="bottomright"/>
	<anchor x="778" y="659" name="topright"/>
	<outline>
		<contour>
			<point x="441" y="-10" type="curve" smooth="yes"/>
			<point x="661" y="-10"/>
			<point x="692" y="56"/>
			<point x="692" y="133" type="curve" smooth="yes"/>
			<point x="692" y="207"/>
			<point x="630" y="273"/>
			<point x="537" y="328" type="curve"/>
			<point x="638" y="366"/>
			<point x="757" y="391"/>
			<point x="870" y="391" type="curve" smooth="yes"/>
			<point x="893" y="391"/>
			<point x="902" y="414"/>
			<point x="902" y="435" type="curve" smooth="yes"/>
			<point x="902" y="458"/>
			<point x="891" y="479"/>
			<point x="865" y="479" type="curve" smooth="yes"/>
			<point x="737" y="479"/>
			<point x="578" y="437"/>
			<point x="447" y="375" type="curve"/>
			<point x="366" y="415"/>
			<point x="272" y="441"/>
			<point x="177" y="463" type="curve" smooth="yes"/>
			<point x="174" y="464"/>
			<point x="165" y="466"/>
			<point x="159" y="466" type="curve" smooth="yes"/>
			<point x="137" y="466"/>
			<point x="122" y="443"/>
			<point x="122" y="421" type="curve" smooth="yes"/>
			<point x="122" y="402"/>
			<point x="136" y="385"/>
			<point x="160" y="380" type="curve" smooth="yes"/>
			<point x="223" y="368"/>
			<point x="294" y="349"/>
			<point x="355" y="327" type="curve"/>
			<point x="263" y="270"/>
			<point x="200" y="202"/>
			<point x="200" y="133" type="curve" smooth="yes"/>
			<point x="200" y="57"/>
			<point x="231" y="-10"/>
		</contour>
		<contour>
			<point x="447" y="78" type="curve" smooth="yes"/>
			<point x="372" y="78"/>
			<point x="295" y="84"/>
			<point x="295" y="133" type="curve" smooth="yes"/>
			<point x="295" y="184"/>
			<point x="355" y="241"/>
			<point x="445" y="288" type="curve"/>
			<point x="533" y="241"/>
			<point x="597" y="184"/>
			<point x="597" y="133" type="curve" smooth="yes"/>
			<point x="597" y="84"/>
			<point x="496" y="78"/>
		</contour>
		<contour>
			<point x="88" y="552" type="curve" smooth="yes"/>
			<point x="89" y="552"/>
			<point x="98" y="552"/>
			<point x="106" y="553" type="curve" smooth="yes"/>
			<point x="155" y="562"/>
			<point x="274" y="567"/>
			<point x="337" y="567" type="curve" smooth="yes"/>
			<point x="375" y="567"/>
			<point x="491" y="562"/>
			<point x="551" y="559" type="curve" smooth="yes"/>
			<point x="553" y="559"/>
			<point x="578" y="556"/>
			<point x="583" y="556" type="curve" smooth="yes"/>
			<point x="605" y="556"/>
			<point x="620" y="581"/>
			<point x="620" y="603" type="curve" smooth="yes"/>
			<point x="620" y="618"/>
			<point x="610" y="635"/>
			<point x="585" y="640" type="curve" smooth="yes"/>
			<point x="511" y="654"/>
			<point x="375" y="655"/>
			<point x="337" y="655" type="curve" smooth="yes"/>
			<point x="306" y="655"/>
			<point x="164" y="651"/>
			<point x="80" y="635" type="curve" smooth="yes"/>
			<point x="61" y="631"/>
			<point x="54" y="609"/>
			<point x="54" y="595" type="curve" smooth="yes"/>
			<point x="54" y="572"/>
			<point x="70" y="552"/>
		</contour>
	</outline>
</glyph>
<glyph name="wa-batak" format="2">
	<advance width="1000"/>
	<unicode hex="1BCB"/>
	<anchor x="178" y="536" name="topleft"/>
	<anchor x="831" y="-59" name="bottomright"/>
	<anchor x="788" y="536" name="topright"/>
	<outline>
		<contour>
			<point x="305" y="-10" type="curve" smooth="yes"/>
			<point x="343" y="-10"/>
			<point x="364" y="-3"/>
			<point x="364" y="38" type="curve" smooth="yes"/>
			<point x="364" y="65"/>
			<point x="343" y="78"/>
			<point x="303" y="78" type="curve" smooth="yes"/>
			<point x="190" y="78"/>
			<point x="163" y="102"/>
			<point x="163" y="151" type="curve" smooth="yes"/>
			<point x="163" y="270"/>
			<point x="292" y="391"/>
			<point x="500" y="391" type="curve" smooth="yes"/>
			<point x="709" y="391"/>
			<point x="837" y="268"/>
			<point x="837" y="151" type="curve" smooth="yes"/>
			<point x="837" y="102"/>
			<point x="810" y="78"/>
			<point x="697" y="78" type="curve" smooth="yes"/>
			<point x="657" y="78"/>
			<point x="636" y="65"/>
			<point x="636" y="38" type="curve" smooth="yes"/>
			<point x="636" y="-3"/>
			<point x="657" y="-10"/>
			<point x="695" y="-10" type="curve" smooth="yes"/>
			<point x="864" y="-10"/>
			<point x="932" y="32"/>
			<point x="932" y="151" type="curve" smooth="yes"/>
			<point x="932" y="326"/>
			<point x="772" y="479"/>
			<point x="500" y="479" type="curve" smooth="yes"/>
			<point x="235" y="479"/>
			<point x="68" y="326"/>
			<point x="68" y="151" type="curve" smooth="yes"/>
			<point x="68" y="33"/>
			<point x="135" y="-10"/>
		</contour>
	</outline>
</glyph>
<glyph name="waSima-batak" format="2">
	<advance width="1056"/>
	<unicode hex="1BCC"/>
	<anchor x="207" y="536" name="topleft"/>
	<anchor x="887" y="-66" name="bottomright"/>
	<anchor x="817" y="536" name="topright"/>
	<outline>
		<contour>
			<point x="529" y="339" type="curve" smooth="yes"/>
			<point x="719" y="339"/>
			<point x="813" y="298"/>
			<point x="889" y="263" type="curve" smooth="yes"/>
			<point x="932" y="243"/>
			<point x="949" y="233"/>
			<point x="966" y="233" type="curve" smooth="yes"/>
			<point x="988" y="233"/>
			<point x="1004" y="251"/>
			<point x="1004" y="271" type="curve" smooth="yes"/>
			<point x="1004" y="286"/>
			<point x="994" y="308"/>
			<point x="953" y="331" type="curve" smooth="yes"/>
			<point x="877" y="375"/>
			<point x="715" y="427"/>
			<point x="529" y="427" type="curve" smooth="yes"/>
			<point x="343" y="427"/>
			<point x="181" y="375"/>
			<point x="105" y="331" type="curve" smooth="yes"/>
			<point x="64" y="308"/>
			<point x="54" y="286"/>
			<point x="54" y="271" type="curve" smooth="yes"/>
			<point x="54" y="251"/>
			<point x="70" y="233"/>
			<point x="92" y="233" type="curve" smooth="yes"/>
			<point x="109" y="233"/>
			<point x="126" y="243"/>
			<point x="169" y="263" type="curve" smooth="yes"/>
			<point x="245" y="298"/>
			<point x="339" y="339"/>
		</contour>
		<contour>
			<point x="119" y="-5" type="curve" smooth="yes"/>
			<point x="138" y="-5"/>
			<point x="167" y="0"/>
			<point x="212" y="0" type="curve" smooth="yes"/>
			<point x="250" y="0"/>
			<point x="286" y="-5"/>
			<point x="305" y="-5" type="curve" smooth="yes"/>
			<point x="330" y="-5"/>
			<point x="346" y="16"/>
			<point x="346" y="38" type="curve" smooth="yes"/>
			<point x="346" y="82"/>
			<point x="286" y="88"/>
			<point x="212" y="88" type="curve" smooth="yes"/>
			<point x="143" y="88"/>
			<point x="78" y="83"/>
			<point x="78" y="38" type="curve" smooth="yes"/>
			<point x="78" y="16"/>
			<point x="94" y="-5"/>
		</contour>
		<contour>
			<point x="770" y="-5" type="curve" smooth="yes"/>
			<point x="790" y="-5"/>
			<point x="819" y="0"/>
			<point x="864" y="0" type="curve" smooth="yes"/>
			<point x="901" y="0"/>
			<point x="937" y="-5"/>
			<point x="957" y="-5" type="curve" smooth="yes"/>
			<point x="981" y="-5"/>
			<point x="998" y="16"/>
			<point x="998" y="38" type="curve" smooth="yes"/>
			<point x="998" y="81"/>
			<point x="935" y="88"/>
			<point x="864" y="88" type="curve" smooth="yes"/>
			<point x="792" y="88"/>
			<point x="729" y="82"/>
			<point x="729" y="38" type="curve" smooth="yes"/>
			<point x="729" y="16"/>
			<point x="745" y="-5"/>
		</contour>
	</outline>
</glyph>
<glyph name="pakpakWa-batak" format="2">
	<advance width="788"/>
	<unicode hex="1BCD"/>
	<anchor x="51" y="536" name="topleft"/>
	<anchor x="446" y="30" name="bottomright"/>
	<anchor x="631" y="536" name="topright"/>
	<outline>
		<contour>
			<point x="689" y="-15" type="curve" smooth="yes"/>
			<point x="718" y="-15"/>
			<point x="734" y="5"/>
			<point x="734" y="23" type="curve" smooth="yes"/>
			<point x="734" y="53"/>
			<point x="711" y="114"/>
			<point x="663" y="145" type="curve" smooth="yes"/>
			<point x="608" y="181"/>
			<point x="540" y="192"/>
			<point x="421" y="208" type="curve" smooth="yes"/>
			<point x="340" y="219"/>
			<point x="261" y="233"/>
			<point x="209" y="281" type="curve" smooth="yes"/>
			<point x="182" y="306"/>
			<point x="163" y="338"/>
			<point x="156" y="383" type="curve"/>
			<point x="203" y="388"/>
			<point x="264" y="391"/>
			<point x="361" y="391" type="curve" smooth="yes"/>
			<point x="404" y="391"/>
			<point x="482" y="388"/>
			<point x="515" y="384" type="curve"/>
			<point x="493" y="366" type="line" smooth="yes"/>
			<point x="483" y="357"/>
			<point x="477" y="346"/>
			<point x="477" y="333" type="curve" smooth="yes"/>
			<point x="477" y="309"/>
			<point x="498" y="291"/>
			<point x="519" y="291" type="curve" smooth="yes"/>
			<point x="530" y="291"/>
			<point x="542" y="294"/>
			<point x="554" y="305" type="curve" smooth="yes"/>
			<point x="601" y="349" type="line" smooth="yes"/>
			<point x="614" y="362"/>
			<point x="632" y="380"/>
			<point x="632" y="405" type="curve" smooth="yes"/>
			<point x="632" y="471"/>
			<point x="547" y="479"/>
			<point x="356" y="479" type="curve" smooth="yes"/>
			<point x="260" y="479"/>
			<point x="132" y="471"/>
			<point x="108" y="468" type="curve" smooth="yes"/>
			<point x="75" y="464"/>
			<point x="63" y="441"/>
			<point x="63" y="425" type="curve" smooth="yes"/>
			<point x="63" y="325"/>
			<point x="95" y="262"/>
			<point x="143" y="221" type="curve" smooth="yes"/>
			<point x="213" y="162"/>
			<point x="315" y="146"/>
			<point x="410" y="131" type="curve" smooth="yes"/>
			<point x="479" y="120"/>
			<point x="544" y="110"/>
			<point x="588" y="84" type="curve" smooth="yes"/>
			<point x="613" y="69"/>
			<point x="630" y="49"/>
			<point x="639" y="20" type="curve" smooth="yes"/>
			<point x="645" y="0"/>
			<point x="652" y="-15"/>
		</contour>
	</outline>
</glyph>
<glyph name="ga-batak" format="2">
	<advance width="941"/>
	<unicode hex="1BCE"/>
	<anchor x="148" y="536" name="topleft"/>
	<anchor x="803" y="61" name="bottomright"/>
	<anchor x="758" y="536" name="topright"/>
	<outline>
		<contour>
			<point x="647" y="84" type="curve" smooth="yes"/>
			<point x="658" y="84"/>
			<point x="672" y="86"/>
			<point x="682" y="99" type="curve" smooth="yes"/>
			<point x="733" y="167"/>
			<point x="799" y="221"/>
			<point x="840" y="251" type="curve" smooth="yes"/>
			<point x="868" y="271"/>
			<point x="877" y="283"/>
			<point x="877" y="308" type="curve" smooth="yes"/>
			<point x="877" y="327"/>
			<point x="868" y="341"/>
			<point x="829" y="361" type="curve" smooth="yes"/>
			<point x="766" y="394"/>
			<point x="642" y="427"/>
			<point x="465" y="427" type="curve" smooth="yes"/>
			<point x="312" y="427"/>
			<point x="190" y="384"/>
			<point x="107" y="346" type="curve" smooth="yes"/>
			<point x="62" y="326"/>
			<point x="53" y="308"/>
			<point x="53" y="289" type="curve" smooth="yes"/>
			<point x="53" y="273"/>
			<point x="66" y="251"/>
			<point x="87" y="251" type="curve" smooth="yes"/>
			<point x="107" y="251"/>
			<point x="135" y="264"/>
			<point x="170" y="278" type="curve" smooth="yes"/>
			<point x="200" y="290"/>
			<point x="310" y="339"/>
			<point x="465" y="339" type="curve" smooth="yes"/>
			<point x="615" y="339"/>
			<point x="696" y="317"/>
			<point x="754" y="288" type="curve"/>
			<point x="697" y="245"/>
			<point x="651" y="205"/>
			<point x="617" y="164" type="curve" smooth="yes"/>
			<point x="609" y="155"/>
			<point x="602" y="139"/>
			<point x="602" y="127" type="curve" smooth="yes"/>
			<point x="602" y="103"/>
			<point x="626" y="84"/>
		</contour>
	</outline>
</glyph>
<glyph name="gaSima-batak" format="2">
	<advance width="1056"/>
	<unicode hex="1BCF"/>
	<anchor x="207" y="536" name="topleft"/>
	<anchor x="895" y="-66" name="bottomright"/>
	<anchor x="817" y="536" name="topright"/>
	<outline>
		<contour>
			<point x="760" y="-5" type="curve" smooth="yes"/>
			<point x="780" y="-5"/>
			<point x="809" y="0"/>
			<point x="854" y="0" type="curve" smooth="yes"/>
			<point x="892" y="0"/>
			<point x="927" y="-5"/>
			<point x="947" y="-5" type="curve" smooth="yes"/>
			<point x="972" y="-5"/>
			<point x="988" y="16"/>
			<point x="988" y="38" type="curve" smooth="yes"/>
			<point x="988" y="81"/>
			<point x="928" y="88"/>
			<point x="854" y="88" type="curve" smooth="yes"/>
			<point x="782" y="88"/>
			<point x="719" y="82"/>
			<point x="719" y="38" type="curve" smooth="yes"/>
			<point x="719" y="16"/>
			<point x="735" y="-5"/>
		</contour>
		<contour>
			<point x="529" y="339" type="curve" smooth="yes"/>
			<point x="719" y="339"/>
			<point x="813" y="298"/>
			<point x="889" y="263" type="curve" smooth="yes"/>
			<point x="932" y="243"/>
			<point x="949" y="233"/>
			<point x="966" y="233" type="curve" smooth="yes"/>
			<point x="988" y="233"/>
			<point x="1004" y="251"/>
			<point x="1004" y="271" type="curve" smooth="yes"/>
			<point x="1004" y="286"/>
			<point x="994" y="308"/>
			<point x="953" y="331" type="curve" smooth="yes"/>
			<point x="877" y="375"/>
			<point x="715" y="427"/>
			<point x="529" y="427" type="curve" smooth="yes"/>
			<point x="343" y="427"/>
			<point x="181" y="375"/>
			<point x="105" y="331" type="curve" smooth="yes"/>
			<point x="64" y="308"/>
			<point x="54" y="286"/>
			<point x="54" y="271" type="curve" smooth="yes"/>
			<point x="54" y="251"/>
			<point x="70" y="233"/>
			<point x="92" y="233" type="curve" smooth="yes"/>
			<point x="109" y="233"/>
			<point x="126" y="243"/>
			<point x="169" y="263" type="curve" smooth="yes"/>
			<point x="245" y="298"/>
			<point x="339" y="339"/>
		</contour>
	</outline>
</glyph>
<glyph name="ja-batak" format="2">
	<advance width="1023"/>
	<unicode hex="1BD0"/>
	<anchor x="168" y="536" name="topleft"/>
	<anchor x="899" y="-18" name="bottomright"/>
	<anchor x="778" y="536" name="topright"/>
	<outline>
		<contour>
			<point x="105" y="253" type="curve" smooth="yes"/>
			<point x="134" y="253"/>
			<point x="184" y="292"/>
			<point x="412" y="345" type="curve" smooth="yes"/>
			<point x="543" y="375"/>
			<point x="674" y="391"/>
			<point x="699" y="394" type="curve" smooth="yes"/>
			<point x="719" y="396"/>
			<point x="730" y="417"/>
			<point x="730" y="435" type="curve" smooth="yes"/>
			<point x="730" y="459"/>
			<point x="712" y="479"/>
			<point x="689" y="479" type="curve" smooth="yes"/>
			<point x="631" y="479"/>
			<point x="497" y="457"/>
			<point x="366" y="426" type="curve" smooth="yes"/>
			<point x="253" y="399"/>
			<point x="144" y="367"/>
			<point x="89" y="335" type="curve" smooth="yes"/>
			<point x="72" y="325"/>
			<point x="63" y="313"/>
			<point x="63" y="297" type="curve" smooth="yes"/>
			<point x="63" y="274"/>
			<point x="82" y="253"/>
		</contour>
		<contour>
			<point x="701" y="-10" type="curve" smooth="yes"/>
			<point x="724" y="-10"/>
			<point x="747" y="7"/>
			<point x="747" y="30" type="curve" smooth="yes"/>
			<point x="747" y="43"/>
			<point x="743" y="62"/>
			<point x="722" y="77" type="curve" smooth="yes"/>
			<point x="676" y="111"/>
			<point x="571" y="152"/>
			<point x="531" y="170" type="curve" smooth="yes"/>
			<point x="476" y="195"/>
			<point x="353" y="243"/>
			<point x="317" y="243" type="curve" smooth="yes"/>
			<point x="294" y="243"/>
			<point x="276" y="221"/>
			<point x="276" y="198" type="curve" smooth="yes"/>
			<point x="276" y="183"/>
			<point x="287" y="167"/>
			<point x="309" y="158" type="curve" smooth="yes"/>
			<point x="342" y="145"/>
			<point x="428" y="114"/>
			<point x="490" y="88" type="curve" smooth="yes"/>
			<point x="628" y="30"/>
			<point x="674" y="-10"/>
		</contour>
		<contour>
			<point x="620" y="216" type="curve" smooth="yes"/>
			<point x="640" y="216"/>
			<point x="676" y="225"/>
			<point x="770" y="225" type="curve" smooth="yes"/>
			<point x="856" y="225"/>
			<point x="899" y="216"/>
			<point x="919" y="216" type="curve" smooth="yes"/>
			<point x="944" y="216"/>
			<point x="960" y="237"/>
			<point x="960" y="259" type="curve" smooth="yes"/>
			<point x="960" y="278"/>
			<point x="950" y="294"/>
			<point x="925" y="300" type="curve" smooth="yes"/>
			<point x="889" y="308"/>
			<point x="835" y="313"/>
			<point x="770" y="313" type="curve" smooth="yes"/>
			<point x="708" y="313"/>
			<point x="643" y="307"/>
			<point x="614" y="300" type="curve" smooth="yes"/>
			<point x="590" y="294"/>
			<point x="579" y="278"/>
			<point x="579" y="259" type="curve" smooth="yes"/>
			<point x="579" y="237"/>
			<point x="595" y="216"/>
		</contour>
	</outline>
</glyph>
<glyph name="da-batak" format="2">
	<advance width="811"/>
	<unicode hex="1BD1"/>
	<anchor x="168" y="536" name="topleft"/>
	<anchor x="656" y="-66" name="bottomright"/>
	<anchor x="678" y="536" name="topright"/>
	<outline>
		<contour>
			<point x="105" y="253" type="curve" smooth="yes"/>
			<point x="134" y="253"/>
			<point x="184" y="292"/>
			<point x="412" y="345" type="curve" smooth="yes"/>
			<point x="543" y="375"/>
			<point x="674" y="391"/>
			<point x="699" y="394" type="curve" smooth="yes"/>
			<point x="719" y="396"/>
			<point x="730" y="417"/>
			<point x="730" y="435" type="curve" smooth="yes"/>
			<point x="730" y="459"/>
			<point x="712" y="479"/>
			<point x="689" y="479" type="curve" smooth="yes"/>
			<point x="631" y="479"/>
			<point x="497" y="457"/>
			<point x="366" y="426" type="curve" smooth="yes"/>
			<point x="253" y="399"/>
			<point x="144" y="367"/>
			<point x="89" y="335" type="curve" smooth="yes"/>
			<point x="72" y="325"/>
			<point x="63" y="313"/>
			<point x="63" y="297" type="curve" smooth="yes"/>
			<point x="63" y="274"/>
			<point x="82" y="253"/>
		</contour>
		<contour>
			<point x="701" y="-10" type="curve" smooth="yes"/>
			<point x="724" y="-10"/>
			<point x="747" y="7"/>
			<point x="747" y="30" type="curve" smooth="yes"/>
			<point x="747" y="43"/>
			<point x="743" y="62"/>
			<point x="722" y="77" type="curve" smooth="yes"/>
			<point x="676" y="111"/>
			<point x="571" y="152"/>
			<point x="531" y="170" type="curve" smooth="yes"/>
			<point x="476" y="195"/>
			<point x="353" y="243"/>
			<point x="317" y="243" type="curve" smooth="yes"/>
			<point x="294" y="243"/>
			<point x="276" y="221"/>
			<point x="276" y="198" type="curve" smooth="yes"/>
			<point x="276" y="183"/>
			<point x="286" y="166"/>
			<point x="309" y="158" type="curve" smooth="yes"/>
			<point x="342" y="146"/>
			<point x="428" y="114"/>
			<point x="490" y="88" type="curve" smooth="yes"/>
			<point x="628" y="30"/>
			<point x="674" y="-10"/>
		</contour>
	</outline>
</glyph>
<glyph name="ra-batak" format="2">
	<advance width="953"/>
	<unicode hex="1BD2"/>
	<anchor x="168" y="536" name="topleft"/>
	<anchor x="703" y="-58" name="bottomright"/>
	<anchor x="778" y="536" name="topright"/>
	<outline>
		<contour>
			<point x="657" y="-15" type="curve" smooth="yes"/>
			<point x="668" y="-15"/>
			<point x="682" y="-13"/>
			<point x="692" y="0" type="curve" smooth="yes"/>
			<point x="743" y="68"/>
			<point x="809" y="123"/>
			<point x="864" y="162" type="curve" smooth="yes"/>
			<point x="879" y="172"/>
			<point x="887" y="184"/>
			<point x="887" y="209" type="curve" smooth="yes"/>
			<point x="887" y="228"/>
			<point x="877" y="242"/>
			<point x="854" y="254" type="curve" smooth="yes"/>
			<point x="775" y="295"/>
			<point x="562" y="298"/>
			<point x="475" y="298" type="curve" smooth="yes"/>
			<point x="381" y="298"/>
			<point x="200" y="280"/>
			<point x="91" y="236" type="curve" smooth="yes"/>
			<point x="72" y="228"/>
			<point x="63" y="210"/>
			<point x="63" y="197" type="curve" smooth="yes"/>
			<point x="63" y="175"/>
			<point x="80" y="152"/>
			<point x="104" y="152" type="curve" smooth="yes"/>
			<point x="116" y="152"/>
			<point x="146" y="162"/>
			<point x="153" y="164" type="curve" smooth="yes"/>
			<point x="209" y="184"/>
			<point x="360" y="210"/>
			<point x="475" y="210" type="curve" smooth="yes"/>
			<point x="565" y="210"/>
			<point x="696" y="208"/>
			<point x="764" y="189" type="curve"/>
			<point x="707" y="146"/>
			<point x="661" y="106"/>
			<point x="627" y="65" type="curve" smooth="yes"/>
			<point x="619" y="56"/>
			<point x="612" y="41"/>
			<point x="612" y="28" type="curve" smooth="yes"/>
			<point x="612" y="4"/>
			<point x="636" y="-15"/>
		</contour>
		<contour>
			<point x="104" y="339" type="curve" smooth="yes"/>
			<point x="116" y="339"/>
			<point x="146" y="349"/>
			<point x="153" y="352" type="curve" smooth="yes"/>
			<point x="209" y="372"/>
			<point x="360" y="391"/>
			<point x="475" y="391" type="curve" smooth="yes"/>
			<point x="583" y="391"/>
			<point x="749" y="380"/>
			<point x="797" y="367" type="curve" smooth="yes"/>
			<point x="805" y="365"/>
			<point x="827" y="357"/>
			<point x="848" y="357" type="curve" smooth="yes"/>
			<point x="873" y="357"/>
			<point x="889" y="380"/>
			<point x="889" y="403" type="curve" smooth="yes"/>
			<point x="889" y="422"/>
			<point x="879" y="435"/>
			<point x="854" y="444" type="curve" smooth="yes"/>
			<point x="767" y="475"/>
			<point x="562" y="479"/>
			<point x="475" y="479" type="curve" smooth="yes"/>
			<point x="381" y="479"/>
			<point x="192" y="465"/>
			<point x="91" y="423" type="curve" smooth="yes"/>
			<point x="72" y="415"/>
			<point x="63" y="397"/>
			<point x="63" y="385" type="curve" smooth="yes"/>
			<point x="63" y="362"/>
			<point x="80" y="339"/>
		</contour>
	</outline>
</glyph>
<glyph name="raSima-batak" format="2">
	<advance width="986"/>
	<unicode hex="1BD3"/>
	<anchor x="227" y="536" name="topleft"/>
	<anchor x="851" y="-59" name="bottomright"/>
	<anchor x="827" y="536" name="topright"/>
	<outline>
		<contour>
			<point x="241" y="161" type="curve" smooth="yes"/>
			<point x="261" y="161"/>
			<point x="473" y="173"/>
			<point x="567" y="173" type="curve" smooth="yes"/>
			<point x="653" y="173"/>
			<point x="872" y="161"/>
			<point x="892" y="161" type="curve" smooth="yes"/>
			<point x="917" y="161"/>
			<point x="933" y="182"/>
			<point x="933" y="205" type="curve" smooth="yes"/>
			<point x="933" y="224"/>
			<point x="923" y="242"/>
			<point x="898" y="246" type="curve" smooth="yes"/>
			<point x="851" y="253"/>
			<point x="653" y="261"/>
			<point x="567" y="261" type="curve" smooth="yes"/>
			<point x="473" y="261"/>
			<point x="264" y="253"/>
			<point x="235" y="246" type="curve" smooth="yes"/>
			<point x="211" y="240"/>
			<point x="200" y="224"/>
			<point x="200" y="205" type="curve" smooth="yes"/>
			<point x="200" y="182"/>
			<point x="216" y="161"/>
		</contour>
		<contour>
			<point x="95" y="331" type="curve" smooth="yes"/>
			<point x="114" y="331"/>
			<point x="229" y="339"/>
			<point x="323" y="339" type="curve" smooth="yes"/>
			<point x="409" y="339"/>
			<point x="530" y="331"/>
			<point x="550" y="331" type="curve" smooth="yes"/>
			<point x="575" y="331"/>
			<point x="591" y="352"/>
			<point x="591" y="374" type="curve" smooth="yes"/>
			<point x="591" y="393"/>
			<point x="581" y="411"/>
			<point x="556" y="415" type="curve" smooth="yes"/>
			<point x="509" y="422"/>
			<point x="409" y="427"/>
			<point x="323" y="427" type="curve" smooth="yes"/>
			<point x="229" y="427"/>
			<point x="117" y="422"/>
			<point x="88" y="415" type="curve" smooth="yes"/>
			<point x="64" y="409"/>
			<point x="54" y="393"/>
			<point x="54" y="374" type="curve" smooth="yes"/>
			<point x="54" y="352"/>
			<point x="70" y="331"/>
		</contour>
		<contour>
			<point x="705" y="-5" type="curve" smooth="yes"/>
			<point x="725" y="-5"/>
			<point x="754" y="0"/>
			<point x="799" y="0" type="curve" smooth="yes"/>
			<point x="836" y="0"/>
			<point x="872" y="-5"/>
			<point x="892" y="-5" type="curve" smooth="yes"/>
			<point x="917" y="-5"/>
			<point x="933" y="16"/>
			<point x="933" y="38" type="curve" smooth="yes"/>
			<point x="933" y="81"/>
			<point x="870" y="88"/>
			<point x="799" y="88" type="curve" smooth="yes"/>
			<point x="727" y="88"/>
			<point x="664" y="82"/>
			<point x="664" y="38" type="curve" smooth="yes"/>
			<point x="664" y="16"/>
			<point x="680" y="-5"/>
		</contour>
	</outline>
</glyph>
<glyph name="taSouth-batak" format="2">
	<advance width="797"/>
	<unicode hex="1BD6"/>
	<anchor x="140" y="536" name="topleft"/>
	<anchor x="576" y="-52" name="bottomright"/>
	<anchor x="610" y="536" name="topright"/>
	<outline>
		<contour>
			<point x="115" y="-15" type="curve" smooth="yes"/>
			<point x="127" y="-15"/>
			<point x="143" y="-6"/>
			<point x="152" y="1" type="curve" smooth="yes"/>
			<point x="315" y="124"/>
			<point x="553" y="256"/>
			<point x="692" y="327" type="curve" smooth="yes"/>
			<point x="713" y="338"/>
			<point x="729" y="349"/>
			<point x="729" y="385" type="curve" smooth="yes"/>
			<point x="729" y="404"/>
			<point x="713" y="424"/>
			<point x="689" y="435" type="curve" smooth="yes"/>
			<point x="610" y="472"/>
			<point x="478" y="479"/>
			<point x="392" y="479" type="curve" smooth="yes"/>
			<point x="305" y="479"/>
			<point x="188" y="472"/>
			<point x="108" y="435" type="curve" smooth="yes"/>
			<point x="85" y="424"/>
			<point x="68" y="404"/>
			<point x="68" y="385" type="curve" smooth="yes"/>
			<point x="68" y="284"/>
			<point x="594" y="-1"/>
			<point x="646" y="-1" type="curve" smooth="yes"/>
			<point x="668" y="-1"/>
			<point x="688" y="20"/>
			<point x="688" y="43" type="curve" smooth="yes"/>
			<point x="688" y="58"/>
			<point x="678" y="75"/>
			<point x="657" y="84" type="curve" smooth="yes"/>
			<point x="512" y="147"/>
			<point x="368" y="214"/>
			<point x="182" y="368" type="curve"/>
			<point x="232" y="380"/>
			<point x="309" y="391"/>
			<point x="392" y="391" type="curve" smooth="yes"/>
			<point x="475" y="391"/>
			<point x="561" y="380"/>
			<point x="611" y="368" type="curve"/>
			<point x="437" y="290"/>
			<point x="242" y="170"/>
			<point x="104" y="71" type="curve" smooth="yes"/>
			<point x="86" y="58"/>
			<point x="73" y="44"/>
			<point x="73" y="30" type="curve" smooth="yes"/>
			<point x="73" y="7"/>
			<point x="93" y="-15"/>
		</contour>
	</outline>
</glyph>
<glyph name="taNorth-batak" format="2">
	<advance width="1073"/>
	<unicode hex="1BD7"/>
	<anchor x="246" y="536" name="topleft"/>
	<anchor x="892" y="-60" name="bottomright"/>
	<anchor x="856" y="536" name="topright"/>
	<outline>
		<contour>
			<point x="388" y="-10" type="curve" smooth="yes"/>
			<point x="488" y="-10"/>
			<point x="554" y="56"/>
			<point x="608" y="126" type="curve" smooth="yes"/>
			<point x="660" y="193" type="line" smooth="yes"/>
			<point x="704" y="250"/>
			<point x="743" y="276"/>
			<point x="792" y="276" type="curve" smooth="yes"/>
			<point x="863" y="276"/>
			<point x="915" y="210"/>
			<point x="915" y="142" type="curve" smooth="yes"/>
			<point x="915" y="92"/>
			<point x="888" y="78"/>
			<point x="775" y="78" type="curve" smooth="yes"/>
			<point x="735" y="78"/>
			<point x="714" y="65"/>
			<point x="714" y="38" type="curve" smooth="yes"/>
			<point x="714" y="-3"/>
			<point x="735" y="-10"/>
			<point x="773" y="-10" type="curve" smooth="yes"/>
			<point x="942" y="-10"/>
			<point x="1010" y="22"/>
			<point x="1010" y="142" type="curve" smooth="yes"/>
			<point x="1010" y="259"/>
			<point x="922" y="364"/>
			<point x="794" y="364" type="curve" smooth="yes"/>
			<point x="693" y="364"/>
			<point x="633" y="306"/>
			<point x="579" y="234" type="curve" smooth="yes"/>
			<point x="528" y="166" type="line" smooth="yes"/>
			<point x="485" y="108"/>
			<point x="438" y="78"/>
			<point x="390" y="78" type="curve" smooth="yes"/>
			<point x="322" y="78"/>
			<point x="250" y="144"/>
			<point x="246" y="339" type="curve"/>
			<point x="331" y="339"/>
			<point x="379" y="333"/>
			<point x="398" y="333" type="curve" smooth="yes"/>
			<point x="423" y="333"/>
			<point x="439" y="354"/>
			<point x="439" y="376" type="curve" smooth="yes"/>
			<point x="439" y="396"/>
			<point x="428" y="409"/>
			<point x="405" y="418" type="curve" smooth="yes"/>
			<point x="390" y="424"/>
			<point x="333" y="427"/>
			<point x="247" y="427" type="curve" smooth="yes"/>
			<point x="153" y="427"/>
			<point x="103" y="423"/>
			<point x="88" y="418" type="curve" smooth="yes"/>
			<point x="65" y="410"/>
			<point x="54" y="396"/>
			<point x="54" y="376" type="curve" smooth="yes"/>
			<point x="54" y="354"/>
			<point x="70" y="333"/>
			<point x="95" y="333" type="curve" smooth="yes"/>
			<point x="106" y="333"/>
			<point x="124" y="335"/>
			<point x="155" y="337" type="curve"/>
			<point x="157" y="101"/>
			<point x="266" y="-10"/>
		</contour>
	</outline>
</glyph>
<glyph name="sa-batak" format="2">
	<advance width="960"/>
	<unicode hex="1BD8"/>
	<anchor x="494" y="536" name="top"/>
	<anchor x="788" y="536" name="topright"/>
	<anchor x="178" y="536" name="topleft"/>
	<anchor x="770" y="276" name="bottomright"/>
	<outline>
		<contour>
			<point x="486" y="-15" type="curve" smooth="yes"/>
			<point x="511" y="-15"/>
			<point x="531" y="8"/>
			<point x="531" y="31" type="curve" smooth="yes"/>
			<point x="531" y="53"/>
			<point x="505" y="69"/>
			<point x="489" y="75" type="curve" smooth="yes"/>
			<point x="292" y="144" type="line"/>
			<point x="363" y="233"/>
			<point x="609" y="371"/>
			<point x="826" y="394" type="curve" smooth="yes"/>
			<point x="881" y="400"/>
			<point x="907" y="415"/>
			<point x="907" y="445" type="curve" smooth="yes"/>
			<point x="907" y="477"/>
			<point x="866" y="479"/>
			<point x="835" y="479" type="curve" smooth="yes"/>
			<point x="759" y="479"/>
			<point x="653" y="450"/>
			<point x="547" y="405" type="curve"/>
			<point x="424" y="465"/>
			<point x="267" y="508"/>
			<point x="120" y="508" type="curve" smooth="yes"/>
			<point x="83" y="508"/>
			<point x="54" y="497"/>
			<point x="54" y="469" type="curve" smooth="yes"/>
			<point x="54" y="454"/>
			<point x="60" y="439"/>
			<point x="75" y="433" type="curve" smooth="yes"/>
			<point x="81" y="430"/>
			<point x="89" y="429"/>
			<point x="98" y="429" type="curve" smooth="yes"/>
			<point x="262" y="420"/>
			<point x="349" y="395"/>
			<point x="443" y="355" type="curve"/>
			<point x="351" y="306"/>
			<point x="268" y="247"/>
			<point x="214" y="185" type="curve" smooth="yes"/>
			<point x="201" y="171"/>
			<point x="183" y="151"/>
			<point x="183" y="134" type="curve" smooth="yes"/>
			<point x="183" y="105"/>
			<point x="203" y="88"/>
			<point x="227" y="79" type="curve" smooth="yes"/>
			<point x="462" y="-10" type="line" smooth="yes"/>
			<point x="473" y="-14"/>
			<point x="479" y="-15"/>
		</contour>
	</outline>
</glyph>
<glyph name="saSima-batak" format="2">
	<advance width="1056"/>
	<unicode hex="1BD9"/>
	<anchor x="527" y="536" name="top"/>
	<anchor x="837" y="536" name="topright"/>
	<anchor x="227" y="536" name="topleft"/>
	<anchor x="853" y="180" name="bottomright"/>
	<outline>
		<contour>
			<point x="529" y="339" type="curve" smooth="yes"/>
			<point x="719" y="339"/>
			<point x="813" y="298"/>
			<point x="889" y="263" type="curve" smooth="yes"/>
			<point x="932" y="243"/>
			<point x="949" y="233"/>
			<point x="966" y="233" type="curve" smooth="yes"/>
			<point x="988" y="233"/>
			<point x="1004" y="251"/>
			<point x="1004" y="271" type="curve" smooth="yes"/>
			<point x="1004" y="286"/>
			<point x="994" y="308"/>
			<point x="953" y="331" type="curve" smooth="yes"/>
			<point x="877" y="375"/>
			<point x="715" y="427"/>
			<point x="529" y="427" type="curve" smooth="yes"/>
			<point x="343" y="427"/>
			<point x="181" y="375"/>
			<point x="105" y="331" type="curve" smooth="yes"/>
			<point x="64" y="308"/>
			<point x="54" y="286"/>
			<point x="54" y="271" type="curve" smooth="yes"/>
			<point x="54" y="251"/>
			<point x="70" y="233"/>
			<point x="92" y="233" type="curve" smooth="yes"/>
			<point x="109" y="233"/>
			<point x="126" y="243"/>
			<point x="169" y="263" type="curve" smooth="yes"/>
			<point x="245" y="298"/>
			<point x="339" y="339"/>
		</contour>
		<contour>
			<point x="434" y="-5" type="curve" smooth="yes"/>
			<point x="453" y="-5"/>
			<point x="482" y="0"/>
			<point x="527" y="0" type="curve" smooth="yes"/>
			<point x="565" y="0"/>
			<point x="601" y="-5"/>
			<point x="620" y="-5" type="curve" smooth="yes"/>
			<point x="645" y="-5"/>
			<point x="661" y="16"/>
			<point x="661" y="38" type="curve" smooth="yes"/>
			<point x="661" y="81"/>
			<point x="600" y="88"/>
			<point x="527" y="88" type="curve" smooth="yes"/>
			<point x="458" y="88"/>
			<point x="393" y="83"/>
			<point x="393" y="38" type="curve" smooth="yes"/>
			<point x="393" y="16"/>
			<point x="409" y="-5"/>
		</contour>
	</outline>
</glyph>
<glyph name="saMandai-batak" format="2">
	<advance width="1056"/>
	<unicode hex="1BDA"/>
	<anchor x="526" y="536" name="top"/>
	<anchor x="837" y="536" name="topright"/>
	<anchor x="226" y="536" name="topleft"/>
	<anchor x="845" y="51" name="bottomright"/>
	<outline>
		<contour>
			<point x="529" y="339" type="curve" smooth="yes"/>
			<point x="719" y="339"/>
			<point x="813" y="298"/>
			<point x="889" y="263" type="curve" smooth="yes"/>
			<point x="932" y="243"/>
			<point x="949" y="233"/>
			<point x="966" y="233" type="curve" smooth="yes"/>
			<point x="988" y="233"/>
			<point x="1004" y="251"/>
			<point x="1004" y="271" type="curve" smooth="yes"/>
			<point x="1004" y="286"/>
			<point x="994" y="308"/>
			<point x="953" y="331" type="curve" smooth="yes"/>
			<point x="877" y="375"/>
			<point x="715" y="427"/>
			<point x="529" y="427" type="curve" smooth="yes"/>
			<point x="343" y="427"/>
			<point x="181" y="375"/>
			<point x="105" y="331" type="curve" smooth="yes"/>
			<point x="64" y="308"/>
			<point x="54" y="286"/>
			<point x="54" y="271" type="curve" smooth="yes"/>
			<point x="54" y="251"/>
			<point x="70" y="233"/>
			<point x="92" y="233" type="curve" smooth="yes"/>
			<point x="109" y="233"/>
			<point x="126" y="243"/>
			<point x="169" y="263" type="curve" smooth="yes"/>
			<point x="245" y="298"/>
			<point x="339" y="339"/>
		</contour>
		<contour>
			<point x="562" y="-15" type="curve" smooth="yes"/>
			<point x="584" y="-15"/>
			<point x="607" y="0"/>
			<point x="607" y="24" type="curve" smooth="yes"/>
			<point x="607" y="75"/>
			<point x="388" y="326"/>
			<point x="330" y="378" type="curve"/>
			<point x="325" y="380"/>
			<point x="300" y="381"/>
			<point x="295" y="381" type="curve" smooth="yes"/>
			<point x="272" y="381"/>
			<point x="242" y="361"/>
			<point x="242" y="336" type="curve"/>
			<point x="357" y="213"/>
			<point x="410" y="167"/>
			<point x="519" y="8" type="curve" smooth="yes"/>
			<point x="528" y="-5"/>
			<point x="542" y="-15"/>
		</contour>
	</outline>
</glyph>
<glyph name="ya-batak" format="2">
	<advance width="1070"/>
	<unicode hex="1BDB"/>
	<anchor x="227" y="536" name="topleft"/>
	<anchor x="803" y="66" name="bottomright"/>
	<anchor x="837" y="536" name="topright"/>
	<outline>
		<contour>
			<point x="388" y="-10" type="curve" smooth="yes"/>
			<point x="488" y="-10"/>
			<point x="554" y="56"/>
			<point x="608" y="126" type="curve" smooth="yes"/>
			<point x="660" y="193" type="line" smooth="yes"/>
			<point x="704" y="250"/>
			<point x="743" y="276"/>
			<point x="792" y="276" type="curve" smooth="yes"/>
			<point x="862" y="276"/>
			<point x="896" y="223"/>
			<point x="919" y="149" type="curve" smooth="yes"/>
			<point x="928" y="121"/>
			<point x="929" y="77"/>
			<point x="974" y="77" type="curve" smooth="yes"/>
			<point x="1004" y="77"/>
			<point x="1017" y="98"/>
			<point x="1017" y="117" type="curve" smooth="yes"/>
			<point x="1017" y="132"/>
			<point x="1016" y="146"/>
			<point x="1011" y="164" type="curve" smooth="yes"/>
			<point x="981" y="279"/>
			<point x="915" y="364"/>
			<point x="794" y="364" type="curve" smooth="yes"/>
			<point x="693" y="364"/>
			<point x="633" y="306"/>
			<point x="579" y="234" type="curve" smooth="yes"/>
			<point x="528" y="166" type="line" smooth="yes"/>
			<point x="485" y="108"/>
			<point x="438" y="78"/>
			<point x="390" y="78" type="curve" smooth="yes"/>
			<point x="322" y="78"/>
			<point x="250" y="144"/>
			<point x="246" y="339" type="curve"/>
			<point x="331" y="339"/>
			<point x="379" y="333"/>
			<point x="398" y="333" type="curve" smooth="yes"/>
			<point x="423" y="333"/>
			<point x="439" y="354"/>
			<point x="439" y="376" type="curve" smooth="yes"/>
			<point x="439" y="396"/>
			<point x="428" y="410"/>
			<point x="405" y="418" type="curve" smooth="yes"/>
			<point x="390" y="423"/>
			<point x="333" y="427"/>
			<point x="247" y="427" type="curve" smooth="yes"/>
			<point x="153" y="427"/>
			<point x="103" y="423"/>
			<point x="88" y="418" type="curve" smooth="yes"/>
			<point x="65" y="410"/>
			<point x="54" y="396"/>
			<point x="54" y="376" type="curve" smooth="yes"/>
			<point x="54" y="354"/>
			<point x="70" y="333"/>
			<point x="95" y="333" type="curve" smooth="yes"/>
			<point x="106" y="333"/>
			<point x="124" y="335"/>
			<point x="155" y="337" type="curve"/>
			<point x="157" y="101"/>
			<point x="266" y="-10"/>
		</contour>
	</outline>
</glyph>
<glyph name="nga-batak" format="2">
	<advance width="756"/>
	<unicode hex="1BDD"/>
	<anchor x="90" y="536" name="topleft"/>
	<anchor x="597" y="-66" name="bottomright"/>
	<anchor x="610" y="536" name="topright"/>
	<outline>
		<contour>
			<point x="661" y="-10" type="curve" smooth="yes"/>
			<point x="682" y="-10"/>
			<point x="703" y="9"/>
			<point x="703" y="35" type="curve" smooth="yes"/>
			<point x="703" y="52"/>
			<point x="694" y="70"/>
			<point x="676" y="74" type="curve" smooth="yes"/>
			<point x="648" y="80"/>
			<point x="480" y="129"/>
			<point x="398" y="156" type="curve" smooth="yes"/>
			<point x="347" y="173"/>
			<point x="245" y="213"/>
			<point x="206" y="234" type="curve"/>
			<point x="251" y="263"/>
			<point x="348" y="295"/>
			<point x="398" y="314" type="curve" smooth="yes"/>
			<point x="491" y="349"/>
			<point x="651" y="390"/>
			<point x="676" y="396" type="curve" smooth="yes"/>
			<point x="694" y="400"/>
			<point x="703" y="417"/>
			<point x="703" y="434" type="curve" smooth="yes"/>
			<point x="703" y="460"/>
			<point x="682" y="479"/>
			<point x="661" y="479" type="curve" smooth="yes"/>
			<point x="628" y="479"/>
			<point x="450" y="424"/>
			<point x="364" y="394" type="curve" smooth="yes"/>
			<point x="275" y="363"/>
			<point x="105" y="294"/>
			<point x="76" y="273" type="curve" smooth="yes"/>
			<point x="61" y="262"/>
			<point x="54" y="251"/>
			<point x="54" y="238" type="curve" smooth="yes"/>
			<point x="54" y="220"/>
			<point x="65" y="206"/>
			<point x="78" y="196" type="curve" smooth="yes"/>
			<point x="103" y="177"/>
			<point x="278" y="104"/>
			<point x="364" y="75" type="curve" smooth="yes"/>
			<point x="450" y="46"/>
			<point x="628" y="-10"/>
		</contour>
	</outline>
</glyph>
<glyph name="la-batak" format="2">
	<advance width="931"/>
	<unicode hex="1BDE"/>
	<anchor x="178" y="536" name="topleft"/>
	<anchor x="737" y="188" name="bottomright"/>
	<anchor x="758" y="536" name="topright"/>
	<outline>
		<contour>
			<point x="294" y="49" type="curve" smooth="yes"/>
			<point x="316" y="49"/>
			<point x="340" y="68"/>
			<point x="340" y="92" type="curve" smooth="yes"/>
			<point x="340" y="105"/>
			<point x="333" y="120"/>
			<point x="325" y="129" type="curve" smooth="yes"/>
			<point x="291" y="170"/>
			<point x="233" y="225"/>
			<point x="176" y="267" type="curve"/>
			<point x="234" y="306"/>
			<point x="308" y="339"/>
			<point x="466" y="339" type="curve" smooth="yes"/>
			<point x="628" y="339"/>
			<point x="722" y="303"/>
			<point x="757" y="288" type="curve" smooth="yes"/>
			<point x="785" y="276"/>
			<point x="821" y="255"/>
			<point x="844" y="255" type="curve" smooth="yes"/>
			<point x="861" y="255"/>
			<point x="877" y="267"/>
			<point x="877" y="288" type="curve" smooth="yes"/>
			<point x="877" y="303"/>
			<point x="869" y="333"/>
			<point x="786" y="367" type="curve" smooth="yes"/>
			<point x="741" y="386"/>
			<point x="621" y="427"/>
			<point x="466" y="427" type="curve" smooth="yes"/>
			<point x="289" y="427"/>
			<point x="171" y="375"/>
			<point x="118" y="346" type="curve" smooth="yes"/>
			<point x="78" y="324"/>
			<point x="54" y="302"/>
			<point x="54" y="281" type="curve" smooth="yes"/>
			<point x="54" y="258"/>
			<point x="82" y="233"/>
			<point x="112" y="207" type="curve" smooth="yes"/>
			<point x="140" y="183"/>
			<point x="209" y="132"/>
			<point x="260" y="64" type="curve" smooth="yes"/>
			<point x="270" y="51"/>
			<point x="284" y="49"/>
		</contour>
	</outline>
</glyph>
<glyph name="laSima-batak" format="2">
	<advance width="1056"/>
	<unicode hex="1BDF"/>
	<anchor x="227" y="536" name="topleft"/>
	<anchor x="762" y="188" name="bottomright"/>
	<anchor x="837" y="536" name="topright"/>
	<outline>
		<contour>
			<point x="529" y="339" type="curve" smooth="yes"/>
			<point x="719" y="339"/>
			<point x="813" y="298"/>
			<point x="889" y="263" type="curve" smooth="yes"/>
			<point x="932" y="243"/>
			<point x="949" y="233"/>
			<point x="966" y="233" type="curve" smooth="yes"/>
			<point x="988" y="233"/>
			<point x="1004" y="251"/>
			<point x="1004" y="271" type="curve" smooth="yes"/>
			<point x="1004" y="286"/>
			<point x="994" y="308"/>
			<point x="953" y="331" type="curve" smooth="yes"/>
			<point x="877" y="375"/>
			<point x="715" y="427"/>
			<point x="529" y="427" type="curve" smooth="yes"/>
			<point x="343" y="427"/>
			<point x="181" y="375"/>
			<point x="105" y="331" type="curve" smooth="yes"/>
			<point x="64" y="308"/>
			<point x="54" y="286"/>
			<point x="54" y="271" type="curve" smooth="yes"/>
			<point x="54" y="251"/>
			<point x="70" y="233"/>
			<point x="92" y="233" type="curve" smooth="yes"/>
			<point x="109" y="233"/>
			<point x="126" y="243"/>
			<point x="169" y="263" type="curve" smooth="yes"/>
			<point x="245" y="298"/>
			<point x="339" y="339"/>
		</contour>
		<contour>
			<point x="109" y="-5" type="curve" smooth="yes"/>
			<point x="128" y="-5"/>
			<point x="158" y="0"/>
			<point x="203" y="0" type="curve" smooth="yes"/>
			<point x="240" y="0"/>
			<point x="276" y="-5"/>
			<point x="295" y="-5" type="curve" smooth="yes"/>
			<point x="320" y="-5"/>
			<point x="336" y="16"/>
			<point x="336" y="38" type="curve" smooth="yes"/>
			<point x="336" y="81"/>
			<point x="275" y="88"/>
			<point x="203" y="88" type="curve" smooth="yes"/>
			<point x="131" y="88"/>
			<point x="68" y="82"/>
			<point x="68" y="38" type="curve" smooth="yes"/>
			<point x="68" y="16"/>
			<point x="84" y="-5"/>
		</contour>
	</outline>
</glyph>
<glyph name="nya-batak" format="2">
	<advance width="917"/>
	<unicode hex="1BE0"/>
	<anchor x="168" y="536" name="topleft"/>
	<anchor x="729" y="2" name="bottomright"/>
	<anchor x="748" y="536" name="topright"/>
	<outline>
		<contour>
			<point x="340" y="-12" type="curve" smooth="yes"/>
			<point x="365" y="-12"/>
			<point x="386" y="10"/>
			<point x="386" y="33" type="curve" smooth="yes"/>
			<point x="386" y="84"/>
			<point x="203" y="143"/>
			<point x="168" y="151" type="curve"/>
			<point x="359" y="293"/>
			<point x="578" y="332"/>
			<point x="796" y="340" type="curve" smooth="yes"/>
			<point x="838" y="342"/>
			<point x="864" y="350"/>
			<point x="864" y="380" type="curve" smooth="yes"/>
			<point x="864" y="420"/>
			<point x="823" y="427"/>
			<point x="792" y="427" type="curve" smooth="yes"/>
			<point x="571" y="427"/>
			<point x="268" y="358"/>
			<point x="84" y="193" type="curve" smooth="yes"/>
			<point x="70" y="180"/>
			<point x="54" y="156"/>
			<point x="54" y="144" type="curve" smooth="yes"/>
			<point x="54" y="115"/>
			<point x="77" y="94"/>
			<point x="101" y="86" type="curve" smooth="yes"/>
			<point x="172" y="62"/>
			<point x="234" y="39"/>
			<point x="317" y="-7" type="curve" smooth="yes"/>
			<point x="325" y="-12"/>
			<point x="333" y="-12"/>
		</contour>
		<contour>
			<point x="601" y="67" type="curve" smooth="yes"/>
			<point x="623" y="67"/>
			<point x="643" y="88"/>
			<point x="643" y="108" type="curve" smooth="yes"/>
			<point x="643" y="130"/>
			<point x="631" y="151"/>
			<point x="546" y="199" type="curve" smooth="yes"/>
			<point x="480" y="236"/>
			<point x="455" y="241"/>
			<point x="440" y="241" type="curve" smooth="yes"/>
			<point x="416" y="241"/>
			<point x="397" y="224"/>
			<point x="397" y="199" type="curve" smooth="yes"/>
			<point x="397" y="161"/>
			<point x="431" y="163"/>
			<point x="503" y="123" type="curve" smooth="yes"/>
			<point x="551" y="96"/>
			<point x="580" y="67"/>
		</contour>
	</outline>
</glyph>
<glyph name="ca-batak" format="2">
	<advance width="1017"/>
	<unicode hex="1BE1"/>
	<anchor x="207" y="536" name="topleft"/>
	<anchor x="798" y="0" name="bottomright"/>
	<anchor x="817" y="536" name="topright"/>
	<outline>
		<contour>
			<point x="265" y="-10" type="curve" smooth="yes"/>
			<point x="459" y="-10"/>
			<point x="489" y="266"/>
			<point x="574" y="266" type="curve" smooth="yes"/>
			<point x="648" y="266"/>
			<point x="646" y="98"/>
			<point x="789" y="98" type="curve" smooth="yes"/>
			<point x="893" y="98"/>
			<point x="963" y="207"/>
			<point x="963" y="295" type="curve" smooth="yes"/>
			<point x="963" y="313"/>
			<point x="950" y="334"/>
			<point x="920" y="334" type="curve" smooth="yes"/>
			<point x="875" y="334"/>
			<point x="879" y="289"/>
			<point x="866" y="262" type="curve" smooth="yes"/>
			<point x="858" y="245"/>
			<point x="839" y="186"/>
			<point x="787" y="186" type="curve" smooth="yes"/>
			<point x="708" y="186"/>
			<point x="703" y="354"/>
			<point x="576" y="354" type="curve" smooth="yes"/>
			<point x="531" y="354"/>
			<point x="497" y="328"/>
			<point x="468" y="293" type="curve"/>
			<point x="429" y="377"/>
			<point x="362" y="427"/>
			<point x="284" y="427" type="curve" smooth="yes"/>
			<point x="148" y="427"/>
			<point x="63" y="329"/>
			<point x="63" y="208" type="curve" smooth="yes"/>
			<point x="63" y="88"/>
			<point x="151" y="-10"/>
		</contour>
		<contour>
			<point x="277" y="78" type="curve" smooth="yes"/>
			<point x="205" y="78"/>
			<point x="161" y="136"/>
			<point x="161" y="208" type="curve" smooth="yes"/>
			<point x="161" y="280"/>
			<point x="203" y="339"/>
			<point x="277" y="339" type="curve" smooth="yes"/>
			<point x="329" y="339"/>
			<point x="384" y="294"/>
			<point x="404" y="199" type="curve"/>
			<point x="366" y="136"/>
			<point x="330" y="78"/>
		</contour>
	</outline>
</glyph>
<glyph name="nda-batak" format="2">
	<advance width="875"/>
	<unicode hex="1BE2"/>
	<anchor x="168" y="536" name="topleft"/>
	<anchor x="689" y="37" name="bottomright"/>
	<anchor x="718" y="536" name="topright"/>
	<outline>
		<contour>
			<point x="778" y="147" type="curve" smooth="yes"/>
			<point x="802" y="147"/>
			<point x="821" y="167"/>
			<point x="821" y="193" type="curve" smooth="yes"/>
			<point x="821" y="206"/>
			<point x="815" y="219"/>
			<point x="804" y="227" type="curve" smooth="yes"/>
			<point x="759" y="258"/>
			<point x="624" y="320"/>
			<point x="487" y="376" type="curve" smooth="yes"/>
			<point x="357" y="429"/>
			<point x="194" y="479"/>
			<point x="159" y="479" type="curve" smooth="yes"/>
			<point x="128" y="479"/>
			<point x="107" y="462"/>
			<point x="107" y="435" type="curve" smooth="yes"/>
			<point x="107" y="422"/>
			<point x="113" y="409"/>
			<point x="125" y="401" type="curve" smooth="yes"/>
			<point x="148" y="385"/>
			<point x="211" y="389"/>
			<point x="428" y="301" type="curve" smooth="yes"/>
			<point x="553" y="250"/>
			<point x="707" y="178"/>
			<point x="729" y="167" type="curve" smooth="yes"/>
			<point x="733" y="164"/>
			<point x="763" y="147"/>
		</contour>
		<contour>
			<point x="99" y="-15" type="curve" smooth="yes"/>
			<point x="109" y="-15"/>
			<point x="126" y="-12"/>
			<point x="134" y="-7" type="curve" smooth="yes"/>
			<point x="166" y="14"/>
			<point x="198" y="31"/>
			<point x="259" y="58" type="curve" smooth="yes"/>
			<point x="321" y="85"/>
			<point x="366" y="96"/>
			<point x="408" y="114" type="curve" smooth="yes"/>
			<point x="430" y="124"/>
			<point x="438" y="141"/>
			<point x="438" y="156" type="curve" smooth="yes"/>
			<point x="438" y="179"/>
			<point x="420" y="201"/>
			<point x="397" y="201" type="curve" smooth="yes"/>
			<point x="368" y="201"/>
			<point x="271" y="161"/>
			<point x="215" y="136" type="curve" smooth="yes"/>
			<point x="151" y="107"/>
			<point x="124" y="95"/>
			<point x="83" y="69" type="curve" smooth="yes"/>
			<point x="70" y="61"/>
			<point x="54" y="51"/>
			<point x="54" y="30" type="curve" smooth="yes"/>
			<point x="54" y="7"/>
			<point x="76" y="-15"/>
		</contour>
	</outline>
</glyph>
<glyph name="mba-batak" format="2">
	<advance width="990"/>
	<unicode hex="1BE3"/>
	<anchor x="188" y="536" name="topleft"/>
	<anchor x="790" y="-70" name="bottomright"/>
	<anchor x="768" y="536" name="topright"/>
	<outline>
		<contour>
			<point x="495" y="-10" type="curve" smooth="yes"/>
			<point x="725" y="-10"/>
			<point x="922" y="61"/>
			<point x="922" y="234" type="curve" smooth="yes"/>
			<point x="922" y="409"/>
			<point x="719" y="479"/>
			<point x="495" y="479" type="curve" smooth="yes"/>
			<point x="279" y="479"/>
			<point x="68" y="409"/>
			<point x="68" y="234" type="curve" smooth="yes"/>
			<point x="68" y="64"/>
			<point x="254" y="-10"/>
		</contour>
		<contour>
			<point x="495" y="78" type="curve" smooth="yes"/>
			<point x="332" y="78"/>
			<point x="163" y="116"/>
			<point x="163" y="234" type="curve" smooth="yes"/>
			<point x="163" y="353"/>
			<point x="335" y="391"/>
			<point x="495" y="391" type="curve" smooth="yes"/>
			<point x="655" y="391"/>
			<point x="827" y="351"/>
			<point x="827" y="234" type="curve" smooth="yes"/>
			<point x="827" y="120"/>
			<point x="664" y="78"/>
		</contour>
		<contour>
			<point x="495" y="174" type="curve" smooth="yes"/>
			<point x="533" y="174"/>
			<point x="563" y="204"/>
			<point x="563" y="242" type="curve" smooth="yes"/>
			<point x="563" y="279"/>
			<point x="533" y="310"/>
			<point x="495" y="310" type="curve" smooth="yes"/>
			<point x="458" y="310"/>
			<point x="427" y="279"/>
			<point x="427" y="242" type="curve" smooth="yes"/>
			<point x="427" y="204"/>
			<point x="458" y="174"/>
		</contour>
	</outline>
</glyph>
<glyph name="i-batak" format="2">
	<advance width="913"/>
	<unicode hex="1BE4"/>
	<anchor x="749" y="585" name="topright"/>
	<outline>
		<contour>
			<point x="95" y="388" type="curve" smooth="yes"/>
			<point x="106" y="388"/>
			<point x="136" y="397"/>
			<point x="144" y="400" type="curve" smooth="yes"/>
			<point x="199" y="420"/>
			<point x="340" y="439"/>
			<point x="456" y="439" type="curve" smooth="yes"/>
			<point x="563" y="439"/>
			<point x="713" y="420"/>
			<point x="767" y="401" type="curve" smooth="yes"/>
			<point x="774" y="398"/>
			<point x="804" y="388"/>
			<point x="818" y="388" type="curve" smooth="yes"/>
			<point x="843" y="388"/>
			<point x="859" y="412"/>
			<point x="859" y="434" type="curve" smooth="yes"/>
			<point x="859" y="453"/>
			<point x="848" y="464"/>
			<point x="824" y="476" type="curve" smooth="yes"/>
			<point x="745" y="517"/>
			<point x="542" y="527"/>
			<point x="456" y="527" type="curve" smooth="yes"/>
			<point x="362" y="527"/>
			<point x="168" y="518"/>
			<point x="82" y="472" type="curve" smooth="yes"/>
			<point x="63" y="462"/>
			<point x="54" y="446"/>
			<point x="54" y="434" type="curve" smooth="yes"/>
			<point x="54" y="411"/>
			<point x="70" y="388"/>
		</contour>
		<contour>
			<point x="277" y="209" type="curve" smooth="yes"/>
			<point x="297" y="209"/>
			<point x="360" y="220"/>
			<point x="454" y="220" type="curve" smooth="yes"/>
			<point x="541" y="220"/>
			<point x="610" y="209"/>
			<point x="630" y="209" type="curve" smooth="yes"/>
			<point x="655" y="209"/>
			<point x="671" y="230"/>
			<point x="671" y="252" type="curve" smooth="yes"/>
			<point x="671" y="271"/>
			<point x="660" y="285"/>
			<point x="636" y="294" type="curve" smooth="yes"/>
			<point x="622" y="299"/>
			<point x="541" y="308"/>
			<point x="454" y="308" type="curve" smooth="yes"/>
			<point x="360" y="308"/>
			<point x="286" y="299"/>
			<point x="271" y="294" type="curve" smooth="yes"/>
			<point x="248" y="286"/>
			<point x="236" y="271"/>
			<point x="236" y="252" type="curve" smooth="yes"/>
			<point x="236" y="230"/>
			<point x="252" y="209"/>
		</contour>
		<contour>
			<point x="361" y="-5" type="curve" smooth="yes"/>
			<point x="381" y="-5"/>
			<point x="410" y="0"/>
			<point x="455" y="0" type="curve" smooth="yes"/>
			<point x="493" y="0"/>
			<point x="528" y="-5"/>
			<point x="548" y="-5" type="curve" smooth="yes"/>
			<point x="573" y="-5"/>
			<point x="589" y="16"/>
			<point x="589" y="38" type="curve" smooth="yes"/>
			<point x="589" y="81"/>
			<point x="529" y="88"/>
			<point x="455" y="88" type="curve" smooth="yes"/>
			<point x="389" y="88"/>
			<point x="320" y="83"/>
			<point x="320" y="38" type="curve" smooth="yes"/>
			<point x="320" y="16"/>
			<point x="336" y="-5"/>
		</contour>
	</outline>
</glyph>
<glyph name="u-batak" format="2">
	<advance width="913"/>
	<unicode hex="1BE5"/>
	<anchor x="749" y="585" name="topright"/>
	<outline>
		<contour>
			<point x="456" y="-10" type="curve" smooth="yes"/>
			<point x="542" y="-10"/>
			<point x="745" y="0"/>
			<point x="824" y="42" type="curve" smooth="yes"/>
			<point x="847" y="54"/>
			<point x="859" y="64"/>
			<point x="859" y="83" type="curve" smooth="yes"/>
			<point x="859" y="106"/>
			<point x="843" y="129"/>
			<point x="818" y="129" type="curve" smooth="yes"/>
			<point x="804" y="129"/>
			<point x="774" y="120"/>
			<point x="767" y="117" type="curve" smooth="yes"/>
			<point x="713" y="97"/>
			<point x="563" y="78"/>
			<point x="456" y="78" type="curve" smooth="yes"/>
			<point x="340" y="78"/>
			<point x="199" y="97"/>
			<point x="144" y="117" type="curve" smooth="yes"/>
			<point x="136" y="120"/>
			<point x="106" y="129"/>
			<point x="95" y="129" type="curve" smooth="yes"/>
			<point x="70" y="129"/>
			<point x="54" y="106"/>
			<point x="54" y="84" type="curve" smooth="yes"/>
			<point x="54" y="71"/>
			<point x="63" y="55"/>
			<point x="82" y="45" type="curve" smooth="yes"/>
			<point x="168" y="0"/>
			<point x="362" y="-10"/>
		</contour>
		<contour>
			<point x="454" y="209" type="curve" smooth="yes"/>
			<point x="541" y="209"/>
			<point x="622" y="218"/>
			<point x="636" y="224" type="curve" smooth="yes"/>
			<point x="661" y="234"/>
			<point x="671" y="246"/>
			<point x="671" y="265" type="curve" smooth="yes"/>
			<point x="671" y="288"/>
			<point x="655" y="309"/>
			<point x="630" y="309" type="curve" smooth="yes"/>
			<point x="610" y="309"/>
			<point x="541" y="297"/>
			<point x="454" y="297" type="curve" smooth="yes"/>
			<point x="360" y="297"/>
			<point x="297" y="309"/>
			<point x="277" y="309" type="curve" smooth="yes"/>
			<point x="252" y="309"/>
			<point x="236" y="288"/>
			<point x="236" y="265" type="curve" smooth="yes"/>
			<point x="236" y="246"/>
			<point x="248" y="232"/>
			<point x="271" y="224" type="curve" smooth="yes"/>
			<point x="286" y="219"/>
			<point x="360" y="209"/>
		</contour>
		<contour>
			<point x="455" y="430" type="curve" smooth="yes"/>
			<point x="525" y="430"/>
			<point x="589" y="434"/>
			<point x="589" y="479" type="curve" smooth="yes"/>
			<point x="589" y="502"/>
			<point x="573" y="523"/>
			<point x="548" y="523" type="curve" smooth="yes"/>
			<point x="528" y="523"/>
			<point x="493" y="518"/>
			<point x="455" y="518" type="curve" smooth="yes"/>
			<point x="410" y="518"/>
			<point x="381" y="523"/>
			<point x="361" y="523" type="curve" smooth="yes"/>
			<point x="336" y="523"/>
			<point x="320" y="502"/>
			<point x="320" y="479" type="curve" smooth="yes"/>
			<point x="320" y="434"/>
			<point x="383" y="430"/>
		</contour>
	</outline>
</glyph>
<glyph name="tompi-batak" format="2">
	<advance width="0"/>
	<unicode hex="1BE6"/>
	<anchor x="-479" y="791" name="top"/>
	<anchor x="-479" y="488" name="_top"/>
	<outline>
		<contour>
			<point x="-573" y="691" type="curve" smooth="yes"/>
			<point x="-553" y="691"/>
			<point x="-524" y="696"/>
			<point x="-479" y="696" type="curve" smooth="yes"/>
			<point x="-441" y="696"/>
			<point x="-406" y="691"/>
			<point x="-386" y="691" type="curve" smooth="yes"/>
			<point x="-361" y="691"/>
			<point x="-345" y="701"/>
			<point x="-345" y="723" type="curve" smooth="yes"/>
			<point x="-345" y="761"/>
			<point x="-405" y="768"/>
			<point x="-479" y="768" type="curve" smooth="yes"/>
			<point x="-551" y="768"/>
			<point x="-614" y="761"/>
			<point x="-614" y="723" type="curve" smooth="yes"/>
			<point x="-614" y="701"/>
			<point x="-597" y="691"/>
		</contour>
		<contour>
			<point x="-573" y="552" type="curve" smooth="yes"/>
			<point x="-553" y="552"/>
			<point x="-524" y="557"/>
			<point x="-479" y="557" type="curve" smooth="yes"/>
			<point x="-441" y="557"/>
			<point x="-406" y="552"/>
			<point x="-386" y="552" type="curve" smooth="yes"/>
			<point x="-361" y="552"/>
			<point x="-345" y="562"/>
			<point x="-345" y="584" type="curve" smooth="yes"/>
			<point x="-345" y="622"/>
			<point x="-407" y="629"/>
			<point x="-479" y="629" type="curve" smooth="yes"/>
			<point x="-546" y="629"/>
			<point x="-614" y="623"/>
			<point x="-614" y="584" type="curve" smooth="yes"/>
			<point x="-614" y="562"/>
			<point x="-597" y="552"/>
		</contour>
	</outline>
</glyph>
<glyph name="eSign-batak" format="2">
	<advance width="318"/>
	<unicode hex="1BE7"/>
	<anchor x="112" y="415" name="topright"/>
	<outline>
		<contour>
			<point x="55" y="0" type="curve" smooth="yes"/>
			<point x="94" y="0"/>
			<point x="270" y="147"/>
			<point x="270" y="192" type="curve" smooth="yes"/>
			<point x="270" y="237"/>
			<point x="94" y="385"/>
			<point x="55" y="385" type="curve" smooth="yes"/>
			<point x="33" y="385"/>
			<point x="15" y="370"/>
			<point x="15" y="345" type="curve" smooth="yes"/>
			<point x="15" y="333"/>
			<point x="19" y="318"/>
			<point x="34" y="308" type="curve" smooth="yes"/>
			<point x="75" y="281"/>
			<point x="133" y="239"/>
			<point x="173" y="191" type="curve"/>
			<point x="134" y="146"/>
			<point x="73" y="103"/>
			<point x="34" y="78" type="curve" smooth="yes"/>
			<point x="19" y="68"/>
			<point x="15" y="53"/>
			<point x="15" y="41" type="curve" smooth="yes"/>
			<point x="15" y="15"/>
			<point x="33" y="0"/>
		</contour>
	</outline>
</glyph>
<glyph name="eSignPak-batak" format="2">
	<advance width="0"/>
	<unicode hex="1BE8"/>
	<anchor x="-170" y="536" name="_topright"/>
	<anchor x="-170" y="908" name="topright"/>
	<outline>
		<contour>
			<point x="-183" y="552" type="curve" smooth="yes"/>
			<point x="-172" y="552"/>
			<point x="-164" y="556"/>
			<point x="-156" y="563" type="curve" smooth="yes"/>
			<point x="-114" y="604"/>
			<point x="-67" y="639"/>
			<point x="-23" y="668" type="curve" smooth="yes"/>
			<point x="-10" y="677"/>
			<point x="0" y="693"/>
			<point x="0" y="708" type="curve" smooth="yes"/>
			<point x="0" y="756"/>
			<point x="-148" y="861"/>
			<point x="-183" y="861" type="curve" smooth="yes"/>
			<point x="-204" y="861"/>
			<point x="-220" y="847"/>
			<point x="-220" y="823" type="curve" smooth="yes"/>
			<point x="-220" y="810"/>
			<point x="-210" y="797"/>
			<point x="-196" y="789" type="curve" smooth="yes"/>
			<point x="-155" y="764"/>
			<point x="-114" y="740"/>
			<point x="-86" y="708" type="curve"/>
			<point x="-125" y="688"/>
			<point x="-177" y="646"/>
			<point x="-196" y="625" type="curve" smooth="yes"/>
			<point x="-207" y="613"/>
			<point x="-220" y="603"/>
			<point x="-220" y="590" type="curve" smooth="yes"/>
			<point x="-220" y="566"/>
			<point x="-204" y="552"/>
		</contour>
	</outline>
</glyph>
<glyph name="eeSign-batak" format="2">
	<advance width="0"/>
	<unicode hex="1BE9"/>
	<anchor x="-437" y="488" name="_topleft"/>
	<anchor x="-430" y="723" name="topleft"/>
	<outline>
		<contour>
			<point x="-540" y="552" type="curve" smooth="yes"/>
			<point x="-521" y="552"/>
			<point x="-481" y="557"/>
			<point x="-437" y="557" type="curve" smooth="yes"/>
			<point x="-399" y="557"/>
			<point x="-354" y="552"/>
			<point x="-334" y="552" type="curve" smooth="yes"/>
			<point x="-309" y="552"/>
			<point x="-293" y="562"/>
			<point x="-293" y="584" type="curve" smooth="yes"/>
			<point x="-293" y="624"/>
			<point x="-362" y="629"/>
			<point x="-437" y="629" type="curve" smooth="yes"/>
			<point x="-511" y="629"/>
			<point x="-581" y="624"/>
			<point x="-581" y="584" type="curve" smooth="yes"/>
			<point x="-581" y="562"/>
			<point x="-565" y="552"/>
		</contour>
	</outline>
</glyph>
<glyph name="iSign-batak" format="2">
	<advance width="483"/>
	<unicode hex="1BEA"/>
	<anchor x="227" y="476" name="topright"/>
	<outline>
		<contour>
			<point x="216" y="0" type="curve" smooth="yes"/>
			<point x="344" y="0"/>
			<point x="434" y="92"/>
			<point x="434" y="205" type="curve" smooth="yes"/>
			<point x="434" y="311"/>
			<point x="354" y="395"/>
			<point x="230" y="395" type="curve" smooth="yes"/>
			<point x="105" y="395"/>
			<point x="15" y="304"/>
			<point x="15" y="189" type="curve" smooth="yes"/>
			<point x="15" y="84"/>
			<point x="94" y="0"/>
		</contour>
		<contour>
			<point x="219" y="83" type="curve" smooth="yes"/>
			<point x="150" y="83"/>
			<point x="103" y="131"/>
			<point x="103" y="192" type="curve" smooth="yes"/>
			<point x="103" y="264"/>
			<point x="164" y="312"/>
			<point x="227" y="312" type="curve" smooth="yes"/>
			<point x="297" y="312"/>
			<point x="345" y="263"/>
			<point x="345" y="202" type="curve" smooth="yes"/>
			<point x="345" y="136"/>
			<point x="293" y="83"/>
		</contour>
	</outline>
</glyph>
<glyph name="iSignKaro-batak" format="2">
	<advance width="327"/>
	<unicode hex="1BEB"/>
	<anchor x="146" y="442" name="topright"/>
	<outline>
		<contour>
			<point x="56" y="265" type="curve" smooth="yes"/>
			<point x="75" y="265"/>
			<point x="109" y="271"/>
			<point x="144" y="271" type="curve" smooth="yes"/>
			<point x="172" y="271"/>
			<point x="217" y="265"/>
			<point x="237" y="265" type="curve" smooth="yes"/>
			<point x="262" y="265"/>
			<point x="278" y="275"/>
			<point x="278" y="297" type="curve" smooth="yes"/>
			<point x="278" y="338"/>
			<point x="211" y="342"/>
			<point x="144" y="342" type="curve" smooth="yes"/>
			<point x="81" y="342"/>
			<point x="15" y="338"/>
			<point x="15" y="297" type="curve" smooth="yes"/>
			<point x="15" y="275"/>
			<point x="31" y="265"/>
		</contour>
		<contour>
			<point x="56" y="102" type="curve" smooth="yes"/>
			<point x="75" y="102"/>
			<point x="109" y="107"/>
			<point x="144" y="107" type="curve" smooth="yes"/>
			<point x="172" y="107"/>
			<point x="217" y="102"/>
			<point x="237" y="102" type="curve" smooth="yes"/>
			<point x="262" y="102"/>
			<point x="278" y="111"/>
			<point x="278" y="134" type="curve" smooth="yes"/>
			<point x="278" y="173"/>
			<point x="210" y="179"/>
			<point x="144" y="179" type="curve" smooth="yes"/>
			<point x="83" y="179"/>
			<point x="15" y="174"/>
			<point x="15" y="134" type="curve" smooth="yes"/>
			<point x="15" y="111"/>
			<point x="31" y="102"/>
		</contour>
	</outline>
</glyph>
<glyph name="oSign-batak" format="2">
	<advance width="533"/>
	<unicode hex="1BEC"/>
	<anchor x="256" y="506" name="topright"/>
	<outline>
		<contour>
			<point x="63" y="0" type="curve" smooth="yes"/>
			<point x="71" y="0"/>
			<point x="78" y="2"/>
			<point x="86" y="6" type="curve" smooth="yes"/>
			<point x="194" y="59"/>
			<point x="415" y="280"/>
			<point x="467" y="359" type="curve" smooth="yes"/>
			<point x="471" y="365"/>
			<point x="473" y="372"/>
			<point x="473" y="379" type="curve" smooth="yes"/>
			<point x="472" y="401"/>
			<point x="456" y="418"/>
			<point x="435" y="418" type="curve" smooth="yes"/>
			<point x="427" y="418"/>
			<point x="419" y="415"/>
			<point x="412" y="408" type="curve" smooth="yes"/>
			<point x="397" y="392"/>
			<point x="343" y="322"/>
			<point x="256" y="240" type="curve" smooth="yes"/>
			<point x="61" y="58"/>
			<point x="27" y="80"/>
			<point x="27" y="39" type="curve" smooth="yes"/>
			<point x="27" y="21"/>
			<point x="42" y="0"/>
		</contour>
		<contour>
			<point x="446" y="5" type="curve" smooth="yes"/>
			<point x="465" y="5"/>
			<point x="484" y="18"/>
			<point x="484" y="41" type="curve" smooth="yes"/>
			<point x="484" y="51"/>
			<point x="477" y="64"/>
			<point x="464" y="80" type="curve" smooth="yes"/>
			<point x="427" y="126"/>
			<point x="323" y="216"/>
			<point x="289" y="244" type="curve" smooth="yes"/>
			<point x="238" y="285"/>
			<point x="104" y="388"/>
			<point x="64" y="388" type="curve" smooth="yes"/>
			<point x="46" y="388"/>
			<point x="24" y="373"/>
			<point x="24" y="349" type="curve" smooth="yes"/>
			<point x="24" y="336"/>
			<point x="31" y="326"/>
			<point x="49" y="315" type="curve" smooth="yes"/>
			<point x="73" y="301"/>
			<point x="175" y="223"/>
			<point x="229" y="181" type="curve" smooth="yes"/>
			<point x="360" y="79"/>
			<point x="414" y="5"/>
		</contour>
	</outline>
</glyph>
<glyph name="oSignKaro-batak" format="2">
	<advance width="0"/>
	<unicode hex="1BED"/>
	<anchor x="-170" y="536" name="_topright"/>
	<anchor x="-170" y="908" name="topright"/>
	<outline>
		<contour>
			<point x="-183" y="552" type="curve" smooth="yes"/>
			<point x="-172" y="552"/>
			<point x="-164" y="556"/>
			<point x="-156" y="563" type="curve"/>
			<point x="-114" y="604"/>
			<point x="-67" y="639"/>
			<point x="-23" y="668" type="curve" smooth="yes"/>
			<point x="-10" y="677"/>
			<point x="0" y="693"/>
			<point x="0" y="708" type="curve" smooth="yes"/>
			<point x="0" y="758"/>
			<point x="-151" y="861"/>
			<point x="-183" y="861" type="curve" smooth="yes"/>
			<point x="-204" y="861"/>
			<point x="-220" y="847"/>
			<point x="-220" y="823" type="curve" smooth="yes"/>
			<point x="-220" y="810"/>
			<point x="-210" y="797"/>
			<point x="-196" y="789" type="curve" smooth="yes"/>
			<point x="-155" y="764"/>
			<point x="-114" y="740"/>
			<point x="-86" y="708" type="curve"/>
			<point x="-125" y="688"/>
			<point x="-177" y="646"/>
			<point x="-196" y="625" type="curve" smooth="yes"/>
			<point x="-207" y="613"/>
			<point x="-220" y="603"/>
			<point x="-220" y="590" type="curve" smooth="yes"/>
			<point x="-220" y="566"/>
			<point x="-204" y="552"/>
		</contour>
		<contour>
			<point x="-467" y="684" type="curve" smooth="yes"/>
			<point x="-448" y="684"/>
			<point x="-409" y="689"/>
			<point x="-364" y="689" type="curve" smooth="yes"/>
			<point x="-326" y="689"/>
			<point x="-281" y="684"/>
			<point x="-261" y="684" type="curve" smooth="yes"/>
			<point x="-236" y="684"/>
			<point x="-220" y="694"/>
			<point x="-220" y="716" type="curve" smooth="yes"/>
			<point x="-220" y="755"/>
			<point x="-286" y="761"/>
			<point x="-364" y="761" type="curve" smooth="yes"/>
			<point x="-440" y="761"/>
			<point x="-508" y="756"/>
			<point x="-508" y="716" type="curve" smooth="yes"/>
			<point x="-508" y="694"/>
			<point x="-492" y="684"/>
		</contour>
	</outline>
</glyph>
<glyph name="uSign-batak" format="2">
	<advance width="0"/>
	<unicode hex="1BEE"/>
	<anchor x="141" y="-319" name="bottomright"/>
	<anchor x="141" y="58" name="_bottomright"/>
	<outline>
		<contour>
			<point x="55" y="-291" type="curve" smooth="yes"/>
			<point x="94" y="-291"/>
			<point x="270" y="-143"/>
			<point x="270" y="-99" type="curve" smooth="yes"/>
			<point x="270" y="-54"/>
			<point x="94" y="94"/>
			<point x="55" y="94" type="curve" smooth="yes"/>
			<point x="33" y="94"/>
			<point x="15" y="79"/>
			<point x="15" y="54" type="curve" smooth="yes"/>
			<point x="15" y="42"/>
			<point x="19" y="27"/>
			<point x="34" y="17" type="curve" smooth="yes"/>
			<point x="75" y="-10"/>
			<point x="133" y="-52"/>
			<point x="173" y="-100" type="curve"/>
			<point x="134" y="-145"/>
			<point x="72" y="-187"/>
			<point x="34" y="-213" type="curve" smooth="yes"/>
			<point x="18" y="-224"/>
			<point x="15" y="-238"/>
			<point x="15" y="-250" type="curve" smooth="yes"/>
			<point x="15" y="-276"/>
			<point x="33" y="-291"/>
		</contour>
	</outline>
</glyph>
<glyph name="uSignSima-batak" format="2">
	<advance width="0"/>
	<unicode hex="1BEF"/>
	<anchor x="-554" y="830" name="top"/>
	<anchor x="-535" y="488" name="_top"/>
	<outline>
		<contour>
			<point x="-669" y="552" type="curve" smooth="yes"/>
			<point x="-660" y="552"/>
			<point x="-645" y="554"/>
			<point x="-638" y="559" type="curve" smooth="yes"/>
			<point x="-609" y="578"/>
			<point x="-553" y="610"/>
			<point x="-528" y="623" type="curve" smooth="yes"/>
			<point x="-502" y="636"/>
			<point x="-451" y="657"/>
			<point x="-418" y="665" type="curve" smooth="yes"/>
			<point x="-397" y="670"/>
			<point x="-391" y="689"/>
			<point x="-391" y="703" type="curve" smooth="yes"/>
			<point x="-391" y="724"/>
			<point x="-408" y="736"/>
			<point x="-428" y="736" type="curve" smooth="yes"/>
			<point x="-455" y="736"/>
			<point x="-511" y="713"/>
			<point x="-560" y="690" type="curve" smooth="yes"/>
			<point x="-617" y="663"/>
			<point x="-664" y="638"/>
			<point x="-679" y="625" type="curve" smooth="yes"/>
			<point x="-689" y="617"/>
			<point x="-705" y="606"/>
			<point x="-705" y="588" type="curve" smooth="yes"/>
			<point x="-705" y="567"/>
			<point x="-690" y="552"/>
		</contour>
	</outline>
</glyph>
<glyph name="ngSign-batak" format="2">
	<advance width="0"/>
	<unicode hex="1BF0"/>
	<anchor x="0" y="488" name="_topright"/>
	<anchor x="0" y="729" name="topright"/>
	<outline>
		<contour>
			<point x="-102" y="552" type="curve" smooth="yes"/>
			<point x="-83" y="552"/>
			<point x="-44" y="557"/>
			<point x="1" y="557" type="curve" smooth="yes"/>
			<point x="39" y="557"/>
			<point x="84" y="552"/>
			<point x="104" y="552" type="curve" smooth="yes"/>
			<point x="129" y="552"/>
			<point x="145" y="562"/>
			<point x="145" y="584" type="curve" smooth="yes"/>
			<point x="145" y="603"/>
			<point x="134" y="610"/>
			<point x="110" y="619" type="curve" smooth="yes"/>
			<point x="95" y="625"/>
			<point x="49" y="629"/>
			<point x="1" y="629" type="curve" smooth="yes"/>
			<point x="-53" y="629"/>
			<point x="-94" y="625"/>
			<point x="-109" y="619" type="curve" smooth="yes"/>
			<point x="-132" y="610"/>
			<point x="-143" y="603"/>
			<point x="-143" y="584" type="curve" smooth="yes"/>
			<point x="-143" y="562"/>
			<point x="-127" y="552"/>
		</contour>
	</outline>
</glyph>
<glyph name="hSign-batak" format="2">
	<advance width="0"/>
	<unicode hex="1BF1"/>
	<anchor x="0" y="508" name="_topright"/>
	<anchor x="0" y="868" name="topright"/>
	<outline>
		<contour>
			<point x="-95" y="691" type="curve" smooth="yes"/>
			<point x="-76" y="691"/>
			<point x="-46" y="696"/>
			<point x="-2" y="696" type="curve" smooth="yes"/>
			<point x="36" y="696"/>
			<point x="72" y="691"/>
			<point x="91" y="691" type="curve" smooth="yes"/>
			<point x="116" y="691"/>
			<point x="132" y="701"/>
			<point x="132" y="723" type="curve" smooth="yes"/>
			<point x="132" y="761"/>
			<point x="70" y="768"/>
			<point x="-2" y="768" type="curve" smooth="yes"/>
			<point x="-73" y="768"/>
			<point x="-136" y="762"/>
			<point x="-136" y="723" type="curve" smooth="yes"/>
			<point x="-136" y="701"/>
			<point x="-120" y="691"/>
		</contour>
		<contour>
			<point x="-95" y="552" type="curve" smooth="yes"/>
			<point x="-76" y="552"/>
			<point x="-46" y="557"/>
			<point x="-2" y="557" type="curve" smooth="yes"/>
			<point x="36" y="557"/>
			<point x="72" y="552"/>
			<point x="91" y="552" type="curve" smooth="yes"/>
			<point x="116" y="552"/>
			<point x="132" y="562"/>
			<point x="132" y="584" type="curve" smooth="yes"/>
			<point x="132" y="622"/>
			<point x="69" y="629"/>
			<point x="-2" y="629" type="curve" smooth="yes"/>
			<point x="-70" y="629"/>
			<point x="-136" y="624"/>
			<point x="-136" y="584" type="curve" smooth="yes"/>
			<point x="-136" y="562"/>
			<point x="-120" y="552"/>
		</contour>
	</outline>
</glyph>
<glyph name="pangolat-batak" format="2">
	<advance width="549"/>
	<unicode hex="1BF2"/>
	<outline>
		<contour>
			<point x="460" y="0" type="curve" smooth="yes"/>
			<point x="484" y="0"/>
			<point x="500" y="21"/>
			<point x="500" y="44" type="curve" smooth="yes"/>
			<point x="500" y="82"/>
			<point x="387" y="173"/>
			<point x="274" y="257" type="curve" smooth="yes"/>
			<point x="198" y="313"/>
			<point x="120" y="361"/>
			<point x="71" y="379" type="curve" smooth="yes"/>
			<point x="64" y="382"/>
			<point x="58" y="383"/>
			<point x="52" y="383" type="curve" smooth="yes"/>
			<point x="30" y="383"/>
			<point x="15" y="362"/>
			<point x="15" y="344" type="curve" smooth="yes"/>
			<point x="15" y="304"/>
			<point x="38" y="322"/>
			<point x="200" y="208" type="curve" smooth="yes"/>
			<point x="284" y="149"/>
			<point x="366" y="85"/>
			<point x="439" y="8" type="curve" smooth="yes"/>
			<point x="445" y="2"/>
			<point x="453" y="0"/>
		</contour>
	</outline>
</glyph>
<glyph name="panongonan-batak" format="2">
	<advance width="444"/>
	<unicode hex="1BF3"/>
	<outline>
		<contour>
			<point x="56" y="160" type="curve" smooth="yes"/>
			<point x="75" y="160"/>
			<point x="112" y="169"/>
			<point x="206" y="169" type="curve" smooth="yes"/>
			<point x="292" y="169"/>
			<point x="335" y="160"/>
			<point x="354" y="160" type="curve" smooth="yes"/>
			<point x="379" y="160"/>
			<point x="396" y="181"/>
			<point x="396" y="204" type="curve" smooth="yes"/>
			<point x="396" y="223"/>
			<point x="385" y="233"/>
			<point x="361" y="239" type="curve" smooth="yes"/>
			<point x="324" y="248"/>
			<point x="271" y="252"/>
			<point x="206" y="252" type="curve" smooth="yes"/>
			<point x="144" y="252"/>
			<point x="78" y="247"/>
			<point x="49" y="239" type="curve" smooth="yes"/>
			<point x="25" y="232"/>
			<point x="15" y="223"/>
			<point x="15" y="204" type="curve" smooth="yes"/>
			<point x="15" y="181"/>
			<point x="31" y="160"/>
		</contour>
	</outline>
</glyph>
<glyph name="binduNaMetek-batak" format="2">
	<advance width="1070"/>
	<unicode hex="1BFC"/>
	<outline>
		<contour>
			<point x="265" y="-124" type="curve" smooth="yes"/>
			<point x="291" y="-124"/>
			<point x="310" y="-107"/>
			<point x="310" y="-88" type="curve" smooth="yes"/>
			<point x="310" y="-66"/>
			<point x="298" y="-59"/>
			<point x="279" y="-53" type="curve" smooth="yes"/>
			<point x="250" y="-43"/>
			<point x="190" y="-23"/>
			<point x="190" y="9" type="curve" smooth="yes"/>
			<point x="190" y="37"/>
			<point x="213" y="54"/>
			<point x="248" y="73" type="curve" smooth="yes"/>
			<point x="312" y="108" type="line"/>
			<point x="355" y="67"/>
			<point x="427" y="13"/>
			<point x="527" y="13" type="curve" smooth="yes"/>
			<point x="634" y="13"/>
			<point x="700" y="65"/>
			<point x="750" y="113" type="curve"/>
			<point x="823" y="73" type="line" smooth="yes"/>
			<point x="857" y="54"/>
			<point x="880" y="37"/>
			<point x="880" y="9" type="curve" smooth="yes"/>
			<point x="880" y="-23"/>
			<point x="820" y="-43"/>
			<point x="792" y="-53" type="curve" smooth="yes"/>
			<point x="772" y="-60"/>
			<point x="761" y="-66"/>
			<point x="761" y="-88" type="curve" smooth="yes"/>
			<point x="761" y="-107"/>
			<point x="779" y="-124"/>
			<point x="806" y="-124" type="curve" smooth="yes"/>
			<point x="859" y="-124"/>
			<point x="963" y="-85"/>
			<point x="963" y="17" type="curve" smooth="yes"/>
			<point x="963" y="72"/>
			<point x="928" y="110"/>
			<point x="841" y="156" type="curve"/>
			<point x="898" y="180"/>
			<point x="963" y="214"/>
			<point x="963" y="276" type="curve" smooth="yes"/>
			<point x="963" y="338"/>
			<point x="900" y="371"/>
			<point x="835" y="398" type="curve"/>
			<point x="921" y="443"/>
			<point x="963" y="480"/>
			<point x="963" y="541" type="curve" smooth="yes"/>
			<point x="963" y="643"/>
			<point x="859" y="681"/>
			<point x="806" y="681" type="curve" smooth="yes"/>
			<point x="779" y="681"/>
			<point x="761" y="664"/>
			<point x="761" y="645" type="curve" smooth="yes"/>
			<point x="761" y="623"/>
			<point x="772" y="615"/>
			<point x="792" y="609" type="curve" smooth="yes"/>
			<point x="820" y="600"/>
			<point x="880" y="580"/>
			<point x="880" y="548" type="curve" smooth="yes"/>
			<point x="880" y="520"/>
			<point x="857" y="503"/>
			<point x="823" y="484" type="curve" smooth="yes"/>
			<point x="751" y="444" type="line"/>
			<point x="701" y="493"/>
			<point x="635" y="546"/>
			<point x="527" y="546" type="curve" smooth="yes"/>
			<point x="426" y="546"/>
			<point x="354" y="491"/>
			<point x="311" y="449" type="curve"/>
			<point x="248" y="484" type="line" smooth="yes"/>
			<point x="213" y="503"/>
			<point x="190" y="520"/>
			<point x="190" y="548" type="curve" smooth="yes"/>
			<point x="190" y="580"/>
			<point x="250" y="600"/>
			<point x="279" y="609" type="curve" smooth="yes"/>
			<point x="298" y="615"/>
			<point x="310" y="623"/>
			<point x="310" y="645" type="curve" smooth="yes"/>
			<point x="310" y="664"/>
			<point x="291" y="681"/>
			<point x="265" y="681" type="curve" smooth="yes"/>
			<point x="211" y="681"/>
			<point x="107" y="643"/>
			<point x="107" y="541" type="curve" smooth="yes"/>
			<point x="107" y="486"/>
			<point x="138" y="451"/>
			<point x="239" y="395" type="curve"/>
			<point x="173" y="368"/>
			<point x="107" y="336"/>
			<point x="107" y="272" type="curve" smooth="yes"/>
			<point x="107" y="212"/>
			<point x="169" y="177"/>
			<point x="225" y="154" type="curve"/>
			<point x="136" y="105"/>
			<point x="107" y="69"/>
			<point x="107" y="17" type="curve" smooth="yes"/>
			<point x="107" y="-85"/>
			<point x="211" y="-124"/>
		</contour>
		<contour>
			<point x="304" y="197" type="line"/>
			<point x="252" y="214"/>
			<point x="190" y="240"/>
			<point x="190" y="272" type="curve" smooth="yes"/>
			<point x="190" y="304"/>
			<point x="263" y="334"/>
			<point x="320" y="351" type="curve"/>
			<point x="451" y="278" type="line"/>
		</contour>
		<contour>
			<point x="527" y="91" type="curve" smooth="yes"/>
			<point x="463" y="91"/>
			<point x="413" y="126"/>
			<point x="382" y="148" type="curve"/>
			<point x="535" y="232" type="line"/>
			<point x="681" y="151" type="line"/>
			<point x="645" y="126"/>
			<point x="593" y="91"/>
		</contour>
		<contour>
			<point x="535" y="325" type="line"/>
			<point x="381" y="410" type="line"/>
			<point x="412" y="432"/>
			<point x="462" y="468"/>
			<point x="527" y="468" type="curve" smooth="yes"/>
			<point x="593" y="468"/>
			<point x="646" y="432"/>
			<point x="682" y="406" type="curve"/>
		</contour>
		<contour>
			<point x="761" y="200" type="curve"/>
			<point x="620" y="278" type="line"/>
			<point x="755" y="354" type="line"/>
			<point x="811" y="336"/>
			<point x="880" y="308"/>
			<point x="880" y="276" type="curve" smooth="yes"/>
			<point x="880" y="243"/>
			<point x="813" y="217"/>
		</contour>
	</outline>
</glyph>
<glyph name="binduPinarboras-batak" format="2">
	<advance width="1107"/>
	<unicode hex="1BFD"/>
	<outline>
		<contour>
			<point x="554" y="-124" type="curve"/>
			<point x="604" y="-92"/>
			<point x="704" y="-9"/>
			<point x="704" y="125" type="curve" smooth="yes"/>
			<point x="704" y="141"/>
			<point x="701" y="158"/>
			<point x="696" y="173" type="curve"/>
			<point x="712" y="169"/>
			<point x="729" y="168"/>
			<point x="746" y="168" type="curve" smooth="yes"/>
			<point x="879" y="168"/>
			<point x="959" y="261"/>
			<point x="995" y="317" type="curve"/>
			<point x="962" y="367"/>
			<point x="879" y="467"/>
			<point x="746" y="467" type="curve" smooth="yes"/>
			<point x="729" y="467"/>
			<point x="712" y="464"/>
			<point x="696" y="459" type="curve"/>
			<point x="701" y="475"/>
			<point x="704" y="492"/>
			<point x="704" y="509" type="curve" smooth="yes"/>
			<point x="704" y="643"/>
			<point x="604" y="726"/>
			<point x="554" y="758" type="curve"/>
			<point x="498" y="723"/>
			<point x="404" y="643"/>
			<point x="404" y="509" type="curve" smooth="yes"/>
			<point x="404" y="492"/>
			<point x="406" y="475"/>
			<point x="410" y="460" type="curve"/>
			<point x="395" y="464"/>
			<point x="378" y="467"/>
			<point x="361" y="467" type="curve" smooth="yes"/>
			<point x="228" y="467"/>
			<point x="145" y="367"/>
			<point x="112" y="317" type="curve"/>
			<point x="148" y="261"/>
			<point x="228" y="168"/>
			<point x="361" y="168" type="curve" smooth="yes"/>
			<point x="378" y="168"/>
			<point x="395" y="169"/>
			<point x="410" y="173" type="curve"/>
			<point x="406" y="158"/>
			<point x="404" y="142"/>
			<point x="404" y="125" type="curve" smooth="yes"/>
			<point x="404" y="-9"/>
			<point x="498" y="-89"/>
		</contour>
		<contour>
			<point x="554" y="-27" type="curve"/>
			<point x="531" y="-10"/>
			<point x="482" y="44"/>
			<point x="482" y="123" type="curve" smooth="yes"/>
			<point x="482" y="184"/>
			<point x="533" y="244"/>
			<point x="555" y="266" type="curve"/>
			<point x="590" y="235"/>
			<point x="625" y="186"/>
			<point x="625" y="123" type="curve" smooth="yes"/>
			<point x="625" y="45"/>
			<point x="574" y="-11"/>
		</contour>
		<contour>
			<point x="360" y="246" type="curve" smooth="yes"/>
			<point x="281" y="246"/>
			<point x="227" y="294"/>
			<point x="210" y="317" type="curve"/>
			<point x="226" y="337"/>
			<point x="282" y="389"/>
			<point x="360" y="389" type="curve" smooth="yes"/>
			<point x="418" y="389"/>
			<point x="466" y="359"/>
			<point x="502" y="318" type="curve"/>
			<point x="480" y="296"/>
			<point x="420" y="246"/>
		</contour>
		<contour>
			<point x="556" y="367" type="curve"/>
			<point x="534" y="389"/>
			<point x="482" y="449"/>
			<point x="482" y="511" type="curve" smooth="yes"/>
			<point x="482" y="589"/>
			<point x="531" y="644"/>
			<point x="554" y="661" type="curve"/>
			<point x="574" y="645"/>
			<point x="625" y="589"/>
			<point x="625" y="511" type="curve" smooth="yes"/>
			<point x="625" y="453"/>
			<point x="597" y="407"/>
		</contour>
		<contour>
			<point x="748" y="246" type="curve" smooth="yes"/>
			<point x="686" y="246"/>
			<point x="625" y="297"/>
			<point x="604" y="319" type="curve"/>
			<point x="645" y="361"/>
			<point x="690" y="389"/>
			<point x="748" y="389" type="curve" smooth="yes"/>
			<point x="826" y="389"/>
			<point x="881" y="337"/>
			<point x="897" y="317" type="curve"/>
			<point x="881" y="294"/>
			<point x="826" y="246"/>
		</contour>
	</outline>
</glyph>
<glyph name="binduJudul-batak" format="2">
	<advance width="851"/>
	<unicode hex="1BFE"/>
	<outline>
		<contour>
			<point x="173" y="-115" type="curve" smooth="yes"/>
			<point x="223" y="-115"/>
			<point x="324" y="-37"/>
			<point x="324" y="95" type="curve" smooth="yes"/>
			<point x="324" y="149"/>
			<point x="309" y="204"/>
			<point x="287" y="254" type="curve" smooth="yes"/>
			<point x="246" y="346" type="line" smooth="yes"/>
			<point x="231" y="379"/>
			<point x="217" y="418"/>
			<point x="217" y="470" type="curve" smooth="yes"/>
			<point x="217" y="593"/>
			<point x="313" y="604"/>
			<point x="313" y="639" type="curve" smooth="yes"/>
			<point x="313" y="669"/>
			<point x="291" y="681"/>
			<point x="272" y="681" type="curve" smooth="yes"/>
			<point x="223" y="681"/>
			<point x="122" y="603"/>
			<point x="122" y="471" type="curve" smooth="yes"/>
			<point x="122" y="418"/>
			<point x="137" y="363"/>
			<point x="159" y="313" type="curve" smooth="yes"/>
			<point x="200" y="220" type="line" smooth="yes"/>
			<point x="215" y="187"/>
			<point x="229" y="149"/>
			<point x="229" y="97" type="curve" smooth="yes"/>
			<point x="229" y="-26"/>
			<point x="133" y="-37"/>
			<point x="133" y="-73" type="curve" smooth="yes"/>
			<point x="133" y="-102"/>
			<point x="155" y="-115"/>
		</contour>
		<contour>
			<point x="383" y="-115" type="curve" smooth="yes"/>
			<point x="433" y="-115"/>
			<point x="534" y="-37"/>
			<point x="534" y="95" type="curve" smooth="yes"/>
			<point x="534" y="149"/>
			<point x="519" y="204"/>
			<point x="497" y="254" type="curve" smooth="yes"/>
			<point x="456" y="346" type="line" smooth="yes"/>
			<point x="441" y="379"/>
			<point x="427" y="418"/>
			<point x="427" y="470" type="curve" smooth="yes"/>
			<point x="427" y="593"/>
			<point x="522" y="604"/>
			<point x="522" y="639" type="curve" smooth="yes"/>
			<point x="522" y="669"/>
			<point x="501" y="681"/>
			<point x="482" y="681" type="curve" smooth="yes"/>
			<point x="433" y="681"/>
			<point x="332" y="603"/>
			<point x="332" y="471" type="curve" smooth="yes"/>
			<point x="332" y="418"/>
			<point x="347" y="363"/>
			<point x="369" y="313" type="curve" smooth="yes"/>
			<point x="410" y="220" type="line" smooth="yes"/>
			<point x="425" y="187"/>
			<point x="439" y="149"/>
			<point x="439" y="97" type="curve" smooth="yes"/>
			<point x="439" y="-26"/>
			<point x="343" y="-37"/>
			<point x="343" y="-73" type="curve" smooth="yes"/>
			<point x="343" y="-102"/>
			<point x="365" y="-115"/>
		</contour>
		<contour>
			<point x="579" y="-115" type="curve" smooth="yes"/>
			<point x="628" y="-115"/>
			<point x="729" y="-37"/>
			<point x="729" y="95" type="curve" smooth="yes"/>
			<point x="729" y="149"/>
			<point x="714" y="204"/>
			<point x="692" y="254" type="curve" smooth="yes"/>
			<point x="651" y="346" type="line" smooth="yes"/>
			<point x="636" y="379"/>
			<point x="622" y="418"/>
			<point x="622" y="470" type="curve" smooth="yes"/>
			<point x="622" y="593"/>
			<point x="718" y="604"/>
			<point x="718" y="639" type="curve" smooth="yes"/>
			<point x="718" y="669"/>
			<point x="696" y="681"/>
			<point x="678" y="681" type="curve" smooth="yes"/>
			<point x="628" y="681"/>
			<point x="527" y="603"/>
			<point x="527" y="471" type="curve" smooth="yes"/>
			<point x="527" y="418"/>
			<point x="542" y="362"/>
			<point x="564" y="313" type="curve" smooth="yes"/>
			<point x="605" y="220" type="line" smooth="yes"/>
			<point x="620" y="186"/>
			<point x="634" y="149"/>
			<point x="634" y="97" type="curve" smooth="yes"/>
			<point x="634" y="-26"/>
			<point x="539" y="-37"/>
			<point x="539" y="-73" type="curve" smooth="yes"/>
			<point x="539" y="-102"/>
			<point x="560" y="-115"/>
		</contour>
	</outline>
</glyph>
<glyph name="binduPangolat-batak" format="2">
	<advance width="495"/>
	<unicode hex="1BFF"/>
	<outline>
		<contour>
			<point x="-55" y="-275" type="curve" smooth="yes"/>
			<point x="-29" y="-275"/>
			<point x="7" y="-265"/>
			<point x="33" y="-256" type="curve" smooth="yes"/>
			<point x="199" y="-196"/>
			<point x="385" y="-61"/>
			<point x="385" y="223" type="curve" smooth="yes"/>
			<point x="385" y="483"/>
			<point x="224" y="637"/>
			<point x="40" y="700" type="curve" smooth="yes"/>
			<point x="7" y="711"/>
			<point x="-36" y="721"/>
			<point x="-60" y="721" type="curve" smooth="yes"/>
			<point x="-97" y="721"/>
			<point x="-110" y="697"/>
			<point x="-110" y="677" type="curve" smooth="yes"/>
			<point x="-110" y="652"/>
			<point x="-89" y="639"/>
			<point x="-67" y="635" type="curve" smooth="yes"/>
			<point x="-29" y="628"/>
			<point x="-1" y="621"/>
			<point x="17" y="615" type="curve" smooth="yes"/>
			<point x="160" y="568"/>
			<point x="297" y="421"/>
			<point x="297" y="223" type="curve" smooth="yes"/>
			<point x="297" y="2"/>
			<point x="161" y="-120"/>
			<point x="17" y="-169" type="curve" smooth="yes"/>
			<point x="-19" y="-181"/>
			<point x="-57" y="-187"/>
			<point x="-73" y="-190" type="curve" smooth="yes"/>
			<point x="-88" y="-193"/>
			<point x="-110" y="-204"/>
			<point x="-110" y="-230" type="curve" smooth="yes"/>
			<point x="-110" y="-249"/>
			<point x="-97" y="-275"/>
		</contour>
	</outline>
</glyph>
<glyph name="dottedCircle" format="2">
	<advance width="594"/>
	<unicode hex="25CC"/>
	<anchor x="300" y="580" name="top"/>
	<anchor x="590" y="585" name="topright"/>
	<anchor x="-10" y="585" name="topleft"/>
	<anchor x="491" y="0" name="bottomright"/>
	<note>
		uni25CC
	</note>
	<outline>
		<contour>
			<point x="480" y="448" type="curve" smooth="yes"/>
			<point x="480" y="466"/>
			<point x="472" y="475"/>
			<point x="455" y="475" type="curve" smooth="yes"/>
			<point x="437" y="475"/>
			<point x="428" y="466"/>
			<point x="428" y="448" type="curve" smooth="yes"/>
			<point x="428" y="431"/>
			<point x="437" y="422"/>
			<point x="455" y="422" type="curve" smooth="yes"/>
			<point x="472" y="422"/>
			<point x="480" y="431"/>
		</contour>
		<contour>
			<point x="408" y="496" type="curve" smooth="yes"/>
			<point x="408" y="514"/>
			<point x="400" y="523"/>
			<point x="383" y="523" type="curve" smooth="yes"/>
			<point x="364" y="523"/>
			<point x="355" y="514"/>
			<point x="355" y="496" type="curve" smooth="yes"/>
			<point x="355" y="479"/>
			<point x="364" y="470"/>
			<point x="383" y="470" type="curve" smooth="yes"/>
			<point x="400" y="470"/>
			<point x="408" y="479"/>
		</contour>
		<contour>
			<point x="529" y="376" type="curve" smooth="yes"/>
			<point x="529" y="393"/>
			<point x="520" y="402"/>
			<point x="503" y="402" type="curve" smooth="yes"/>
			<point x="485" y="402"/>
			<point x="476" y="393"/>
			<point x="476" y="376" type="curve" smooth="yes"/>
			<point x="476" y="358"/>
			<point x="485" y="349"/>
			<point x="502" y="349" type="curve" smooth="yes"/>
			<point x="520" y="349"/>
			<point x="529" y="358"/>
		</contour>
		<contour>
			<point x="546" y="291" type="curve" smooth="yes"/>
			<point x="546" y="308"/>
			<point x="538" y="317"/>
			<point x="521" y="317" type="curve" smooth="yes"/>
			<point x="503" y="317"/>
			<point x="494" y="308"/>
			<point x="494" y="291" type="curve" smooth="yes"/>
			<point x="494" y="274"/>
			<point x="503" y="265"/>
			<point x="521" y="265" type="curve" smooth="yes"/>
			<point x="538" y="265"/>
			<point x="546" y="274"/>
		</contour>
		<contour>
			<point x="323" y="514" type="curve" smooth="yes"/>
			<point x="323" y="531"/>
			<point x="314" y="540"/>
			<point x="297" y="540" type="curve" smooth="yes"/>
			<point x="280" y="540"/>
			<point x="271" y="531"/>
			<point x="271" y="514" type="curve" smooth="yes"/>
			<point x="271" y="496"/>
			<point x="280" y="487"/>
			<point x="297" y="487" type="curve" smooth="yes"/>
			<point x="314" y="487"/>
			<point x="323" y="496"/>
		</contour>
		<contour>
			<point x="239" y="496" type="curve" smooth="yes"/>
			<point x="239" y="514"/>
			<point x="230" y="523"/>
			<point x="212" y="523" type="curve" smooth="yes"/>
			<point x="195" y="523"/>
			<point x="186" y="514"/>
			<point x="186" y="496" type="curve" smooth="yes"/>
			<point x="186" y="479"/>
			<point x="195" y="470"/>
			<point x="212" y="470" type="curve" smooth="yes"/>
			<point x="230" y="470"/>
			<point x="239" y="479"/>
		</contour>
		<contour>
			<point x="529" y="206" type="curve" smooth="yes"/>
			<point x="529" y="224"/>
			<point x="520" y="233"/>
			<point x="502" y="233" type="curve" smooth="yes"/>
			<point x="485" y="233"/>
			<point x="476" y="224"/>
			<point x="476" y="206" type="curve" smooth="yes"/>
			<point x="476" y="189"/>
			<point x="485" y="180"/>
			<point x="502" y="180" type="curve" smooth="yes"/>
			<point x="520" y="180"/>
			<point x="529" y="189"/>
		</contour>
		<contour>
			<point x="167" y="448" type="curve" smooth="yes"/>
			<point x="167" y="466"/>
			<point x="158" y="475"/>
			<point x="140" y="475" type="curve" smooth="yes"/>
			<point x="123" y="475"/>
			<point x="114" y="466"/>
			<point x="114" y="447" type="curve" smooth="yes"/>
			<point x="114" y="430"/>
			<point x="123" y="422"/>
			<point x="140" y="422" type="curve" smooth="yes"/>
			<point x="158" y="422"/>
			<point x="167" y="431"/>
		</contour>
		<contour>
			<point x="480" y="133" type="curve" smooth="yes"/>
			<point x="480" y="151"/>
			<point x="472" y="160"/>
			<point x="455" y="160" type="curve" smooth="yes"/>
			<point x="437" y="160"/>
			<point x="428" y="151"/>
			<point x="428" y="133" type="curve" smooth="yes"/>
			<point x="428" y="116"/>
			<point x="437" y="107"/>
			<point x="455" y="107" type="curve" smooth="yes"/>
			<point x="472" y="107"/>
			<point x="480" y="116"/>
		</contour>
		<contour>
			<point x="408" y="85" type="curve" smooth="yes"/>
			<point x="408" y="103"/>
			<point x="400" y="112"/>
			<point x="383" y="112" type="curve" smooth="yes"/>
			<point x="364" y="112"/>
			<point x="355" y="103"/>
			<point x="355" y="85" type="curve" smooth="yes"/>
			<point x="355" y="68"/>
			<point x="364" y="60"/>
			<point x="383" y="60" type="curve" smooth="yes"/>
			<point x="400" y="60"/>
			<point x="408" y="68"/>
		</contour>
		<contour>
			<point x="118" y="376" type="curve" smooth="yes"/>
			<point x="118" y="393"/>
			<point x="109" y="402"/>
			<point x="92" y="402" type="curve" smooth="yes"/>
			<point x="74" y="402"/>
			<point x="65" y="393"/>
			<point x="65" y="376" type="curve" smooth="yes"/>
			<point x="65" y="358"/>
			<point x="74" y="349"/>
			<point x="93" y="349" type="curve" smooth="yes"/>
			<point x="110" y="349"/>
			<point x="118" y="358"/>
		</contour>
		<contour>
			<point x="101" y="291" type="curve" smooth="yes"/>
			<point x="101" y="308"/>
			<point x="92" y="317"/>
			<point x="75" y="317" type="curve" smooth="yes"/>
			<point x="57" y="317"/>
			<point x="48" y="308"/>
			<point x="48" y="291" type="curve" smooth="yes"/>
			<point x="48" y="274"/>
			<point x="57" y="265"/>
			<point x="75" y="265" type="curve" smooth="yes"/>
			<point x="92" y="265"/>
			<point x="101" y="274"/>
		</contour>
		<contour>
			<point x="323" y="69" type="curve" smooth="yes"/>
			<point x="323" y="86"/>
			<point x="314" y="95"/>
			<point x="297" y="95" type="curve" smooth="yes"/>
			<point x="280" y="95"/>
			<point x="271" y="86"/>
			<point x="271" y="69" type="curve" smooth="yes"/>
			<point x="271" y="51"/>
			<point x="280" y="42"/>
			<point x="297" y="42" type="curve" smooth="yes"/>
			<point x="314" y="42"/>
			<point x="323" y="51"/>
		</contour>
		<contour>
			<point x="118" y="206" type="curve" smooth="yes"/>
			<point x="118" y="224"/>
			<point x="109" y="233"/>
			<point x="92" y="233" type="curve" smooth="yes"/>
			<point x="74" y="233"/>
			<point x="65" y="224"/>
			<point x="65" y="206" type="curve" smooth="yes"/>
			<point x="65" y="189"/>
			<point x="74" y="180"/>
			<point x="92" y="180" type="curve" smooth="yes"/>
			<point x="109" y="180"/>
			<point x="118" y="189"/>
		</contour>
		<contour>
			<point x="239" y="87" type="curve" smooth="yes"/>
			<point x="239" y="104"/>
			<point x="230" y="112"/>
			<point x="212" y="112" type="curve" smooth="yes"/>
			<point x="195" y="112"/>
			<point x="186" y="103"/>
			<point x="186" y="85" type="curve" smooth="yes"/>
			<point x="186" y="68"/>
			<point x="195" y="60"/>
			<point x="212" y="60" type="curve" smooth="yes"/>
			<point x="230" y="60"/>
			<point x="239" y="69"/>
		</contour>
		<contour>
			<point x="167" y="133" type="curve" smooth="yes"/>
			<point x="167" y="151"/>
			<point x="158" y="160"/>
			<point x="140" y="160" type="curve" smooth="yes"/>
			<point x="123" y="160"/>
			<point x="114" y="151"/>
			<point x="114" y="133" type="curve" smooth="yes"/>
			<point x="114" y="116"/>
			<point x="123" y="107"/>
			<point x="140" y="107" type="curve" smooth="yes"/>
			<point x="158" y="107"/>
			<point x="167" y="116"/>
		</contour>
	</outline>
</glyph>
<glyph name=".notdef" format="2">
	<advance width="500"/>
	<outline>
		<contour>
			<point x="63" y="0" type="line"/>
			<point x="438" y="0" type="line"/>
			<point x="438" y="800" type="line"/>
			<point x="63" y="800" type="line"/>
			<point x="63" y="0" type="line"/>
		</contour>
		<contour>
			<point x="125" y="63" type="line"/>
			<point x="125" y="738" type="line"/>
			<point x="375" y="738" type="line"/>
			<point x="375" y="63" type="line"/>
			<point x="125" y="63" type="line"/>
		</contour>
	</outline>
</glyph>
<glyph name="a_uSign-batak" format="2">
	<advance width="1126"/>
	<anchor x="227" y="536" name="topleft"/>
	<anchor x="837" y="536" name="topright"/>
	<outline>
		<contour>
			<point x="850" y="-63" type="curve" smooth="yes"/>
			<point x="826" y="-51"/>
			<point x="778" y="-31"/>
			<point x="736" y="-1" type="curve"/>
			<point x="825" y="24"/>
			<point x="922" y="36"/>
			<point x="1073" y="46" type="curve"/>
			<point x="1059" y="241"/>
			<point x="1015" y="427"/>
			<point x="822" y="427" type="curve" smooth="yes"/>
			<point x="738" y="427"/>
			<point x="685" y="378"/>
			<point x="609" y="310" type="curve" smooth="yes"/>
			<point x="488" y="201" type="line" smooth="yes"/>
			<point x="445" y="162"/>
			<point x="375" y="107"/>
			<point x="309" y="107" type="curve" smooth="yes"/>
			<point x="245" y="107"/>
			<point x="198" y="169"/>
			<point x="134" y="250" type="curve" smooth="yes"/>
			<point x="125" y="261"/>
			<point x="116" y="266"/>
			<point x="106" y="266" type="curve" smooth="yes"/>
			<point x="82" y="266"/>
			<point x="54" y="244"/>
			<point x="54" y="220" type="curve" smooth="yes"/>
			<point x="54" y="207"/>
			<point x="58" y="199"/>
			<point x="62" y="194" type="curve" smooth="yes"/>
			<point x="143" y="90"/>
			<point x="194" y="20"/>
			<point x="312" y="20" type="curve" smooth="yes"/>
			<point x="397" y="20"/>
			<point x="472" y="63"/>
			<point x="536" y="120" type="curve" smooth="yes"/>
			<point x="649" y="220" type="line" smooth="yes"/>
			<point x="689" y="255"/>
			<point x="768" y="339"/>
			<point x="822" y="339" type="curve" smooth="yes"/>
			<point x="918" y="339"/>
			<point x="951" y="242"/>
			<point x="971" y="125" type="curve"/>
			<point x="830" y="116"/>
			<point x="632" y="101"/>
			<point x="632" y="15" type="curve" smooth="yes"/>
			<point x="632" y="-76"/>
			<point x="818" y="-146"/>
			<point x="857" y="-146" type="curve" smooth="yes"/>
			<point x="879" y="-146"/>
			<point x="897" y="-132"/>
			<point x="897" y="-112" type="curve" smooth="yes"/>
			<point x="897" y="-94"/>
			<point x="882" y="-79"/>
		</contour>
	</outline>
</glyph>
<glyph name="ba_uSign-batak" format="2">
	<advance width="1145"/>
	<anchor x="227" y="536" name="topleft"/>
	<anchor x="837" y="536" name="topright"/>
	<outline>
		<contour>
			<point x="857" y="48" type="line"/>
			<point x="858" y="47"/>
			<point x="859" y="47"/>
			<point x="860" y="46" type="curve" smooth="yes"/>
			<point x="901" y="19"/>
			<point x="959" y="-23"/>
			<point x="999" y="-71" type="curve"/>
			<point x="960" y="-116"/>
			<point x="898" y="-158"/>
			<point x="860" y="-184" type="curve" smooth="yes"/>
			<point x="844" y="-195"/>
			<point x="841" y="-209"/>
			<point x="841" y="-221" type="curve" smooth="yes"/>
			<point x="841" y="-247"/>
			<point x="859" y="-262"/>
			<point x="881" y="-262" type="curve" smooth="yes"/>
			<point x="920" y="-262"/>
			<point x="1096" y="-114"/>
			<point x="1096" y="-70" type="curve" smooth="yes"/>
			<point x="1096" y="-32"/>
			<point x="969" y="81"/>
			<point x="907" y="114" type="curve"/>
		</contour>
		<contour>
			<point x="263" y="-10" type="curve" smooth="yes"/>
			<point x="319" y="-10"/>
			<point x="359" y="10"/>
			<point x="540" y="122" type="curve"/>
			<point x="721" y="10"/>
			<point x="760" y="-10"/>
			<point x="816" y="-10" type="curve" smooth="yes"/>
			<point x="918" y="-10"/>
			<point x="1012" y="52"/>
			<point x="1012" y="192" type="curve" smooth="yes"/>
			<point x="1012" y="402"/>
			<point x="790" y="479"/>
			<point x="540" y="479" type="curve" smooth="yes"/>
			<point x="290" y="479"/>
			<point x="68" y="402"/>
			<point x="68" y="192" type="curve" smooth="yes"/>
			<point x="68" y="52"/>
			<point x="161" y="-10"/>
		</contour>
		<contour>
			<point x="262" y="78" type="curve" smooth="yes"/>
			<point x="182" y="78"/>
			<point x="163" y="153"/>
			<point x="163" y="199" type="curve" smooth="yes"/>
			<point x="163" y="349"/>
			<point x="360" y="391"/>
			<point x="540" y="391" type="curve" smooth="yes"/>
			<point x="720" y="391"/>
			<point x="917" y="349"/>
			<point x="917" y="199" type="curve" smooth="yes"/>
			<point x="917" y="153"/>
			<point x="898" y="78"/>
			<point x="818" y="78" type="curve" smooth="yes"/>
			<point x="777" y="78"/>
			<point x="732" y="109"/>
			<point x="643" y="166" type="curve" smooth="yes"/>
			<point x="585" y="204"/>
			<point x="558" y="210"/>
			<point x="540" y="210" type="curve" smooth="yes"/>
			<point x="522" y="210"/>
			<point x="493" y="204"/>
			<point x="435" y="166" type="curve" smooth="yes"/>
			<point x="347" y="108"/>
			<point x="303" y="78"/>
		</contour>
	</outline>
</glyph>
<glyph name="ga_uSign-batak" format="2">
	<advance width="941"/>
	<anchor x="148" y="536" name="topleft"/>
	<anchor x="758" y="536" name="topright"/>
	<outline>
		<contour>
			<point x="826" y="30" type="curve" smooth="yes"/>
			<point x="801" y="43"/>
			<point x="740" y="77"/>
			<point x="696" y="117" type="curve"/>
			<point x="709" y="133"/>
			<point x="723" y="148"/>
			<point x="737" y="162" type="curve" smooth="yes"/>
			<point x="770" y="195"/>
			<point x="799" y="221"/>
			<point x="840" y="251" type="curve" smooth="yes"/>
			<point x="868" y="271"/>
			<point x="877" y="283"/>
			<point x="877" y="308" type="curve" smooth="yes"/>
			<point x="877" y="327"/>
			<point x="868" y="341"/>
			<point x="829" y="361" type="curve" smooth="yes"/>
			<point x="766" y="393"/>
			<point x="642" y="427"/>
			<point x="465" y="427" type="curve" smooth="yes"/>
			<point x="312" y="427"/>
			<point x="190" y="384"/>
			<point x="107" y="346" type="curve" smooth="yes"/>
			<point x="62" y="326"/>
			<point x="53" y="308"/>
			<point x="53" y="289" type="curve" smooth="yes"/>
			<point x="53" y="273"/>
			<point x="66" y="251"/>
			<point x="87" y="251" type="curve" smooth="yes"/>
			<point x="107" y="251"/>
			<point x="135" y="264"/>
			<point x="170" y="278" type="curve" smooth="yes"/>
			<point x="200" y="290"/>
			<point x="310" y="339"/>
			<point x="465" y="339" type="curve" smooth="yes"/>
			<point x="615" y="339"/>
			<point x="696" y="317"/>
			<point x="754" y="288" type="curve"/>
			<point x="697" y="245"/>
			<point x="651" y="205"/>
			<point x="617" y="164" type="curve" smooth="yes"/>
			<point x="608" y="153"/>
			<point x="598" y="139"/>
			<point x="598" y="122" type="curve" smooth="yes"/>
			<point x="598" y="48"/>
			<point x="787" y="-58"/>
			<point x="836" y="-58" type="curve" smooth="yes"/>
			<point x="854" y="-58"/>
			<point x="869" y="-38"/>
			<point x="869" y="-19" type="curve" smooth="yes"/>
			<point x="869" y="0"/>
			<point x="853" y="16"/>
		</contour>
	</outline>
</glyph>
<glyph name="haMandai_uSign-batak" format="2">
	<advance width="1058"/>
	<anchor x="565" y="536" name="top"/>
	<anchor x="217" y="536" name="topleft"/>
	<anchor x="827" y="536" name="topright"/>
	<outline>
		<contour>
			<point x="308" y="-15" type="curve" smooth="yes"/>
			<point x="325" y="-15"/>
			<point x="332" y="-7"/>
			<point x="340" y="5" type="curve" smooth="yes"/>
			<point x="390" y="82"/>
			<point x="469" y="181"/>
			<point x="520" y="233" type="curve" smooth="yes"/>
			<point x="528" y="241"/>
			<point x="530" y="251"/>
			<point x="530" y="260" type="curve" smooth="yes"/>
			<point x="530" y="284"/>
			<point x="507" y="302"/>
			<point x="484" y="302" type="curve" smooth="yes"/>
			<point x="471" y="302"/>
			<point x="459" y="294"/>
			<point x="445" y="280" type="curve" smooth="yes"/>
			<point x="377" y="213"/>
			<point x="284" y="90"/>
			<point x="265" y="53" type="curve" smooth="yes"/>
			<point x="261" y="45"/>
			<point x="256" y="39"/>
			<point x="256" y="28" type="curve" smooth="yes"/>
			<point x="256" y="3"/>
			<point x="287" y="-15"/>
		</contour>
		<contour>
			<point x="722" y="-32" type="curve"/>
			<point x="746" y="21"/>
			<point x="762" y="44"/>
			<point x="806" y="106" type="curve" smooth="yes"/>
			<point x="843" y="158"/>
			<point x="856" y="171"/>
			<point x="955" y="283" type="curve" smooth="yes"/>
			<point x="986" y="319"/>
			<point x="994" y="333"/>
			<point x="994" y="357" type="curve" smooth="yes"/>
			<point x="994" y="380"/>
			<point x="969" y="399"/>
			<point x="958" y="405" type="curve" smooth="yes"/>
			<point x="835" y="474"/>
			<point x="644" y="479"/>
			<point x="527" y="479" type="curve" smooth="yes"/>
			<point x="446" y="479"/>
			<point x="244" y="470"/>
			<point x="72" y="386" type="curve" smooth="yes"/>
			<point x="57" y="379"/>
			<point x="54" y="364"/>
			<point x="54" y="352" type="curve" smooth="yes"/>
			<point x="54" y="330"/>
			<point x="68" y="307"/>
			<point x="92" y="307" type="curve" smooth="yes"/>
			<point x="99" y="307"/>
			<point x="106" y="310"/>
			<point x="115" y="313" type="curve" smooth="yes"/>
			<point x="302" y="385"/>
			<point x="415" y="391"/>
			<point x="527" y="391" type="curve" smooth="yes"/>
			<point x="655" y="391"/>
			<point x="773" y="385"/>
			<point x="895" y="341" type="curve"/>
			<point x="826" y="270"/>
			<point x="768" y="200"/>
			<point x="717" y="125" type="curve" smooth="yes"/>
			<point x="663" y="46"/>
			<point x="628" y="-7"/>
			<point x="628" y="-37" type="curve" smooth="yes"/>
			<point x="628" y="-113"/>
			<point x="841" y="-182"/>
			<point x="880" y="-182" type="curve" smooth="yes"/>
			<point x="899" y="-182"/>
			<point x="920" y="-166"/>
			<point x="920" y="-141" type="curve" smooth="yes"/>
			<point x="920" y="-122"/>
			<point x="907" y="-106"/>
			<point x="888" y="-100" type="curve" smooth="yes"/>
			<point x="844" y="-86"/>
			<point x="773" y="-64"/>
		</contour>
	</outline>
</glyph>
<glyph name="ha_uSign-batak" format="2">
	<advance width="1040"/>
	<anchor x="586" y="536" name="top"/>
	<anchor x="305" y="536" name="topleft"/>
	<anchor x="915" y="536" name="topright"/>
	<outline>
		<contour>
			<point x="780" y="32" type="curve"/>
			<point x="857" y="131"/>
			<point x="976" y="223"/>
			<point x="976" y="350" type="curve" smooth="yes"/>
			<point x="976" y="438"/>
			<point x="894" y="479"/>
			<point x="791" y="479" type="curve" smooth="yes"/>
			<point x="698" y="479"/>
			<point x="622" y="451"/>
			<point x="561" y="414" type="curve"/>
			<point x="478" y="465"/>
			<point x="393" y="479"/>
			<point x="334" y="479" type="curve" smooth="yes"/>
			<point x="269" y="479"/>
			<point x="171" y="466"/>
			<point x="71" y="397" type="curve" smooth="yes"/>
			<point x="56" y="387"/>
			<point x="54" y="374"/>
			<point x="54" y="364" type="curve" smooth="yes"/>
			<point x="54" y="347"/>
			<point x="69" y="322"/>
			<point x="90" y="322" type="curve" smooth="yes"/>
			<point x="94" y="322"/>
			<point x="99" y="324"/>
			<point x="104" y="326" type="curve" smooth="yes"/>
			<point x="203" y="377"/>
			<point x="248" y="391"/>
			<point x="334" y="391" type="curve" smooth="yes"/>
			<point x="398" y="391"/>
			<point x="433" y="383"/>
			<point x="483" y="357" type="curve"/>
			<point x="416" y="314"/>
			<point x="216" y="71"/>
			<point x="216" y="30" type="curve" smooth="yes"/>
			<point x="216" y="9"/>
			<point x="245" y="-15"/>
			<point x="270" y="-15" type="curve" smooth="yes"/>
			<point x="283" y="-15"/>
			<point x="290" y="-8"/>
			<point x="297" y="0" type="curve" smooth="yes"/>
			<point x="354" y="70"/>
			<point x="522" y="391"/>
			<point x="777" y="391" type="curve" smooth="yes"/>
			<point x="853" y="391"/>
			<point x="881" y="364"/>
			<point x="881" y="335" type="curve" smooth="yes"/>
			<point x="881" y="207"/>
			<point x="676" y="78"/>
			<point x="676" y="26" type="curve" smooth="yes"/>
			<point x="676" y="7"/>
			<point x="701" y="-10"/>
			<point x="734" y="-37" type="curve" smooth="yes"/>
			<point x="774" y="-71"/>
			<point x="785" y="-80"/>
			<point x="834" y="-128" type="curve"/>
			<point x="795" y="-173"/>
			<point x="733" y="-215"/>
			<point x="695" y="-241" type="curve" smooth="yes"/>
			<point x="679" y="-252"/>
			<point x="676" y="-266"/>
			<point x="676" y="-278" type="curve" smooth="yes"/>
			<point x="676" y="-304"/>
			<point x="694" y="-319"/>
			<point x="716" y="-319" type="curve" smooth="yes"/>
			<point x="755" y="-319"/>
			<point x="931" y="-171"/>
			<point x="931" y="-127" type="curve" smooth="yes"/>
			<point x="931" y="-96"/>
			<point x="845" y="-14"/>
		</contour>
	</outline>
</glyph>
<glyph name="ja_uSign-batak.btx" format="2">
	<advance width="889"/>
	<anchor x="168" y="537" name="topleft"/>
	<anchor x="778" y="537" name="topright"/>
	<outline>
		<contour>
			<point x="105" y="253" type="curve" smooth="yes"/>
			<point x="134" y="253"/>
			<point x="184" y="292"/>
			<point x="412" y="345" type="curve" smooth="yes"/>
			<point x="543" y="375"/>
			<point x="641" y="386"/>
			<point x="666" y="389" type="curve" smooth="yes"/>
			<point x="686" y="391"/>
			<point x="697" y="412"/>
			<point x="697" y="430" type="curve" smooth="yes"/>
			<point x="697" y="454"/>
			<point x="679" y="474"/>
			<point x="656" y="474" type="curve" smooth="yes"/>
			<point x="598" y="474"/>
			<point x="497" y="457"/>
			<point x="366" y="426" type="curve" smooth="yes"/>
			<point x="253" y="399"/>
			<point x="144" y="367"/>
			<point x="89" y="335" type="curve" smooth="yes"/>
			<point x="72" y="325"/>
			<point x="63" y="313"/>
			<point x="63" y="297" type="curve" smooth="yes"/>
			<point x="63" y="274"/>
			<point x="82" y="253"/>
		</contour>
		<contour>
			<point x="500" y="166" type="curve" smooth="yes"/>
			<point x="520" y="166"/>
			<point x="556" y="175"/>
			<point x="650" y="175" type="curve" smooth="yes"/>
			<point x="736" y="175"/>
			<point x="779" y="166"/>
			<point x="799" y="166" type="curve" smooth="yes"/>
			<point x="824" y="166"/>
			<point x="840" y="187"/>
			<point x="840" y="209" type="curve" smooth="yes"/>
			<point x="840" y="228"/>
			<point x="830" y="244"/>
			<point x="805" y="250" type="curve" smooth="yes"/>
			<point x="769" y="258"/>
			<point x="715" y="263"/>
			<point x="650" y="263" type="curve" smooth="yes"/>
			<point x="588" y="263"/>
			<point x="523" y="257"/>
			<point x="494" y="250" type="curve" smooth="yes"/>
			<point x="470" y="244"/>
			<point x="459" y="228"/>
			<point x="459" y="209" type="curve" smooth="yes"/>
			<point x="459" y="187"/>
			<point x="475" y="166"/>
		</contour>
		<contour>
			<point x="636" y="-28" type="curve" smooth="yes"/>
			<point x="636" y="-8"/>
			<point x="628" y="5"/>
			<point x="603" y="21" type="curve" smooth="yes"/>
			<point x="563" y="47"/>
			<point x="460" y="93"/>
			<point x="321" y="150" type="curve" smooth="yes"/>
			<point x="264" y="173"/>
			<point x="143" y="223"/>
			<point x="107" y="223" type="curve" smooth="yes"/>
			<point x="84" y="223"/>
			<point x="66" y="201"/>
			<point x="66" y="178" type="curve" smooth="yes"/>
			<point x="66" y="163"/>
			<point x="77" y="147"/>
			<point x="99" y="138" type="curve" smooth="yes"/>
			<point x="132" y="125"/>
			<point x="220" y="92"/>
			<point x="280" y="68" type="curve" smooth="yes"/>
			<point x="425" y="9"/>
			<point x="499" y="-29"/>
			<point x="540" y="-50" type="curve"/>
			<point x="511" y="-103"/>
			<point x="468" y="-148"/>
			<point x="452" y="-164" type="curve" smooth="yes"/>
			<point x="423" y="-195"/>
			<point x="409" y="-211"/>
			<point x="409" y="-227" type="curve" smooth="yes"/>
			<point x="409" y="-249"/>
			<point x="424" y="-266"/>
			<point x="449" y="-266" type="curve" smooth="yes"/>
			<point x="502" y="-266"/>
			<point x="636" y="-73"/>
		</contour>
	</outline>
</glyph>
<glyph name="ja_uSign-batak" format="2">
	<advance width="1023"/>
	<anchor x="168" y="536" name="topleft"/>
	<anchor x="778" y="536" name="topright"/>
	<outline>
		<contour>
			<point x="105" y="253" type="curve" smooth="yes"/>
			<point x="134" y="253"/>
			<point x="184" y="292"/>
			<point x="412" y="345" type="curve" smooth="yes"/>
			<point x="543" y="375"/>
			<point x="674" y="391"/>
			<point x="699" y="394" type="curve" smooth="yes"/>
			<point x="719" y="396"/>
			<point x="730" y="417"/>
			<point x="730" y="435" type="curve" smooth="yes"/>
			<point x="730" y="459"/>
			<point x="712" y="479"/>
			<point x="689" y="479" type="curve" smooth="yes"/>
			<point x="631" y="479"/>
			<point x="497" y="457"/>
			<point x="366" y="426" type="curve" smooth="yes"/>
			<point x="253" y="399"/>
			<point x="144" y="367"/>
			<point x="89" y="335" type="curve" smooth="yes"/>
			<point x="72" y="325"/>
			<point x="63" y="313"/>
			<point x="63" y="297" type="curve" smooth="yes"/>
			<point x="63" y="274"/>
			<point x="82" y="253"/>
		</contour>
		<contour>
			<point x="620" y="216" type="curve" smooth="yes"/>
			<point x="640" y="216"/>
			<point x="676" y="225"/>
			<point x="770" y="225" type="curve" smooth="yes"/>
			<point x="856" y="225"/>
			<point x="899" y="216"/>
			<point x="919" y="216" type="curve" smooth="yes"/>
			<point x="944" y="216"/>
			<point x="960" y="237"/>
			<point x="960" y="259" type="curve" smooth="yes"/>
			<point x="960" y="278"/>
			<point x="950" y="294"/>
			<point x="925" y="300" type="curve" smooth="yes"/>
			<point x="889" y="308"/>
			<point x="835" y="313"/>
			<point x="770" y="313" type="curve" smooth="yes"/>
			<point x="708" y="313"/>
			<point x="643" y="307"/>
			<point x="614" y="300" type="curve" smooth="yes"/>
			<point x="590" y="294"/>
			<point x="579" y="278"/>
			<point x="579" y="259" type="curve" smooth="yes"/>
			<point x="579" y="237"/>
			<point x="595" y="216"/>
		</contour>
		<contour>
			<point x="747" y="30" type="curve" smooth="yes"/>
			<point x="747" y="51"/>
			<point x="739" y="62"/>
			<point x="705" y="87" type="curve" smooth="yes"/>
			<point x="673" y="110"/>
			<point x="571" y="152"/>
			<point x="531" y="170" type="curve" smooth="yes"/>
			<point x="476" y="195"/>
			<point x="353" y="243"/>
			<point x="317" y="243" type="curve" smooth="yes"/>
			<point x="294" y="243"/>
			<point x="276" y="221"/>
			<point x="276" y="198" type="curve" smooth="yes"/>
			<point x="276" y="183"/>
			<point x="287" y="167"/>
			<point x="309" y="158" type="curve" smooth="yes"/>
			<point x="342" y="145"/>
			<point x="428" y="114"/>
			<point x="490" y="88" type="curve" smooth="yes"/>
			<point x="571" y="54"/>
			<point x="620" y="26"/>
			<point x="652" y="9" type="curve"/>
			<point x="622" y="-43"/>
			<point x="579" y="-88"/>
			<point x="563" y="-104" type="curve" smooth="yes"/>
			<point x="534" y="-135"/>
			<point x="527" y="-141"/>
			<point x="527" y="-162" type="curve" smooth="yes"/>
			<point x="527" y="-179"/>
			<point x="541" y="-202"/>
			<point x="568" y="-202" type="curve" smooth="yes"/>
			<point x="610" y="-202"/>
			<point x="747" y="-13"/>
		</contour>
	</outline>
</glyph>
<glyph name="karoBa_uSign-batak" format="2">
	<advance width="1062"/>
	<anchor x="197" y="536" name="topleft"/>
	<anchor x="807" y="536" name="topright"/>
	<outline>
		<contour>
			<point x="495" y="-10" type="curve" smooth="yes"/>
			<point x="735" y="-10"/>
			<point x="922" y="64"/>
			<point x="922" y="234" type="curve" smooth="yes"/>
			<point x="922" y="404"/>
			<point x="711" y="479"/>
			<point x="495" y="479" type="curve" smooth="yes"/>
			<point x="279" y="479"/>
			<point x="68" y="404"/>
			<point x="68" y="234" type="curve" smooth="yes"/>
			<point x="68" y="64"/>
			<point x="255" y="-10"/>
		</contour>
		<contour>
			<point x="495" y="78" type="curve" smooth="yes"/>
			<point x="335" y="78"/>
			<point x="163" y="118"/>
			<point x="163" y="234" type="curve" smooth="yes"/>
			<point x="163" y="350"/>
			<point x="335" y="391"/>
			<point x="495" y="391" type="curve" smooth="yes"/>
			<point x="655" y="391"/>
			<point x="827" y="350"/>
			<point x="827" y="234" type="curve" smooth="yes"/>
			<point x="827" y="118"/>
			<point x="655" y="78"/>
		</contour>
		<contour>
			<point x="774" y="81" type="line"/>
			<point x="775" y="80"/>
			<point x="776" y="80"/>
			<point x="777" y="79" type="curve" smooth="yes"/>
			<point x="818" y="52"/>
			<point x="876" y="10"/>
			<point x="916" y="-38" type="curve"/>
			<point x="877" y="-83"/>
			<point x="815" y="-125"/>
			<point x="777" y="-151" type="curve" smooth="yes"/>
			<point x="761" y="-162"/>
			<point x="758" y="-176"/>
			<point x="758" y="-188" type="curve" smooth="yes"/>
			<point x="758" y="-214"/>
			<point x="776" y="-229"/>
			<point x="798" y="-229" type="curve" smooth="yes"/>
			<point x="837" y="-229"/>
			<point x="1013" y="-81"/>
			<point x="1013" y="-37" type="curve" smooth="yes"/>
			<point x="1013" y="1"/>
			<point x="886" y="114"/>
			<point x="824" y="147" type="curve"/>
		</contour>
	</outline>
</glyph>
<glyph name="la_uSign-batak" format="2">
	<advance width="931"/>
	<anchor x="178" y="536" name="topleft"/>
	<anchor x="758" y="536" name="topright"/>
	<outline>
		<contour>
			<point x="786" y="367" type="curve" smooth="yes"/>
			<point x="741" y="386"/>
			<point x="621" y="427"/>
			<point x="466" y="427" type="curve" smooth="yes"/>
			<point x="289" y="427"/>
			<point x="171" y="375"/>
			<point x="118" y="346" type="curve" smooth="yes"/>
			<point x="78" y="324"/>
			<point x="54" y="302"/>
			<point x="54" y="281" type="curve" smooth="yes"/>
			<point x="54" y="258"/>
			<point x="82" y="233"/>
			<point x="112" y="207" type="curve" smooth="yes"/>
			<point x="136" y="186"/>
			<point x="191" y="145"/>
			<point x="239" y="90" type="curve"/>
			<point x="200" y="45"/>
			<point x="142" y="4"/>
			<point x="104" y="-22" type="curve" smooth="yes"/>
			<point x="88" y="-33"/>
			<point x="85" y="-50"/>
			<point x="85" y="-59" type="curve" smooth="yes"/>
			<point x="85" y="-87"/>
			<point x="105" y="-100"/>
			<point x="123" y="-100" type="curve" smooth="yes"/>
			<point x="170" y="-100"/>
			<point x="277" y="5"/>
			<point x="306" y="36" type="curve" smooth="yes"/>
			<point x="330" y="61"/>
			<point x="340" y="76"/>
			<point x="340" y="92" type="curve" smooth="yes"/>
			<point x="340" y="105"/>
			<point x="328" y="120"/>
			<point x="304" y="149" type="curve" smooth="yes"/>
			<point x="286" y="170"/>
			<point x="233" y="225"/>
			<point x="176" y="267" type="curve"/>
			<point x="234" y="306"/>
			<point x="308" y="339"/>
			<point x="466" y="339" type="curve" smooth="yes"/>
			<point x="628" y="339"/>
			<point x="722" y="303"/>
			<point x="757" y="288" type="curve" smooth="yes"/>
			<point x="785" y="276"/>
			<point x="821" y="255"/>
			<point x="844" y="255" type="curve" smooth="yes"/>
			<point x="861" y="255"/>
			<point x="877" y="267"/>
			<point x="877" y="288" type="curve" smooth="yes"/>
			<point x="877" y="303"/>
			<point x="869" y="333"/>
		</contour>
	</outline>
</glyph>
<glyph name="maSima_uSign-batak" format="2">
	<advance width="1088"/>
	<anchor x="256" y="536" name="topleft"/>
	<anchor x="866" y="536" name="topright"/>
	<outline>
		<contour>
			<point x="706" y="-104" type="curve" smooth="yes"/>
			<point x="688" y="-93"/>
			<point x="683" y="-73"/>
			<point x="694" y="-55" type="curve" smooth="yes"/>
			<point x="704" y="-40"/>
			<point x="723" y="-39"/>
			<point x="736" y="-37" type="curve" smooth="yes"/>
			<point x="755" y="-34"/>
			<point x="799" y="-37"/>
			<point x="861" y="-44" type="curve" smooth="yes"/>
			<point x="915" y="-51"/>
			<point x="955" y="-61"/>
			<point x="978" y="-75" type="curve" smooth="yes"/>
			<point x="995" y="-85"/>
			<point x="1003" y="-105"/>
			<point x="992" y="-122" type="curve" smooth="yes"/>
			<point x="984" y="-134"/>
			<point x="969" y="-147"/>
			<point x="939" y="-137" type="curve" smooth="yes"/>
			<point x="917" y="-130"/>
			<point x="882" y="-121"/>
			<point x="853" y="-118" type="curve" smooth="yes"/>
			<point x="825" y="-116"/>
			<point x="771" y="-114"/>
			<point x="752" y="-114" type="curve" smooth="yes"/>
			<point x="727" y="-115"/>
			<point x="714" y="-109"/>
		</contour>
		<contour>
			<point x="100" y="303" type="curve"/>
			<point x="112" y="303"/>
			<point x="127" y="310"/>
			<point x="140" y="318" type="curve" smooth="yes"/>
			<point x="167" y="335"/>
			<point x="255" y="391"/>
			<point x="401" y="391" type="curve" smooth="yes"/>
			<point x="500" y="391"/>
			<point x="543" y="383"/>
			<point x="557" y="383" type="curve" smooth="yes"/>
			<point x="580" y="383"/>
			<point x="592" y="407"/>
			<point x="592" y="436" type="curve" smooth="yes"/>
			<point x="592" y="478"/>
			<point x="500" y="479"/>
			<point x="401" y="479" type="curve" smooth="yes"/>
			<point x="284" y="479"/>
			<point x="150" y="436"/>
			<point x="99" y="393" type="curve" smooth="yes"/>
			<point x="77" y="375"/>
			<point x="63" y="361"/>
			<point x="63" y="345" type="curve" smooth="yes"/>
			<point x="63" y="316"/>
			<point x="81" y="303"/>
		</contour>
		<contour>
			<point x="418" y="128" type="curve" smooth="yes"/>
			<point x="441" y="128"/>
			<point x="459" y="140"/>
			<point x="472" y="149" type="curve" smooth="yes"/>
			<point x="559" y="206"/>
			<point x="628" y="251"/>
			<point x="693" y="286" type="curve" smooth="yes"/>
			<point x="800" y="343"/>
			<point x="896" y="377"/>
			<point x="969" y="396" type="curve" smooth="yes"/>
			<point x="1005" y="405"/>
			<point x="1023" y="411"/>
			<point x="1023" y="442" type="curve" smooth="yes"/>
			<point x="1023" y="459"/>
			<point x="1016" y="479"/>
			<point x="981" y="479" type="curve" smooth="yes"/>
			<point x="910" y="479"/>
			<point x="774" y="427"/>
			<point x="649" y="362" type="curve" smooth="yes"/>
			<point x="532" y="301"/>
			<point x="424" y="226"/>
			<point x="398" y="202" type="curve" smooth="yes"/>
			<point x="389" y="193"/>
			<point x="383" y="181"/>
			<point x="383" y="171" type="curve" smooth="yes"/>
			<point x="383" y="147"/>
			<point x="396" y="128"/>
		</contour>
		<contour>
			<point x="980" y="-10" type="curve" smooth="yes"/>
			<point x="1004" y="-10"/>
			<point x="1025" y="12"/>
			<point x="1025" y="36" type="curve" smooth="yes"/>
			<point x="1025" y="57"/>
			<point x="1009" y="67"/>
			<point x="996" y="75" type="curve" smooth="yes"/>
			<point x="954" y="101"/>
			<point x="926" y="116"/>
			<point x="877" y="138" type="curve" smooth="yes"/>
			<point x="806" y="170"/>
			<point x="709" y="209"/>
			<point x="679" y="209" type="curve" smooth="yes"/>
			<point x="657" y="209"/>
			<point x="638" y="187"/>
			<point x="638" y="164" type="curve" smooth="yes"/>
			<point x="638" y="148"/>
			<point x="646" y="131"/>
			<point x="669" y="121" type="curve" smooth="yes"/>
			<point x="711" y="103"/>
			<point x="752" y="90"/>
			<point x="818" y="60" type="curve" smooth="yes"/>
			<point x="876" y="34"/>
			<point x="909" y="15"/>
			<point x="930" y="5" type="curve" smooth="yes"/>
			<point x="955" y="-7"/>
			<point x="971" y="-10"/>
		</contour>
	</outline>
</glyph>
<glyph name="ma_uSign-batak" format="2">
	<advance width="1054"/>
	<anchor x="227" y="536" name="topleft"/>
	<anchor x="837" y="536" name="topright"/>
	<outline>
		<contour>
			<point x="402" y="-10" type="curve" smooth="yes"/>
			<point x="502" y="-10"/>
			<point x="567" y="56"/>
			<point x="622" y="126" type="curve" smooth="yes"/>
			<point x="674" y="193" type="line" smooth="yes"/>
			<point x="753" y="294"/>
			<point x="827" y="330"/>
			<point x="932" y="339" type="curve" smooth="yes"/>
			<point x="981" y="343"/>
			<point x="990" y="367"/>
			<point x="990" y="391" type="curve" smooth="yes"/>
			<point x="990" y="410"/>
			<point x="974" y="427"/>
			<point x="933" y="427" type="curve" smooth="yes"/>
			<point x="811" y="427"/>
			<point x="689" y="362"/>
			<point x="593" y="234" type="curve" smooth="yes"/>
			<point x="542" y="166" type="line" smooth="yes"/>
			<point x="499" y="108"/>
			<point x="452" y="78"/>
			<point x="404" y="78" type="curve" smooth="yes"/>
			<point x="333" y="78"/>
			<point x="259" y="148"/>
			<point x="259" y="358" type="curve"/>
			<point x="211" y="384" type="line"/>
			<point x="182" y="384"/>
			<point x="169" y="363"/>
			<point x="169" y="344" type="curve" smooth="yes"/>
			<point x="169" y="104"/>
			<point x="278" y="-10"/>
		</contour>
		<contour>
			<point x="73" y="324" type="curve" smooth="yes"/>
			<point x="75" y="324"/>
			<point x="83" y="324"/>
			<point x="91" y="325" type="curve" smooth="yes"/>
			<point x="141" y="334"/>
			<point x="260" y="339"/>
			<point x="323" y="339" type="curve" smooth="yes"/>
			<point x="360" y="339"/>
			<point x="452" y="333"/>
			<point x="512" y="331" type="curve" smooth="yes"/>
			<point x="514" y="331"/>
			<point x="541" y="328"/>
			<point x="543" y="328" type="curve" smooth="yes"/>
			<point x="566" y="328"/>
			<point x="581" y="353"/>
			<point x="581" y="375" type="curve" smooth="yes"/>
			<point x="581" y="390"/>
			<point x="571" y="407"/>
			<point x="546" y="412" type="curve" smooth="yes"/>
			<point x="472" y="426"/>
			<point x="360" y="427"/>
			<point x="323" y="427" type="curve" smooth="yes"/>
			<point x="291" y="427"/>
			<point x="149" y="423"/>
			<point x="65" y="407" type="curve" smooth="yes"/>
			<point x="46" y="403"/>
			<point x="39" y="381"/>
			<point x="39" y="367" type="curve" smooth="yes"/>
			<point x="39" y="344"/>
			<point x="55" y="324"/>
		</contour>
		<contour>
			<point x="990" y="20" type="curve" smooth="yes"/>
			<point x="990" y="58"/>
			<point x="963" y="57"/>
			<point x="938" y="61" type="curve" smooth="yes"/>
			<point x="881" y="70"/>
			<point x="695" y="100"/>
			<point x="560" y="158" type="curve"/>
			<point x="487" y="92" type="line"/>
			<point x="556" y="55"/>
			<point x="741" y="-5"/>
			<point x="879" y="-20" type="curve"/>
			<point x="849" y="-64"/>
			<point x="814" y="-100"/>
			<point x="793" y="-122" type="curve" smooth="yes"/>
			<point x="769" y="-145"/>
			<point x="764" y="-157"/>
			<point x="764" y="-169" type="curve" smooth="yes"/>
			<point x="764" y="-189"/>
			<point x="784" y="-211"/>
			<point x="805" y="-210" type="curve" smooth="yes"/>
			<point x="859" y="-208"/>
			<point x="990" y="-27"/>
		</contour>
	</outline>
</glyph>
<glyph name="naMandai_uSign-batak" format="2">
	<advance width="990"/>
	<anchor x="158" y="659" name="topleft"/>
	<anchor x="778" y="659" name="topright"/>
	<outline>
		<contour>
			<point x="731" y="465" type="curve" smooth="yes"/>
			<point x="625" y="449"/>
			<point x="519" y="410"/>
			<point x="447" y="375" type="curve"/>
			<point x="366" y="415"/>
			<point x="272" y="441"/>
			<point x="177" y="463" type="curve" smooth="yes"/>
			<point x="174" y="464"/>
			<point x="165" y="466"/>
			<point x="159" y="466" type="curve" smooth="yes"/>
			<point x="137" y="466"/>
			<point x="122" y="443"/>
			<point x="122" y="421" type="curve" smooth="yes"/>
			<point x="122" y="402"/>
			<point x="136" y="385"/>
			<point x="160" y="380" type="curve" smooth="yes"/>
			<point x="223" y="368"/>
			<point x="294" y="349"/>
			<point x="355" y="327" type="curve"/>
			<point x="263" y="270"/>
			<point x="200" y="202"/>
			<point x="200" y="133" type="curve" smooth="yes"/>
			<point x="200" y="57"/>
			<point x="231" y="-10"/>
			<point x="441" y="-10" type="curve" smooth="yes"/>
			<point x="661" y="-10"/>
			<point x="692" y="56"/>
			<point x="692" y="133" type="curve" smooth="yes"/>
			<point x="692" y="207"/>
			<point x="630" y="273"/>
			<point x="537" y="328" type="curve"/>
			<point x="594" y="350"/>
			<point x="633" y="361"/>
			<point x="689" y="373" type="curve" smooth="yes"/>
			<point x="736" y="383"/>
			<point x="797" y="393"/>
			<point x="851" y="391" type="curve"/>
			<point x="844" y="347"/>
			<point x="835" y="327"/>
			<point x="820" y="300" type="curve" smooth="yes"/>
			<point x="803" y="269"/>
			<point x="777" y="243"/>
			<point x="777" y="221" type="curve" smooth="yes"/>
			<point x="777" y="199"/>
			<point x="799" y="188"/>
			<point x="815" y="188" type="curve" smooth="yes"/>
			<point x="877" y="188"/>
			<point x="936" y="312"/>
			<point x="936" y="389" type="curve" smooth="yes"/>
			<point x="936" y="477"/>
			<point x="825" y="479"/>
		</contour>
		<contour>
			<point x="447" y="78" type="curve" smooth="yes"/>
			<point x="372" y="78"/>
			<point x="295" y="84"/>
			<point x="295" y="133" type="curve" smooth="yes"/>
			<point x="295" y="184"/>
			<point x="355" y="241"/>
			<point x="445" y="288" type="curve"/>
			<point x="533" y="241"/>
			<point x="597" y="184"/>
			<point x="597" y="133" type="curve" smooth="yes"/>
			<point x="597" y="84"/>
			<point x="496" y="78"/>
		</contour>
		<contour>
			<point x="88" y="552" type="curve" smooth="yes"/>
			<point x="89" y="552"/>
			<point x="98" y="552"/>
			<point x="106" y="553" type="curve" smooth="yes"/>
			<point x="155" y="562"/>
			<point x="274" y="567"/>
			<point x="337" y="567" type="curve" smooth="yes"/>
			<point x="375" y="567"/>
			<point x="491" y="562"/>
			<point x="551" y="559" type="curve" smooth="yes"/>
			<point x="553" y="559"/>
			<point x="578" y="556"/>
			<point x="583" y="556" type="curve" smooth="yes"/>
			<point x="605" y="556"/>
			<point x="620" y="581"/>
			<point x="620" y="603" type="curve" smooth="yes"/>
			<point x="620" y="618"/>
			<point x="610" y="635"/>
			<point x="585" y="640" type="curve" smooth="yes"/>
			<point x="511" y="654"/>
			<point x="375" y="655"/>
			<point x="337" y="655" type="curve" smooth="yes"/>
			<point x="306" y="655"/>
			<point x="164" y="651"/>
			<point x="80" y="635" type="curve" smooth="yes"/>
			<point x="61" y="631"/>
			<point x="54" y="609"/>
			<point x="54" y="595" type="curve" smooth="yes"/>
			<point x="54" y="572"/>
			<point x="70" y="552"/>
		</contour>
	</outline>
</glyph>
<glyph name="na_uSign-batak" format="2">
	<advance width="1088"/>
	<anchor x="275" y="585" name="topleft"/>
	<anchor x="845" y="585" name="topright"/>
	<outline>
		<contour>
			<point x="577" y="-10" type="curve" smooth="yes"/>
			<point x="760" y="-10"/>
			<point x="922" y="46"/>
			<point x="922" y="185" type="curve" smooth="yes"/>
			<point x="922" y="323"/>
			<point x="755" y="381"/>
			<point x="577" y="381" type="curve" smooth="yes"/>
			<point x="405" y="381"/>
			<point x="233" y="323"/>
			<point x="233" y="185" type="curve" smooth="yes"/>
			<point x="233" y="49"/>
			<point x="385" y="-10"/>
		</contour>
		<contour>
			<point x="579" y="78" type="curve" smooth="yes"/>
			<point x="451" y="78"/>
			<point x="328" y="104"/>
			<point x="328" y="185" type="curve" smooth="yes"/>
			<point x="328" y="266"/>
			<point x="454" y="293"/>
			<point x="579" y="293" type="curve" smooth="yes"/>
			<point x="705" y="293"/>
			<point x="827" y="265"/>
			<point x="827" y="185" type="curve" smooth="yes"/>
			<point x="827" y="106"/>
			<point x="710" y="78"/>
		</contour>
		<contour>
			<point x="88" y="445" type="curve" smooth="yes"/>
			<point x="116" y="445"/>
			<point x="188" y="464"/>
			<point x="386" y="464" type="curve" smooth="yes"/>
			<point x="593" y="464"/>
			<point x="655" y="445"/>
			<point x="680" y="445" type="curve" smooth="yes"/>
			<point x="703" y="445"/>
			<point x="717" y="470"/>
			<point x="717" y="492" type="curve" smooth="yes"/>
			<point x="717" y="507"/>
			<point x="708" y="524"/>
			<point x="683" y="529" type="curve" smooth="yes"/>
			<point x="609" y="544"/>
			<point x="472" y="552"/>
			<point x="386" y="552" type="curve" smooth="yes"/>
			<point x="296" y="552"/>
			<point x="164" y="545"/>
			<point x="80" y="528" type="curve" smooth="yes"/>
			<point x="61" y="524"/>
			<point x="54" y="502"/>
			<point x="54" y="489" type="curve" smooth="yes"/>
			<point x="54" y="466"/>
			<point x="70" y="445"/>
		</contour>
		<contour>
			<point x="813" y="76" type="line"/>
			<point x="853" y="49"/>
			<point x="905" y="10"/>
			<point x="942" y="-34" type="curve"/>
			<point x="903" y="-79"/>
			<point x="841" y="-121"/>
			<point x="803" y="-147" type="curve" smooth="yes"/>
			<point x="787" y="-158"/>
			<point x="784" y="-172"/>
			<point x="784" y="-184" type="curve" smooth="yes"/>
			<point x="784" y="-210"/>
			<point x="802" y="-225"/>
			<point x="824" y="-225" type="curve" smooth="yes"/>
			<point x="863" y="-225"/>
			<point x="1039" y="-77"/>
			<point x="1039" y="-33" type="curve" smooth="yes"/>
			<point x="1039" y="3"/>
			<point x="929" y="103"/>
			<point x="863" y="143" type="curve"/>
		</contour>
	</outline>
</glyph>
<glyph name="nga_uSign-batak" format="2">
	<advance width="756"/>
	<anchor x="90" y="536" name="topleft"/>
	<anchor x="610" y="536" name="topright"/>
	<outline>
		<contour>
			<point x="666" y="76" type="curve" smooth="yes"/>
			<point x="648" y="80"/>
			<point x="480" y="129"/>
			<point x="398" y="156" type="curve" smooth="yes"/>
			<point x="347" y="173"/>
			<point x="245" y="213"/>
			<point x="206" y="234" type="curve"/>
			<point x="251" y="263"/>
			<point x="348" y="295"/>
			<point x="398" y="314" type="curve" smooth="yes"/>
			<point x="491" y="349"/>
			<point x="651" y="390"/>
			<point x="676" y="396" type="curve" smooth="yes"/>
			<point x="694" y="400"/>
			<point x="703" y="417"/>
			<point x="703" y="434" type="curve" smooth="yes"/>
			<point x="703" y="460"/>
			<point x="682" y="479"/>
			<point x="661" y="479" type="curve" smooth="yes"/>
			<point x="628" y="479"/>
			<point x="450" y="424"/>
			<point x="364" y="394" type="curve" smooth="yes"/>
			<point x="275" y="363"/>
			<point x="105" y="294"/>
			<point x="76" y="273" type="curve" smooth="yes"/>
			<point x="61" y="262"/>
			<point x="54" y="251"/>
			<point x="54" y="238" type="curve" smooth="yes"/>
			<point x="54" y="220"/>
			<point x="65" y="206"/>
			<point x="78" y="196" type="curve" smooth="yes"/>
			<point x="103" y="177"/>
			<point x="278" y="104"/>
			<point x="364" y="75" type="curve" smooth="yes"/>
			<point x="425" y="55"/>
			<point x="531" y="21"/>
			<point x="600" y="3" type="curve"/>
			<point x="570" y="-46"/>
			<point x="527" y="-92"/>
			<point x="508" y="-112" type="curve" smooth="yes"/>
			<point x="489" y="-132"/>
			<point x="482" y="-145"/>
			<point x="482" y="-158" type="curve" smooth="yes"/>
			<point x="482" y="-176"/>
			<point x="507" y="-198"/>
			<point x="526" y="-198" type="curve" smooth="yes"/>
			<point x="580" y="-198"/>
			<point x="703" y="-13"/>
			<point x="703" y="35" type="curve" smooth="yes"/>
			<point x="703" y="52"/>
			<point x="694" y="70"/>
		</contour>
	</outline>
</glyph>
<glyph name="ra_uSign-batak" format="2">
	<advance width="953"/>
	<anchor x="168" y="536" name="topleft"/>
	<anchor x="778" y="536" name="topright"/>
	<outline>
		<contour>
			<point x="104" y="339" type="curve" smooth="yes"/>
			<point x="116" y="339"/>
			<point x="146" y="349"/>
			<point x="153" y="352" type="curve" smooth="yes"/>
			<point x="209" y="372"/>
			<point x="360" y="391"/>
			<point x="475" y="391" type="curve" smooth="yes"/>
			<point x="583" y="391"/>
			<point x="749" y="380"/>
			<point x="797" y="367" type="curve" smooth="yes"/>
			<point x="805" y="365"/>
			<point x="827" y="357"/>
			<point x="848" y="357" type="curve" smooth="yes"/>
			<point x="873" y="357"/>
			<point x="889" y="380"/>
			<point x="889" y="403" type="curve" smooth="yes"/>
			<point x="889" y="422"/>
			<point x="879" y="435"/>
			<point x="854" y="444" type="curve" smooth="yes"/>
			<point x="767" y="475"/>
			<point x="562" y="479"/>
			<point x="475" y="479" type="curve" smooth="yes"/>
			<point x="381" y="479"/>
			<point x="192" y="465"/>
			<point x="91" y="423" type="curve" smooth="yes"/>
			<point x="72" y="415"/>
			<point x="63" y="397"/>
			<point x="63" y="385" type="curve" smooth="yes"/>
			<point x="63" y="362"/>
			<point x="80" y="339"/>
		</contour>
		<contour>
			<point x="736" y="52" type="curve"/>
			<point x="778" y="96"/>
			<point x="824" y="134"/>
			<point x="864" y="162" type="curve" smooth="yes"/>
			<point x="879" y="172"/>
			<point x="887" y="184"/>
			<point x="887" y="209" type="curve" smooth="yes"/>
			<point x="887" y="228"/>
			<point x="877" y="242"/>
			<point x="854" y="254" type="curve" smooth="yes"/>
			<point x="775" y="295"/>
			<point x="562" y="298"/>
			<point x="475" y="298" type="curve" smooth="yes"/>
			<point x="381" y="298"/>
			<point x="200" y="280"/>
			<point x="91" y="236" type="curve" smooth="yes"/>
			<point x="72" y="228"/>
			<point x="63" y="210"/>
			<point x="63" y="197" type="curve" smooth="yes"/>
			<point x="63" y="175"/>
			<point x="80" y="152"/>
			<point x="104" y="152" type="curve" smooth="yes"/>
			<point x="116" y="152"/>
			<point x="146" y="162"/>
			<point x="153" y="164" type="curve" smooth="yes"/>
			<point x="209" y="184"/>
			<point x="360" y="210"/>
			<point x="475" y="210" type="curve" smooth="yes"/>
			<point x="565" y="210"/>
			<point x="696" y="208"/>
			<point x="764" y="189" type="curve"/>
			<point x="707" y="146"/>
			<point x="661" y="106"/>
			<point x="635" y="76" type="curve" smooth="yes"/>
			<point x="619" y="56"/>
			<point x="612" y="41"/>
			<point x="612" y="27" type="curve" smooth="yes"/>
			<point x="612" y="4"/>
			<point x="633" y="-5"/>
			<point x="666" y="-16" type="curve" smooth="yes"/>
			<point x="701" y="-28"/>
			<point x="728" y="-36"/>
			<point x="778" y="-55" type="curve"/>
			<point x="739" y="-100"/>
			<point x="677" y="-142"/>
			<point x="639" y="-168" type="curve" smooth="yes"/>
			<point x="623" y="-179"/>
			<point x="620" y="-192"/>
			<point x="620" y="-202" type="curve" smooth="yes"/>
			<point x="620" y="-230"/>
			<point x="641" y="-246"/>
			<point x="662" y="-246" type="curve" smooth="yes"/>
			<point x="708" y="-246"/>
			<point x="875" y="-98"/>
			<point x="875" y="-42" type="curve" smooth="yes"/>
			<point x="875" y="0"/>
			<point x="799" y="26"/>
		</contour>
	</outline>
</glyph>
<glyph name="saMandai_uSign-batak" format="2">
	<advance width="1056"/>
	<anchor x="526" y="536" name="top"/>
	<anchor x="226" y="536" name="topleft"/>
	<anchor x="837" y="536" name="topright"/>
	<outline>
		<contour>
			<point x="529" y="339" type="curve" smooth="yes"/>
			<point x="719" y="339"/>
			<point x="813" y="298"/>
			<point x="889" y="263" type="curve" smooth="yes"/>
			<point x="932" y="243"/>
			<point x="949" y="233"/>
			<point x="966" y="233" type="curve" smooth="yes"/>
			<point x="988" y="233"/>
			<point x="1004" y="251"/>
			<point x="1004" y="271" type="curve" smooth="yes"/>
			<point x="1004" y="286"/>
			<point x="994" y="308"/>
			<point x="953" y="331" type="curve" smooth="yes"/>
			<point x="877" y="375"/>
			<point x="715" y="427"/>
			<point x="529" y="427" type="curve" smooth="yes"/>
			<point x="343" y="427"/>
			<point x="181" y="375"/>
			<point x="105" y="331" type="curve" smooth="yes"/>
			<point x="64" y="308"/>
			<point x="54" y="286"/>
			<point x="54" y="271" type="curve" smooth="yes"/>
			<point x="54" y="251"/>
			<point x="70" y="233"/>
			<point x="92" y="233" type="curve" smooth="yes"/>
			<point x="109" y="233"/>
			<point x="126" y="243"/>
			<point x="169" y="263" type="curve" smooth="yes"/>
			<point x="245" y="298"/>
			<point x="339" y="339"/>
		</contour>
		<contour>
			<point x="392" y="-170" type="curve" smooth="yes"/>
			<point x="431" y="-170"/>
			<point x="607" y="-23"/>
			<point x="607" y="24" type="curve" smooth="yes"/>
			<point x="607" y="75"/>
			<point x="388" y="326"/>
			<point x="330" y="378" type="curve"/>
			<point x="325" y="380"/>
			<point x="300" y="381"/>
			<point x="295" y="381" type="curve" smooth="yes"/>
			<point x="272" y="381"/>
			<point x="242" y="361"/>
			<point x="242" y="336" type="curve"/>
			<point x="354" y="216"/>
			<point x="407" y="170"/>
			<point x="510" y="21" type="curve"/>
			<point x="471" y="-24"/>
			<point x="409" y="-66"/>
			<point x="371" y="-92" type="curve" smooth="yes"/>
			<point x="355" y="-103"/>
			<point x="352" y="-117"/>
			<point x="352" y="-129" type="curve" smooth="yes"/>
			<point x="352" y="-155"/>
			<point x="370" y="-170"/>
		</contour>
	</outline>
</glyph>
<glyph name="taNorth_uSign-batak" format="2">
	<advance width="1187"/>
	<anchor x="246" y="536" name="topleft"/>
	<anchor x="856" y="536" name="topright"/>
	<outline>
		<contour>
			<point x="1137" y="0" type="curve" smooth="yes"/>
			<point x="1137" y="48"/>
			<point x="1107" y="55"/>
			<point x="997" y="69" type="curve"/>
			<point x="1006" y="88"/>
			<point x="1010" y="112"/>
			<point x="1010" y="142" type="curve" smooth="yes"/>
			<point x="1010" y="259"/>
			<point x="922" y="364"/>
			<point x="794" y="364" type="curve" smooth="yes"/>
			<point x="693" y="364"/>
			<point x="633" y="306"/>
			<point x="579" y="234" type="curve" smooth="yes"/>
			<point x="528" y="166" type="line" smooth="yes"/>
			<point x="485" y="108"/>
			<point x="438" y="78"/>
			<point x="390" y="78" type="curve" smooth="yes"/>
			<point x="322" y="78"/>
			<point x="250" y="144"/>
			<point x="246" y="339" type="curve"/>
			<point x="331" y="339"/>
			<point x="379" y="333"/>
			<point x="398" y="333" type="curve" smooth="yes"/>
			<point x="423" y="333"/>
			<point x="439" y="354"/>
			<point x="439" y="376" type="curve" smooth="yes"/>
			<point x="439" y="396"/>
			<point x="428" y="409"/>
			<point x="405" y="418" type="curve" smooth="yes"/>
			<point x="390" y="424"/>
			<point x="333" y="427"/>
			<point x="247" y="427" type="curve" smooth="yes"/>
			<point x="153" y="427"/>
			<point x="103" y="423"/>
			<point x="88" y="418" type="curve" smooth="yes"/>
			<point x="65" y="410"/>
			<point x="54" y="396"/>
			<point x="54" y="376" type="curve" smooth="yes"/>
			<point x="54" y="354"/>
			<point x="70" y="333"/>
			<point x="95" y="333" type="curve" smooth="yes"/>
			<point x="106" y="333"/>
			<point x="124" y="335"/>
			<point x="155" y="337" type="curve"/>
			<point x="157" y="101"/>
			<point x="266" y="-10"/>
			<point x="388" y="-10" type="curve" smooth="yes"/>
			<point x="488" y="-10"/>
			<point x="554" y="56"/>
			<point x="608" y="126" type="curve" smooth="yes"/>
			<point x="660" y="193" type="line" smooth="yes"/>
			<point x="704" y="250"/>
			<point x="743" y="276"/>
			<point x="792" y="276" type="curve" smooth="yes"/>
			<point x="863" y="276"/>
			<point x="915" y="210"/>
			<point x="915" y="142" type="curve" smooth="yes"/>
			<point x="915" y="92"/>
			<point x="888" y="78"/>
			<point x="775" y="78" type="curve" smooth="yes"/>
			<point x="735" y="78"/>
			<point x="714" y="65"/>
			<point x="714" y="35" type="curve" smooth="yes"/>
			<point x="714" y="-1"/>
			<point x="735" y="-10"/>
			<point x="792" y="-10" type="curve" smooth="yes"/>
			<point x="902" y="-10"/>
			<point x="968" y="-10"/>
			<point x="1047" y="-27" type="curve"/>
			<point x="1023" y="-89"/>
			<point x="1010" y="-115"/>
			<point x="990" y="-150" type="curve" smooth="yes"/>
			<point x="968" y="-188"/>
			<point x="956" y="-206"/>
			<point x="956" y="-226" type="curve" smooth="yes"/>
			<point x="956" y="-247"/>
			<point x="976" y="-262"/>
			<point x="994" y="-262" type="curve" smooth="yes"/>
			<point x="1059" y="-262"/>
			<point x="1137" y="-76"/>
		</contour>
	</outline>
</glyph>
<glyph name="taSouth_uSign-batak" format="2">
	<advance width="801"/>
	<anchor x="140" y="536" name="topleft"/>
	<anchor x="610" y="536" name="topright"/>
	<outline>
		<contour>
			<point x="444" y="92" type="curve" smooth="yes"/>
			<point x="486" y="68"/>
			<point x="576" y="28"/>
			<point x="639" y="-10" type="curve"/>
			<point x="605" y="-62"/>
			<point x="594" y="-75"/>
			<point x="558" y="-114" type="curve" smooth="yes"/>
			<point x="528" y="-146"/>
			<point x="504" y="-164"/>
			<point x="504" y="-186" type="curve" smooth="yes"/>
			<point x="504" y="-205"/>
			<point x="524" y="-225"/>
			<point x="544" y="-225" type="curve" smooth="yes"/>
			<point x="601" y="-225"/>
			<point x="733" y="-49"/>
			<point x="733" y="0" type="curve" smooth="yes"/>
			<point x="733" y="56"/>
			<point x="666" y="73"/>
			<point x="511" y="151" type="curve" smooth="yes"/>
			<point x="411" y="201"/>
			<point x="306" y="265"/>
			<point x="182" y="368" type="curve"/>
			<point x="232" y="380"/>
			<point x="309" y="391"/>
			<point x="392" y="391" type="curve" smooth="yes"/>
			<point x="475" y="391"/>
			<point x="561" y="380"/>
			<point x="611" y="368" type="curve"/>
			<point x="437" y="290"/>
			<point x="242" y="170"/>
			<point x="104" y="71" type="curve" smooth="yes"/>
			<point x="86" y="58"/>
			<point x="73" y="44"/>
			<point x="73" y="30" type="curve" smooth="yes"/>
			<point x="73" y="7"/>
			<point x="93" y="-15"/>
			<point x="115" y="-15" type="curve" smooth="yes"/>
			<point x="127" y="-15"/>
			<point x="143" y="-6"/>
			<point x="152" y="1" type="curve" smooth="yes"/>
			<point x="315" y="124"/>
			<point x="553" y="256"/>
			<point x="692" y="327" type="curve" smooth="yes"/>
			<point x="713" y="338"/>
			<point x="729" y="349"/>
			<point x="729" y="385" type="curve" smooth="yes"/>
			<point x="729" y="404"/>
			<point x="713" y="424"/>
			<point x="689" y="435" type="curve" smooth="yes"/>
			<point x="610" y="472"/>
			<point x="478" y="479"/>
			<point x="392" y="479" type="curve" smooth="yes"/>
			<point x="305" y="479"/>
			<point x="188" y="472"/>
			<point x="108" y="435" type="curve" smooth="yes"/>
			<point x="85" y="424"/>
			<point x="68" y="404"/>
			<point x="68" y="385" type="curve" smooth="yes"/>
			<point x="68" y="321"/>
			<point x="278" y="187"/>
		</contour>
	</outline>
</glyph>
<glyph name="uSign-batak.paMandai" format="2">
	<advance width="0"/>
	<anchor x="141" y="-319" name="bottomright"/>
	<anchor x="141" y="58" name="_bottomright"/>
	<outline>
		<contour>
			<point x="230" y="-291" type="curve" smooth="yes"/>
			<point x="252" y="-291"/>
			<point x="270" y="-276"/>
			<point x="270" y="-250" type="curve" smooth="yes"/>
			<point x="270" y="-238"/>
			<point x="267" y="-224"/>
			<point x="251" y="-213" type="curve" smooth="yes"/>
			<point x="213" y="-187"/>
			<point x="151" y="-145"/>
			<point x="112" y="-100" type="curve"/>
			<point x="152" y="-52"/>
			<point x="210" y="-10"/>
			<point x="251" y="17" type="curve" smooth="yes"/>
			<point x="266" y="27"/>
			<point x="270" y="42"/>
			<point x="270" y="54" type="curve" smooth="yes"/>
			<point x="270" y="79"/>
			<point x="252" y="94"/>
			<point x="230" y="94" type="curve" smooth="yes"/>
			<point x="191" y="94"/>
			<point x="15" y="-54"/>
			<point x="15" y="-99" type="curve" smooth="yes"/>
			<point x="15" y="-143"/>
			<point x="191" y="-291"/>
		</contour>
	</outline>
</glyph>
<glyph name="uSign-batak.simple" format="2">
	<advance width="0"/>
	<anchor x="163" y="-269" name="bottomright"/>
	<anchor x="173" y="-22" name="_bottomright"/>
	<outline>
		<contour>
			<point x="0" y="-80" type="curve" smooth="yes"/>
			<point x="8" y="-85"/>
			<point x="21" y="-91"/>
			<point x="46" y="-90" type="curve" smooth="yes"/>
			<point x="65" y="-90"/>
			<point x="119" y="-92"/>
			<point x="147" y="-94" type="curve" smooth="yes"/>
			<point x="176" y="-97"/>
			<point x="211" y="-106"/>
			<point x="233" y="-113" type="curve" smooth="yes"/>
			<point x="263" y="-123"/>
			<point x="278" y="-110"/>
			<point x="286" y="-98" type="curve" smooth="yes"/>
			<point x="297" y="-81"/>
			<point x="289" y="-61"/>
			<point x="272" y="-51" type="curve" smooth="yes"/>
			<point x="249" y="-37"/>
			<point x="209" y="-27"/>
			<point x="155" y="-20" type="curve" smooth="yes"/>
			<point x="93" y="-13"/>
			<point x="49" y="-10"/>
			<point x="30" y="-13" type="curve" smooth="yes"/>
			<point x="17" y="-15"/>
			<point x="-2" y="-16"/>
			<point x="-12" y="-31" type="curve" smooth="yes"/>
			<point x="-23" y="-49"/>
			<point x="-18" y="-69"/>
		</contour>
	</outline>
</glyph>
<glyph name="wa_uSign-batak" format="2">
	<advance width="1000"/>
	<anchor x="178" y="536" name="topleft"/>
	<anchor x="788" y="536" name="topright"/>
	<outline>
		<contour>
			<point x="932" y="151" type="curve" smooth="yes"/>
			<point x="932" y="326"/>
			<point x="772" y="479"/>
			<point x="500" y="479" type="curve" smooth="yes"/>
			<point x="235" y="479"/>
			<point x="68" y="326"/>
			<point x="68" y="151" type="curve" smooth="yes"/>
			<point x="68" y="33"/>
			<point x="135" y="-10"/>
			<point x="305" y="-10" type="curve" smooth="yes"/>
			<point x="343" y="-10"/>
			<point x="364" y="-3"/>
			<point x="364" y="38" type="curve" smooth="yes"/>
			<point x="364" y="65"/>
			<point x="343" y="78"/>
			<point x="303" y="78" type="curve" smooth="yes"/>
			<point x="190" y="78"/>
			<point x="163" y="102"/>
			<point x="163" y="151" type="curve" smooth="yes"/>
			<point x="163" y="270"/>
			<point x="292" y="391"/>
			<point x="500" y="391" type="curve" smooth="yes"/>
			<point x="709" y="391"/>
			<point x="837" y="268"/>
			<point x="837" y="151" type="curve" smooth="yes"/>
			<point x="837" y="102"/>
			<point x="810" y="78"/>
			<point x="697" y="78" type="curve" smooth="yes"/>
			<point x="657" y="78"/>
			<point x="635" y="61"/>
			<point x="635" y="34" type="curve" smooth="yes"/>
			<point x="635" y="-24"/>
			<point x="764" y="-161"/>
			<point x="827" y="-161" type="curve" smooth="yes"/>
			<point x="849" y="-161"/>
			<point x="867" y="-144"/>
			<point x="867" y="-119" type="curve" smooth="yes"/>
			<point x="867" y="-102"/>
			<point x="857" y="-89"/>
			<point x="843" y="-79" type="curve" smooth="yes"/>
			<point x="818" y="-61"/>
			<point x="784" y="-42"/>
			<point x="752" y="-8" type="curve"/>
			<point x="879" y="1"/>
			<point x="932" y="46"/>
		</contour>
	</outline>
</glyph>
